<svg width="100" height="100" viewBox="0 0 100 100" fill="none" xmlns="http://www.w3.org/2000/svg">
<path d="M91.3285 80.4689C91.444 80.0762 91.5033 79.6691 91.5048 79.2598C91.5048 75.8089 87.3066 73.0129 82.1093 73.0129C76.912 73.0129 72.7139 75.8089 72.7139 79.2598C72.7147 79.6695 72.7755 80.0768 72.8944 80.4689H91.3285Z" fill="#68E1FD"/>
<path d="M91.3249 80.8856H72.8908C72.7971 80.8894 72.7049 80.8616 72.6288 80.8068C72.5527 80.7521 72.4972 80.6734 72.471 80.5834C72.3422 80.1529 72.2757 79.7061 72.2737 79.2568C72.2737 75.5792 76.6775 72.5901 82.089 72.5901C87.5004 72.5901 91.9042 75.5792 91.9042 79.2568C91.9042 79.7063 91.8377 80.1533 91.7069 80.5834C91.6826 80.6672 91.6327 80.7414 91.5642 80.7956C91.4958 80.8498 91.4121 80.8812 91.3249 80.8856ZM73.2141 80.046H90.9974C91.0521 79.7864 91.0802 79.522 91.0814 79.2568C91.0814 76.041 87.0554 73.4297 82.1058 73.4297C77.1561 73.4297 73.1301 76.041 73.1301 79.2568C73.1313 79.522 73.1594 79.7864 73.2141 80.046Z" fill="#093F68"/>
<path d="M82.1151 77.1577C82.0038 77.1577 81.897 77.1135 81.8183 77.0347C81.7395 76.956 81.6953 76.8492 81.6953 76.7379V73.0099C81.6953 72.8986 81.7395 72.7918 81.8183 72.713C81.897 72.6343 82.0038 72.5901 82.1151 72.5901C82.2265 72.5901 82.3332 72.6343 82.412 72.713C82.4907 72.7918 82.5349 72.8986 82.5349 73.0099V76.7379C82.5349 76.8492 82.4907 76.956 82.412 77.0347C82.3332 77.1135 82.2265 77.1577 82.1151 77.1577Z" fill="#093F68"/>
<path d="M97.1606 80.4797H2.84494C1.50712 80.4797 0.422607 81.5643 0.422607 82.9021V83.2967C0.422607 84.6345 1.50712 85.719 2.84494 85.719H97.1606C98.4985 85.719 99.583 84.6345 99.583 83.2967V82.9021C99.583 81.5643 98.4985 80.4797 97.1606 80.4797Z" fill="#725858"/>
<path d="M97.1578 86.1361H2.84215C2.0887 86.1349 1.36644 85.8352 0.833673 85.3024C0.300907 84.7696 0.00111046 84.0474 0 83.2939V82.8993C0.00111046 82.1458 0.300907 81.4236 0.833673 80.8908C1.36644 80.358 2.0887 80.0582 2.84215 80.0571H97.1578C97.9113 80.0582 98.6336 80.358 99.1663 80.8908C99.6991 81.4236 99.9989 82.1458 100 82.8993V83.2939C99.9989 84.0474 99.6991 84.7696 99.1663 85.3024C98.6336 85.8352 97.9113 86.1349 97.1578 86.1361ZM2.84215 80.8968C2.31139 80.8979 1.80268 81.1092 1.42738 81.4845C1.05207 81.8598 0.84074 82.3685 0.839631 82.8993V83.2939C0.84074 83.8247 1.05207 84.3334 1.42738 84.7087C1.80268 85.084 2.31139 85.2953 2.84215 85.2964H97.1578C97.6886 85.2953 98.1973 85.084 98.5726 84.7087C98.9479 84.3334 99.1593 83.8247 99.1604 83.2939V82.8993C99.1593 82.3685 98.9479 81.8598 98.5726 81.4845C98.1973 81.1092 97.6886 80.8979 97.1578 80.8968H2.84215Z" fill="#093F68"/>
<path d="M79.9268 17.7864H20.0611C17.7449 17.7864 15.8672 19.6641 15.8672 21.9803V65.1835C15.8672 67.4998 17.7449 69.3775 20.0611 69.3775H79.9268C82.2431 69.3775 84.1208 67.4998 84.1208 65.1835V21.9803C84.1208 19.6641 82.2431 17.7864 79.9268 17.7864Z" fill="#68E1FD"/>
<path d="M79.928 69.7985H20.0623C18.8375 69.7985 17.6629 69.3119 16.7969 68.4459C15.9309 67.5798 15.4443 66.4052 15.4443 65.1805V21.9815C15.4443 20.7567 15.9309 19.5821 16.7969 18.7161C17.6629 17.8501 18.8375 17.3635 20.0623 17.3635H79.928C81.1527 17.3635 82.3273 17.8501 83.1934 18.7161C84.0594 19.5821 84.5459 20.7567 84.5459 21.9815V65.1805C84.5459 66.4052 84.0594 67.5798 83.1934 68.4459C82.3273 69.3119 81.1527 69.7985 79.928 69.7985ZM20.0623 18.2074C19.0602 18.2074 18.0992 18.6054 17.3906 19.314C16.682 20.0226 16.284 20.9836 16.284 21.9857V65.1805C16.284 66.1826 16.682 67.1436 17.3906 67.8522C18.0992 68.5608 19.0602 68.9588 20.0623 68.9588H79.928C80.93 68.9588 81.8911 68.5608 82.5996 67.8522C83.3082 67.1436 83.7063 66.1826 83.7063 65.1805V21.9815C83.7063 20.9794 83.3082 20.0184 82.5996 19.3098C81.8911 18.6012 80.93 18.2032 79.928 18.2032L20.0623 18.2074Z" fill="#093F68"/>
<path d="M62.0961 80.4807H37.8979L40.4252 69.385H59.5688L62.0961 80.4807Z" fill="#68E1FD"/>
<path d="M62.0908 80.8979H37.8927C37.8296 80.8976 37.7674 80.8831 37.7108 80.8555C37.6541 80.8279 37.6043 80.7878 37.5652 80.7383C37.5265 80.6892 37.4992 80.6321 37.4854 80.5711C37.4716 80.51 37.4716 80.4467 37.4855 80.3857L40.0044 69.29C40.0257 69.1953 40.0792 69.1109 40.1557 69.0512C40.2323 68.9915 40.3271 68.9602 40.4242 68.9625H59.5677C59.6648 68.9602 59.7597 68.9915 59.8362 69.0512C59.9127 69.1109 59.9662 69.1953 59.9876 69.29L62.5065 80.3857C62.5203 80.4467 62.5203 80.51 62.5065 80.5711C62.4927 80.6321 62.4654 80.6892 62.4267 80.7383C62.3867 80.7889 62.3356 80.8297 62.2774 80.8573C62.2191 80.885 62.1553 80.8989 62.0908 80.8979ZM38.4217 80.0582H61.5619L59.2277 69.8022H40.7558L38.4217 80.0582Z" fill="#093F68"/>
<path d="M20.5164 22.0833H79.4626V60.3746H20.5164V22.0833Z" fill="white"/>
<path d="M79.4816 60.7916H20.5311C20.4198 60.7916 20.313 60.7474 20.2343 60.6687C20.1556 60.5899 20.1113 60.4832 20.1113 60.3718V22.0805C20.1113 21.9691 20.1556 21.8623 20.2343 21.7836C20.313 21.7049 20.4198 21.6606 20.5311 21.6606H79.4816C79.5929 21.6606 79.6997 21.7049 79.7785 21.7836C79.8572 21.8623 79.9014 21.9691 79.9014 22.0805V60.3718C79.9014 60.4832 79.8572 60.5899 79.7785 60.6687C79.6997 60.7474 79.5929 60.7916 79.4816 60.7916ZM20.951 59.952H79.0618V22.5003H20.951V59.952Z" fill="#093F68"/>
<path d="M20.5164 22.0833H37.8925V60.3746H20.5164V22.0833Z" fill="white"/>
<path d="M37.9073 60.7916H20.5311C20.4198 60.7916 20.313 60.7474 20.2343 60.6687C20.1556 60.5899 20.1113 60.4832 20.1113 60.3718V22.0805C20.1113 21.9691 20.1556 21.8623 20.2343 21.7836C20.313 21.7049 20.4198 21.6606 20.5311 21.6606H37.9073C38.0186 21.6606 38.1254 21.7049 38.2042 21.7836C38.2829 21.8623 38.3271 21.9691 38.3271 22.0805V60.3718C38.3271 60.4832 38.2829 60.5899 38.2042 60.6687C38.1254 60.7474 38.0186 60.7916 37.9073 60.7916ZM20.951 59.952H37.4875V22.5003H20.951V59.952Z" fill="#093F68"/>
<path d="M37.8979 22.0833H79.4681V60.3746H37.8979V22.0833Z" fill="#093F68"/>
<path d="M79.4742 60.7916H37.9125C37.8011 60.7916 37.6944 60.7474 37.6156 60.6687C37.5369 60.5899 37.4927 60.4832 37.4927 60.3718V22.0805C37.4927 21.9691 37.5369 21.8623 37.6156 21.7836C37.6944 21.7049 37.8011 21.6606 37.9125 21.6606H79.4742C79.5855 21.6606 79.6923 21.7049 79.7711 21.7836C79.8498 21.8623 79.894 21.9691 79.894 22.0805V60.3718C79.894 60.4832 79.8498 60.5899 79.7711 60.6687C79.6923 60.7474 79.5855 60.7916 79.4742 60.7916ZM38.3323 59.952H79.0544V22.5003H38.3323V59.952Z" fill="#093F68"/>
<path d="M32.6734 27.343H25.6205C25.5092 27.343 25.4024 27.2988 25.3236 27.2201C25.2449 27.1414 25.2007 27.0346 25.2007 26.9232C25.2007 26.8119 25.2449 26.7051 25.3236 26.6264C25.4024 26.5476 25.5092 26.5034 25.6205 26.5034H32.6734C32.7847 26.5034 32.8915 26.5476 32.9703 26.6264C33.049 26.7051 33.0932 26.8119 33.0932 26.9232C33.0932 27.0346 33.049 27.1414 32.9703 27.2201C32.8915 27.2988 32.7847 27.343 32.6734 27.343Z" fill="#093F68"/>
<path d="M33.872 31.4815H27.9274C27.816 31.4815 27.7093 31.4372 27.6305 31.3585C27.5518 31.2798 27.5076 31.173 27.5076 31.0617C27.5076 30.9503 27.5518 30.8435 27.6305 30.7648C27.7093 30.6861 27.816 30.6418 27.9274 30.6418H33.872C33.9833 30.6418 34.0901 30.6861 34.1688 30.7648C34.2476 30.8435 34.2918 30.9503 34.2918 31.0617C34.2918 31.173 34.2476 31.2798 34.1688 31.3585C34.0901 31.4372 33.9833 31.4815 33.872 31.4815Z" fill="#093F68"/>
<path d="M34.6784 35.6201H29.7413C29.63 35.6201 29.5232 35.5759 29.4445 35.4972C29.3658 35.4185 29.3215 35.3117 29.3215 35.2003C29.3215 35.089 29.3658 34.9822 29.4445 34.9035C29.5232 34.8247 29.63 34.7805 29.7413 34.7805H34.6784C34.7897 34.7805 34.8965 34.8247 34.9752 34.9035C35.054 34.9822 35.0982 35.089 35.0982 35.2003C35.0982 35.3117 35.054 35.4185 34.9752 35.4972C34.8965 35.5759 34.7897 35.6201 34.6784 35.6201Z" fill="#093F68"/>
<path d="M33.0649 39.741H26.818C26.7067 39.741 26.5999 39.6968 26.5212 39.618C26.4424 39.5393 26.3982 39.4325 26.3982 39.3212C26.3982 39.2098 26.4424 39.1031 26.5212 39.0243C26.5999 38.9456 26.7067 38.9014 26.818 38.9014H33.0649C33.1762 38.9014 33.283 38.9456 33.3617 39.0243C33.4404 39.1031 33.4847 39.2098 33.4847 39.3212C33.4847 39.4325 33.4404 39.5393 33.3617 39.618C33.283 39.6968 33.1762 39.741 33.0649 39.741Z" fill="#093F68"/>
<path d="M31.3972 43.8794H25.6205C25.5092 43.8794 25.4024 43.8352 25.3236 43.7565C25.2449 43.6777 25.2007 43.571 25.2007 43.4596C25.2007 43.3483 25.2449 43.2415 25.3236 43.1628C25.4024 43.084 25.5092 43.0398 25.6205 43.0398H31.3972C31.5085 43.0398 31.6153 43.084 31.694 43.1628C31.7727 43.2415 31.817 43.3483 31.817 43.4596C31.817 43.571 31.7727 43.6777 31.694 43.7565C31.6153 43.8352 31.5085 43.8794 31.3972 43.8794Z" fill="#093F68"/>
<path d="M32.6625 48.0003H27.5575C27.4462 48.0003 27.3394 47.956 27.2607 47.8773C27.1819 47.7986 27.1377 47.6918 27.1377 47.5805C27.1377 47.4691 27.1819 47.3623 27.2607 47.2836C27.3394 47.2049 27.4462 47.1606 27.5575 47.1606H32.6625C32.7738 47.1606 32.8806 47.2049 32.9593 47.2836C33.0381 47.3623 33.0823 47.4691 33.0823 47.5805C33.0823 47.6918 33.0381 47.7986 32.9593 47.8773C32.8806 47.956 32.7738 48.0003 32.6625 48.0003Z" fill="#093F68"/>
<path d="M30.9102 52.1387H25.6205C25.5092 52.1387 25.4024 52.0945 25.3236 52.0157C25.2449 51.937 25.2007 51.8302 25.2007 51.7189C25.2007 51.6075 25.2449 51.5008 25.3236 51.422C25.4024 51.3433 25.5092 51.2991 25.6205 51.2991H30.9102C31.0215 51.2991 31.1283 51.3433 31.207 51.422C31.2858 51.5008 31.33 51.6075 31.33 51.7189C31.33 51.8302 31.2858 51.937 31.207 52.0157C31.1283 52.0945 31.0215 52.1387 30.9102 52.1387Z" fill="#093F68"/>
<path d="M32.6625 56.2596H27.5575C27.4462 56.2596 27.3394 56.2153 27.2607 56.1366C27.1819 56.0579 27.1377 55.9511 27.1377 55.8397C27.1377 55.7284 27.1819 55.6216 27.2607 55.5429C27.3394 55.4642 27.4462 55.4199 27.5575 55.4199H32.6625C32.7738 55.4199 32.8806 55.4642 32.9593 55.5429C33.0381 55.6216 33.0823 55.7284 33.0823 55.8397C33.0823 55.9511 33.0381 56.0579 32.9593 56.1366C32.8806 56.2153 32.7738 56.2596 32.6625 56.2596Z" fill="#093F68"/>
<path d="M50.4249 27.343H43.372C43.2606 27.343 43.1538 27.2988 43.0751 27.2201C42.9964 27.1414 42.9521 27.0346 42.9521 26.9232C42.9521 26.8119 42.9964 26.7051 43.0751 26.6264C43.1538 26.5476 43.2606 26.5034 43.372 26.5034H50.4249C50.5362 26.5034 50.643 26.5476 50.7217 26.6264C50.8004 26.7051 50.8447 26.8119 50.8447 26.9232C50.8447 27.0346 50.8004 27.1414 50.7217 27.2201C50.643 27.2988 50.5362 27.343 50.4249 27.343Z" fill="white"/>
<path d="M60.1365 31.4815H45.6613C45.5499 31.4815 45.4432 31.4372 45.3644 31.3585C45.2857 31.2798 45.2415 31.173 45.2415 31.0617C45.2415 30.9503 45.2857 30.8435 45.3644 30.7648C45.4432 30.6861 45.5499 30.6418 45.6613 30.6418H60.1365C60.2478 30.6418 60.3546 30.6861 60.4334 30.7648C60.5121 30.8435 60.5563 30.9503 60.5563 31.0617C60.5563 31.173 60.5121 31.2798 60.4334 31.3585C60.3546 31.4372 60.2478 31.4815 60.1365 31.4815Z" fill="#FFBC0E"/>
<path d="M56.5429 35.6201H45.6613C45.5499 35.6201 45.4432 35.5759 45.3644 35.4972C45.2857 35.4185 45.2415 35.3117 45.2415 35.2003C45.2415 35.089 45.2857 34.9822 45.3644 34.9035C45.4432 34.8247 45.5499 34.7805 45.6613 34.7805H56.5429C56.6542 34.7805 56.761 34.8247 56.8397 34.9035C56.9185 34.9822 56.9627 35.089 56.9627 35.2003C56.9627 35.3117 56.9185 35.4185 56.8397 35.4972C56.761 35.5759 56.6542 35.6201 56.5429 35.6201Z" fill="#FFBC0E"/>
<path d="M50.7977 39.741H44.5341C44.4227 39.741 44.3159 39.6968 44.2372 39.618C44.1585 39.5393 44.1143 39.4325 44.1143 39.3212C44.1143 39.2098 44.1585 39.1031 44.2372 39.0243C44.3159 38.9456 44.4227 38.9014 44.5341 38.9014H50.7809C50.8923 38.9014 50.999 38.9456 51.0778 39.0243C51.1565 39.1031 51.2007 39.2098 51.2007 39.3212C51.2007 39.4325 51.1565 39.5393 51.0778 39.618C50.999 39.6968 50.8923 39.741 50.7809 39.741H50.7977Z" fill="white"/>
<path d="M53.2944 43.8794H46.2247C46.1134 43.8794 46.0066 43.8352 45.9279 43.7565C45.8492 43.6777 45.8049 43.571 45.8049 43.4596C45.8049 43.3483 45.8492 43.2415 45.9279 43.1628C46.0066 43.084 46.1134 43.0398 46.2247 43.0398H53.2776C53.389 43.0398 53.4958 43.084 53.5745 43.1628C53.6532 43.2415 53.6975 43.3483 53.6975 43.4596C53.6975 43.571 53.6532 43.6777 53.5745 43.7565C53.4958 43.8352 53.389 43.8794 53.2776 43.8794H53.2944Z" fill="#F56132"/>
<path d="M56.8857 48.0003H45.9957C45.8844 48.0003 45.7776 47.956 45.6989 47.8773C45.6202 47.7986 45.5759 47.6918 45.5759 47.5805C45.5759 47.4691 45.6202 47.3623 45.6989 47.2836C45.7776 47.2049 45.8844 47.1606 45.9957 47.1606H56.8857C56.9971 47.1606 57.1039 47.2049 57.1826 47.2836C57.2613 47.3623 57.3056 47.4691 57.3056 47.5805C57.3056 47.6918 57.2613 47.7986 57.1826 47.8773C57.1039 47.956 56.9971 48.0003 56.8857 48.0003Z" fill="white"/>
<path d="M48.6441 52.1387H43.3544C43.243 52.1387 43.1363 52.0945 43.0575 52.0157C42.9788 51.937 42.9346 51.8302 42.9346 51.7189C42.9346 51.6075 42.9788 51.5008 43.0575 51.422C43.1363 51.3433 43.243 51.2991 43.3544 51.2991H48.6441C48.7554 51.2991 48.8622 51.3433 48.9409 51.422C49.0196 51.5008 49.0639 51.6075 49.0639 51.7189C49.0639 51.8302 49.0196 51.937 48.9409 52.0157C48.8622 52.0945 48.7554 52.1387 48.6441 52.1387Z" fill="white"/>
<path d="M56.8783 56.2596H45.2914C45.1801 56.2596 45.0733 56.2153 44.9945 56.1366C44.9158 56.0579 44.8716 55.9511 44.8716 55.8397C44.8716 55.7284 44.9158 55.6216 44.9945 55.5429C45.0733 55.4642 45.1801 55.4199 45.2914 55.4199H56.8783C56.9896 55.4199 57.0964 55.4642 57.1751 55.5429C57.2539 55.6216 57.2981 55.7284 57.2981 55.8397C57.2981 55.9511 57.2539 56.0579 57.1751 56.1366C57.0964 56.2153 56.9896 56.2596 56.8783 56.2596Z" fill="#70CC40"/>
<path d="M67.9907 56.2596H60.3837C60.2723 56.2596 60.1656 56.2153 60.0868 56.1366C60.0081 56.0579 59.9639 55.9511 59.9639 55.8397C59.9639 55.7284 60.0081 55.6216 60.0868 55.5429C60.1656 55.4642 60.2723 55.4199 60.3837 55.4199H67.9907C68.1021 55.4199 68.2089 55.4642 68.2876 55.5429C68.3663 55.6216 68.4105 55.7284 68.4105 55.8397C68.4105 55.9511 68.3663 56.0579 68.2876 56.1366C68.2089 56.2153 68.1021 56.2596 67.9907 56.2596Z" fill="#FFBC0E"/>
<path d="M65.5283 35.6201H60.1547C60.0433 35.6201 59.9366 35.5759 59.8578 35.4972C59.7791 35.4185 59.7349 35.3117 59.7349 35.2003C59.7349 35.089 59.7791 34.9822 59.8578 34.9035C59.9366 34.8247 60.0433 34.7805 60.1547 34.7805H65.5283C65.6397 34.7805 65.7464 34.8247 65.8252 34.9035C65.9039 34.9822 65.9481 35.089 65.9481 35.2003C65.9481 35.3117 65.9039 35.4185 65.8252 35.4972C65.7464 35.5759 65.6397 35.6201 65.5283 35.6201Z" fill="white"/>
<path d="M73.1799 31.4815H62.8314C62.7201 31.4815 62.6133 31.4372 62.5346 31.3585C62.4559 31.2798 62.4116 31.173 62.4116 31.0617C62.4116 30.9503 62.4559 30.8435 62.5346 30.7648C62.6133 30.6861 62.7201 30.6418 62.8314 30.6418H73.1799C73.2912 30.6418 73.398 30.6861 73.4767 30.7648C73.5555 30.8435 73.5997 30.9503 73.5997 31.0617C73.5997 31.173 73.5555 31.2798 73.4767 31.3585C73.398 31.4372 73.2912 31.4815 73.1799 31.4815Z" fill="#68E1FD"/>
<path d="M71.4542 35.6201H68.4315C68.3202 35.6201 68.2134 35.5759 68.1347 35.4972C68.0559 35.4185 68.0117 35.3117 68.0117 35.2003C68.0117 35.089 68.0559 34.9822 68.1347 34.9035C68.2134 34.8247 68.3202 34.7805 68.4315 34.7805H71.4542C71.5655 34.7805 71.6723 34.8247 71.7511 34.9035C71.8298 34.9822 71.874 35.089 71.874 35.2003C71.874 35.3117 71.8298 35.4185 71.7511 35.4972C71.6723 35.5759 71.5655 35.6201 71.4542 35.6201Z" fill="#F56132"/>
<path d="M58.3873 43.8794H55.3646C55.2533 43.8794 55.1465 43.8352 55.0678 43.7565C54.9891 43.6777 54.9448 43.571 54.9448 43.4596C54.9448 43.3483 54.9891 43.2415 55.0678 43.1628C55.1465 43.084 55.2533 43.0398 55.3646 43.0398H58.3873C58.4987 43.0398 58.6054 43.084 58.6842 43.1628C58.7629 43.2415 58.8071 43.3483 58.8071 43.4596C58.8071 43.571 58.7629 43.6777 58.6842 43.7565C58.6054 43.8352 58.4987 43.8794 58.3873 43.8794Z" fill="#F56132"/>
<path d="M73.1732 43.8794H60.8768C60.7655 43.8794 60.6587 43.8352 60.58 43.7565C60.5013 43.6777 60.457 43.571 60.457 43.4596C60.457 43.3483 60.5013 43.2415 60.58 43.1628C60.6587 43.084 60.7655 43.0398 60.8768 43.0398H73.1732C73.2846 43.0398 73.3914 43.084 73.4701 43.1628C73.5488 43.2415 73.593 43.3483 73.593 43.4596C73.593 43.571 73.5488 43.6777 73.4701 43.7565C73.3914 43.8352 73.2846 43.8794 73.1732 43.8794Z" fill="#FFBC0E"/>
<path d="M62.8239 48.0003H60.1371C60.0258 48.0003 59.919 47.956 59.8402 47.8773C59.7615 47.7986 59.7173 47.6918 59.7173 47.5805C59.7173 47.4691 59.7615 47.3623 59.8402 47.2836C59.919 47.2049 60.0258 47.1606 60.1371 47.1606H62.8239C62.9353 47.1606 63.042 47.2049 63.1208 47.2836C63.1995 47.3623 63.2437 47.4691 63.2437 47.5805C63.2437 47.6918 63.1995 47.7986 63.1208 47.8773C63.042 47.956 62.9353 48.0003 62.8239 48.0003Z" fill="#68E1FD"/>
<path d="M73.1776 56.2596H71.4606C71.3492 56.2596 71.2425 56.2153 71.1637 56.1366C71.085 56.0579 71.0408 55.9511 71.0408 55.8397C71.0408 55.7284 71.085 55.6216 71.1637 55.5429C71.2425 55.4642 71.3492 55.4199 71.4606 55.4199H73.1776C73.289 55.4199 73.3958 55.4642 73.4745 55.5429C73.5532 55.6216 73.5974 55.7284 73.5974 55.8397C73.5974 55.9511 73.5532 56.0579 73.4745 56.1366C73.3958 56.2153 73.289 56.2596 73.1776 56.2596Z" fill="white"/>
<path d="M95.758 14.4226H70.036C69.0251 14.4226 68.2056 15.2421 68.2056 16.253V35.8164C68.2056 36.8273 69.0251 37.6468 70.036 37.6468H95.758C96.7689 37.6468 97.5884 36.8273 97.5884 35.8164V16.253C97.5884 15.2421 96.7689 14.4226 95.758 14.4226Z" fill="white"/>
<path d="M95.7636 38.0638H70.0332C69.4367 38.0627 68.865 37.8253 68.4433 37.4035C68.0215 36.9818 67.7841 36.4101 67.783 35.8136V16.2502C67.7841 15.6538 68.0215 15.0821 68.4433 14.6603C68.865 14.2385 69.4367 14.0011 70.0332 14H95.7636C96.3601 14.0011 96.9318 14.2385 97.3536 14.6603C97.7753 15.0821 98.0127 15.6538 98.0138 16.2502V35.8136C98.0127 36.4101 97.7753 36.9818 97.3536 37.4035C96.9318 37.8253 96.3601 38.0627 95.7636 38.0638ZM70.0332 14.8396C69.6594 14.8407 69.3013 14.9897 69.037 15.254C68.7727 15.5183 68.6237 15.8764 68.6226 16.2502V35.8136C68.6237 36.1874 68.7727 36.5455 69.037 36.8098C69.3013 37.0741 69.6594 37.2231 70.0332 37.2242H95.7636C96.1374 37.2231 96.4956 37.0741 96.7598 36.8098C97.0241 36.5455 97.1731 36.1874 97.1742 35.8136V16.2502C97.1731 15.8764 97.0241 15.5183 96.7598 15.254C96.4956 14.9897 96.1374 14.8407 95.7636 14.8396H70.0332Z" fill="#093F68"/>
<path d="M97.5898 20.1404H68.2028C68.0914 20.1404 67.9847 20.0962 67.9059 20.0174C67.8272 19.9387 67.783 19.8319 67.783 19.7206C67.783 19.6093 67.8272 19.5025 67.9059 19.4237C67.9847 19.345 68.0914 19.3008 68.2028 19.3008H97.5898C97.7012 19.3008 97.808 19.345 97.8867 19.4237C97.9654 19.5025 98.0097 19.6093 98.0097 19.7206C98.0097 19.8319 97.9654 19.9387 97.8867 20.0174C97.808 20.0962 97.7012 20.1404 97.5898 20.1404Z" fill="#093F68"/>
<path d="M71.0042 17.8537C71.4703 17.8537 71.8481 17.4759 71.8481 17.0098C71.8481 16.5438 71.4703 16.166 71.0042 16.166C70.5382 16.166 70.1604 16.5438 70.1604 17.0098C70.1604 17.4759 70.5382 17.8537 71.0042 17.8537Z" fill="#68E1FD"/>
<path d="M73.6634 17.8537C74.1294 17.8537 74.5072 17.4759 74.5072 17.0098C74.5072 16.5438 74.1294 16.166 73.6634 16.166C73.1974 16.166 72.8196 16.5438 72.8196 17.0098C72.8196 17.4759 73.1974 17.8537 73.6634 17.8537Z" fill="#093F68"/>
<path d="M76.3226 17.8537C76.7886 17.8537 77.1664 17.4759 77.1664 17.0098C77.1664 16.5438 76.7886 16.166 76.3226 16.166C75.8565 16.166 75.4788 16.5438 75.4788 17.0098C75.4788 17.4759 75.8565 17.8537 76.3226 17.8537Z" fill="#093F68"/>
<path d="M79.2686 32.1012C79.1715 32.1026 79.0774 32.0682 79.0041 32.0046L75.0494 28.7301C75.0019 28.6907 74.9636 28.6413 74.9373 28.5854C74.9111 28.5295 74.8975 28.4685 74.8975 28.4068C74.8975 28.3451 74.9111 28.2841 74.9373 28.2282C74.9636 28.1723 75.0019 28.1229 75.0494 28.0835L79.0041 24.8048C79.0906 24.7421 79.1977 24.7147 79.3036 24.7282C79.4096 24.7418 79.5064 24.7952 79.5744 24.8776C79.6423 24.96 79.6763 25.0652 79.6694 25.1718C79.6625 25.2784 79.6153 25.3783 79.5372 25.4513L75.9772 28.39L79.5372 31.3287C79.5797 31.364 79.6149 31.4072 79.6406 31.4561C79.6664 31.5049 79.6823 31.5584 79.6873 31.6134C79.6924 31.6683 79.6866 31.7238 79.6702 31.7765C79.6538 31.8293 79.6272 31.8782 79.5918 31.9207C79.5553 31.9735 79.5072 32.0172 79.4512 32.0485C79.3951 32.0798 79.3327 32.0978 79.2686 32.1012Z" fill="#68E1FD"/>
<path d="M86.5185 32.0889C86.4568 32.089 86.3958 32.0755 86.34 32.0494C86.2841 32.0233 86.2347 31.9852 86.1952 31.9378C86.1598 31.8954 86.1332 31.8464 86.1168 31.7937C86.1004 31.7409 86.0946 31.6855 86.0997 31.6305C86.1047 31.5755 86.1206 31.5221 86.1464 31.4732C86.1721 31.4244 86.2073 31.3811 86.2498 31.3459L89.8098 28.4072L86.2498 25.4685C86.2073 25.4332 86.1722 25.3899 86.1465 25.341C86.1208 25.2922 86.105 25.2388 86.0999 25.1838C86.0948 25.1288 86.1006 25.0734 86.117 25.0207C86.1333 24.9679 86.1599 24.919 86.1952 24.8765C86.2305 24.8341 86.2738 24.799 86.3226 24.7733C86.3715 24.7475 86.4249 24.7317 86.4799 24.7266C86.5348 24.7216 86.5903 24.7274 86.643 24.7437C86.6957 24.7601 86.7447 24.7867 86.7871 24.8219L90.7166 28.0713C90.7641 28.1107 90.8024 28.1601 90.8287 28.216C90.8549 28.2718 90.8686 28.3328 90.8686 28.3946C90.8686 28.4563 90.8549 28.5173 90.8287 28.5732C90.8024 28.629 90.7641 28.6784 90.7166 28.7178L86.7703 32.0092C86.6972 32.0622 86.6088 32.0902 86.5185 32.0889Z" fill="#68E1FD"/>
<path d="M80.7748 34.0479C80.7172 34.0469 80.6603 34.0355 80.6068 34.0143C80.5564 33.992 80.5108 33.96 80.4727 33.9201C80.4346 33.8801 80.4048 33.8331 80.3849 33.7816C80.365 33.7302 80.3555 33.6753 80.3568 33.6201C80.3582 33.565 80.3704 33.5106 80.3927 33.4602L85.0107 23.0026C85.033 22.9521 85.065 22.9065 85.1049 22.8685C85.1449 22.8304 85.1919 22.8005 85.2434 22.7807C85.2949 22.7608 85.3497 22.7512 85.4049 22.7526C85.4601 22.7539 85.5144 22.7661 85.5649 22.7885C85.6153 22.8108 85.6609 22.8428 85.699 22.8827C85.737 22.9227 85.7669 22.9697 85.7868 23.0212C85.8067 23.0726 85.8162 23.1275 85.8149 23.1827C85.8135 23.2378 85.8013 23.2922 85.7789 23.3426L81.161 33.8002C81.1276 33.8745 81.0733 33.9375 81.0047 33.9815C80.9361 34.0255 80.8562 34.0486 80.7748 34.0479Z" fill="#68E1FD"/>
<path d="M30.7521 62.7458H11.2055C10.3175 62.7458 9.59766 63.4657 9.59766 64.3537V73.3084C9.59766 74.1964 10.3175 74.9163 11.2055 74.9163H30.7521C31.6402 74.9163 32.36 74.1964 32.36 73.3084V64.3537C32.36 63.4657 31.6402 62.7458 30.7521 62.7458Z" fill="white"/>
<path d="M30.7494 75.3551H11.2028C10.6653 75.354 10.1502 75.14 9.77017 74.76C9.39014 74.3799 9.17616 73.8648 9.17505 73.3274V64.3685C9.17616 63.8311 9.39014 63.316 9.77017 62.9359C10.1502 62.5559 10.6653 62.3419 11.2028 62.3408H30.7494C31.0156 62.3408 31.2793 62.3933 31.5253 62.4952C31.7713 62.5971 31.9949 62.7464 32.1832 62.9347C32.3715 63.123 32.5208 63.3465 32.6227 63.5926C32.7246 63.8386 32.7771 64.1022 32.7771 64.3685V73.3274C32.7771 73.5937 32.7246 73.8573 32.6227 74.1034C32.5208 74.3494 32.3715 74.5729 32.1832 74.7612C31.9949 74.9495 31.7713 75.0988 31.5253 75.2007C31.2793 75.3026 31.0156 75.3551 30.7494 75.3551ZM11.2028 63.1805C10.8877 63.1805 10.5855 63.3056 10.3627 63.5284C10.1399 63.7512 10.0147 64.0534 10.0147 64.3685V73.3274C10.0147 73.6425 10.1399 73.9447 10.3627 74.1675C10.5855 74.3903 10.8877 74.5155 11.2028 74.5155H30.7494C30.9054 74.5155 31.0599 74.4847 31.204 74.425C31.3482 74.3653 31.4791 74.2778 31.5895 74.1675C31.6998 74.0572 31.7873 73.9262 31.847 73.782C31.9067 73.6379 31.9374 73.4834 31.9374 73.3274V64.3685C31.9374 64.2125 31.9067 64.058 31.847 63.9139C31.7873 63.7697 31.6998 63.6388 31.5895 63.5284C31.4791 63.4181 31.3482 63.3306 31.204 63.2709C31.0599 63.2112 30.9054 63.1805 30.7494 63.1805H11.2028Z" fill="#093F68"/>
<path d="M14.2468 66.99H14.8807V68.409H16.56V66.99H17.1939V70.5584H16.56V68.9841H14.8807V70.5584H14.2468V66.99Z" fill="#68E1FD"/>
<path d="M18.7239 67.5651H17.6282V66.99H20.4493V67.5651H19.362V70.5584H18.7281L18.7239 67.5651Z" fill="#68E1FD"/>
<path d="M20.886 66.99H21.8684L22.8213 69.4879L23.7827 66.99H24.7399V70.5584H24.1354V67.5945L23.0522 70.5584H22.582L21.5031 67.5945V70.5584H20.8986L20.886 66.99Z" fill="#68E1FD"/>
<path d="M25.5352 66.99H26.1691V69.9833H27.6846V70.5584H25.5352V66.99Z" fill="#68E1FD"/>
</svg>
