<svg width="100" height="100" viewBox="0 0 100 100" fill="none" xmlns="http://www.w3.org/2000/svg">
<path d="M62.0675 99.4256L69.4427 88.4401L82.1672 92.0504L64.8773 44.9338L44.7776 52.3091L62.0675 99.4256Z" fill="#093F68"/>
<path d="M62.0732 99.9778H62.0069C61.9057 99.9656 61.8098 99.9257 61.7299 99.8623C61.65 99.799 61.5892 99.7148 61.5542 99.619L44.2644 52.5079C44.2389 52.4395 44.2273 52.3666 44.2302 52.2936C44.2331 52.2206 44.2504 52.1489 44.2812 52.0827C44.312 52.0165 44.3557 51.957 44.4097 51.9078C44.4636 51.8585 44.5268 51.8205 44.5956 51.7958L64.6898 44.4371C64.8275 44.3874 64.9792 44.3944 65.1117 44.4565C65.2442 44.5186 65.3466 44.6308 65.3964 44.7684L82.6863 91.8794C82.7218 91.975 82.7301 92.0785 82.7103 92.1785C82.6905 92.2785 82.6434 92.3711 82.5743 92.446C82.5051 92.5209 82.4165 92.5751 82.3184 92.6028C82.2203 92.6304 82.1164 92.6303 82.0183 92.6026L69.6747 89.1026L62.4982 99.757C62.4485 99.8234 62.3845 99.8777 62.3109 99.9159C62.2373 99.9541 62.156 99.9753 62.0732 99.9778ZM45.512 52.6404L62.2332 98.2168L69.0068 88.131C69.072 88.0351 69.1657 87.9622 69.2747 87.9225C69.3837 87.8829 69.5024 87.8786 69.614 87.9102L81.3007 91.2225L64.5739 45.6406L45.512 52.6404Z" fill="#093F68"/>
<path d="M38.893 99.4256L31.5177 88.4401L18.7932 92.0504L36.0831 44.9338L56.1828 52.3091L38.893 99.4256Z" fill="#68E1FD"/>
<path d="M38.8873 99.9779C38.7969 99.9781 38.7078 99.956 38.6279 99.9136C38.548 99.8713 38.4797 99.8099 38.4291 99.735L31.2526 89.0807L18.909 92.5806C18.8109 92.6084 18.707 92.6084 18.6089 92.5808C18.5108 92.5532 18.4222 92.4989 18.3531 92.424C18.2839 92.3491 18.2368 92.2565 18.217 92.1565C18.1973 92.0565 18.2056 91.953 18.241 91.8574L35.5751 44.7464C35.6249 44.6088 35.7273 44.4966 35.8598 44.4345C35.9923 44.3724 36.144 44.3654 36.2817 44.4152L56.3814 51.7904C56.4502 51.8151 56.5134 51.8531 56.5673 51.9023C56.6213 51.9516 56.665 52.011 56.6958 52.0773C56.7266 52.1435 56.7439 52.2152 56.7468 52.2882C56.7497 52.3612 56.7381 52.4341 56.7126 52.5025L39.4393 99.6412C39.4044 99.737 39.3436 99.8212 39.2637 99.8845C39.1838 99.9479 39.0879 99.9878 38.9867 100L38.8873 99.9779ZM31.512 87.8883C31.6025 87.8881 31.6915 87.9102 31.7714 87.9526C31.8513 87.9949 31.9196 88.0562 31.9702 88.1312L38.7438 98.2169L55.4485 52.6405L36.3865 45.6407L19.6598 91.2226L31.3464 87.9103C31.4016 87.8923 31.4596 87.8849 31.5176 87.8883H31.512Z" fill="#093F68"/>
<path d="M84.4032 32.9104C84.4032 36.311 79.1422 38.8393 78.1486 41.9032C77.1163 45.0829 79.8489 50.2114 77.9222 52.8556C75.9956 55.4999 70.2434 54.5117 67.577 56.4439C64.9107 58.376 64.1433 64.1724 60.9525 65.1827C57.8887 66.1763 53.8699 61.9974 50.4638 61.9974C47.0577 61.9974 43.0444 66.1763 39.975 65.1827C36.7953 64.1503 36.0114 58.3705 33.3506 56.4439C30.6897 54.5173 24.9485 55.5275 23.0054 52.8556C21.0622 50.1838 23.8113 45.0829 22.779 41.9032C21.7854 38.8393 16.5244 36.311 16.5244 32.9104C16.5244 29.5099 21.7854 26.9871 22.779 23.9232C23.8113 20.7435 21.0787 15.6426 23.0054 12.9708C24.932 10.2989 30.7173 11.3147 33.3671 9.38252C36.0169 7.45038 36.8008 1.65397 39.9916 0.643734C43.0554 -0.349936 47.0743 3.829 50.4804 3.829C53.8864 3.829 57.8998 -0.349936 60.9691 0.643734C64.1488 1.67605 64.9327 7.4559 67.5936 9.38252C70.2544 11.3091 75.9956 10.2989 77.9388 12.9708C79.882 15.6426 77.1328 20.7435 78.1651 23.9232C79.1422 26.9871 84.4032 29.532 84.4032 32.9104Z" fill="#68E1FD"/>
<path d="M59.9589 65.8895C58.3856 65.8895 56.7019 65.0228 55.0678 64.1836C53.4338 63.3446 51.8826 62.5275 50.4804 62.5275C49.0782 62.5275 47.4607 63.3556 45.8929 64.1836C43.8449 65.238 41.725 66.3256 39.8205 65.7073C37.8276 65.0614 36.7346 62.8808 35.6747 60.772C34.9129 59.2429 34.1179 57.6641 33.058 56.9078C31.9981 56.1515 30.2095 55.8479 28.5092 55.5884C26.1906 55.2296 23.7948 54.8597 22.5858 53.1981C21.3769 51.5364 21.7688 49.1737 22.1387 46.8717C22.4147 45.1604 22.6907 43.3883 22.2822 42.091C21.8737 40.7937 20.7034 39.7007 19.4447 38.4641C17.7555 36.808 16 35.0691 16 32.9437C16 30.8184 17.7555 29.0795 19.4447 27.4233C20.7034 26.1813 21.8847 25.0165 22.2822 23.7964C22.6797 22.5764 22.4147 20.7271 22.1387 19.0103C21.7688 16.7138 21.3879 14.34 22.5858 12.6894C23.7838 11.0388 26.1906 10.6579 28.5092 10.2991C30.2095 10.0396 31.976 9.74704 33.058 8.97971C34.14 8.21237 34.9129 6.62802 35.6747 5.11543C36.7346 3.00664 37.8276 0.826089 39.8205 0.180203C41.7195 -0.438082 43.8394 0.649435 45.8929 1.70383C47.4607 2.50429 49.0782 3.35995 50.4804 3.35995C51.8826 3.35995 53.5 2.52637 55.0678 1.70383C57.1159 0.649435 59.2357 -0.438082 61.1403 0.180203C63.1331 0.826089 64.2262 3.00664 65.2861 5.11543C66.0479 6.64458 66.8428 8.22341 67.9027 8.97971C68.9627 9.736 70.7513 10.0396 72.4516 10.2991C74.7701 10.6579 77.166 11.0223 78.3749 12.6894C79.5839 14.3566 79.192 16.7138 78.8221 19.0103C78.5461 20.7271 78.27 22.4992 78.6786 23.7964C79.0871 25.0937 80.2574 26.1813 81.516 27.4233C83.2053 29.0795 84.9608 30.8184 84.9608 32.9437C84.9608 35.0691 83.2053 36.808 81.516 38.4641C80.2574 39.7062 79.076 40.871 78.6786 42.091C78.2811 43.311 78.5461 45.1604 78.8221 46.8717C79.192 49.1737 79.5729 51.5475 78.3749 53.1981C77.177 54.8487 74.7701 55.2296 72.4516 55.5884C70.7513 55.8479 68.9847 56.1404 67.9027 56.9078C66.8207 57.6751 66.0479 59.2595 65.2861 60.772C64.2262 62.8808 63.1331 65.0614 61.1403 65.7073C60.759 65.8318 60.36 65.8934 59.9589 65.8895ZM41.0129 1.04138C40.7264 1.03862 40.4413 1.08148 40.1683 1.16835C38.6171 1.67071 37.6234 3.64149 36.6684 5.55154C35.8458 7.20766 35.0122 8.8969 33.7094 9.82985C32.4066 10.7628 30.5131 11.0664 28.6803 11.348C26.5881 11.6681 24.4241 11.9994 23.4801 13.2967C22.5361 14.5939 22.8839 16.6089 23.2372 18.817C23.5353 20.6609 23.839 22.5654 23.3366 24.1166C22.8343 25.6679 21.5204 26.9099 20.2286 28.1852C18.694 29.6977 17.1096 31.26 17.1096 32.9327C17.1096 34.6054 18.694 36.1732 20.2286 37.6858C21.5204 38.961 22.8563 40.2803 23.3366 41.7543C23.8169 43.2282 23.5353 45.2101 23.2372 47.0539C22.8839 49.2234 22.5527 51.277 23.4801 52.5743C24.4076 53.8716 26.5881 54.2304 28.6803 54.523C30.5131 54.8045 32.4121 55.075 33.7094 56.0411C35.0067 57.0071 35.8458 58.6743 36.6684 60.3194C37.6234 62.2239 38.6115 64.1837 40.1683 64.7026C41.6312 65.1773 43.4805 64.2389 45.3851 63.2452C47.0412 62.384 48.8132 61.4897 50.4804 61.4897C52.1475 61.4897 53.892 62.384 55.5757 63.2452C57.5078 64.2389 59.3296 65.1773 60.7925 64.7026C62.3437 64.2002 63.3374 62.2239 64.2924 60.3194C65.1149 58.6633 65.9485 56.974 67.2513 56.0411C68.5542 55.1081 70.4477 54.8045 72.2804 54.523C74.3727 54.2028 76.5366 53.8716 77.4806 52.5743C78.4246 51.277 78.0768 49.262 77.7235 47.0539C77.4254 45.2101 77.1218 43.3055 77.6242 41.7543C78.1265 40.2031 79.4404 38.961 80.7321 37.6858C82.2668 36.1732 83.8512 34.6109 83.8512 32.9327C83.8512 31.2545 82.2668 29.6977 80.7321 28.1852C79.4404 26.9099 78.1044 25.5906 77.6242 24.1166C77.1439 22.6427 77.4254 20.6609 77.7235 18.817C78.0768 16.642 78.4081 14.5939 77.4806 13.2967C76.5532 11.9994 74.3727 11.6405 72.2804 11.348C70.4477 11.0664 68.5486 10.7959 67.2513 9.82985C65.9541 8.86378 65.1149 7.19662 64.2924 5.55154C63.3374 3.64149 62.3492 1.68727 60.7925 1.16835C59.3296 0.693598 57.4802 1.63207 55.5757 2.62574C53.9196 3.48692 52.1475 4.38122 50.4804 4.38122C48.8132 4.38122 47.0688 3.48692 45.3851 2.62574C43.8118 1.81424 42.3047 1.04138 41.0129 1.04138Z" fill="#093F68"/>
<path d="M50.4805 57.0405C63.8069 57.0405 74.6101 46.2373 74.6101 32.9109C74.6101 19.5845 63.8069 8.78125 50.4805 8.78125C37.154 8.78125 26.3508 19.5845 26.3508 32.9109C26.3508 46.2373 37.154 57.0405 50.4805 57.0405Z" fill="white"/>
<path d="M50.4803 57.5924C45.5987 57.5924 40.8268 56.1448 36.7679 53.4328C32.709 50.7207 29.5455 46.866 27.6774 42.356C25.8093 37.846 25.3205 32.8833 26.2728 28.0955C27.2252 23.3078 29.5759 18.9099 33.0277 15.4581C36.4795 12.0063 40.8773 9.65561 45.6651 8.70327C50.4529 7.75092 55.4156 8.2397 59.9255 10.1078C64.4355 11.9759 68.2903 15.1394 71.0023 19.1983C73.7144 23.2572 75.162 28.0291 75.162 32.9107C75.1547 39.4544 72.5519 45.7281 67.9248 50.3552C63.2977 54.9823 57.024 57.5851 50.4803 57.5924ZM50.4803 9.33861C45.8168 9.33861 41.2581 10.7216 37.3807 13.3125C33.5032 15.9035 30.4813 19.5862 28.6969 23.8947C26.9125 28.2033 26.4459 32.9443 27.3561 37.518C28.2663 42.0918 30.5124 46.2929 33.8103 49.59C37.1083 52.8872 41.3099 55.1323 45.8839 56.0414C50.4579 56.9506 55.1987 56.4829 59.5069 54.6975C63.815 52.9121 67.4969 49.8893 70.087 46.0112C72.6771 42.1332 74.059 37.5741 74.0579 32.9107C74.0506 26.6603 71.564 20.668 67.1437 16.2488C62.7235 11.8296 56.7307 9.34446 50.4803 9.33861Z" fill="#093F68"/>
<path d="M53.031 18.1437L55.7194 26.4243C55.7766 26.5862 55.8829 26.7264 56.0233 26.8253C56.1638 26.9242 56.3315 26.977 56.5033 26.9763H65.22C65.7863 26.9754 66.3383 27.154 66.7966 27.4866C67.255 27.8191 67.5961 28.2885 67.7709 28.8271C67.9458 29.3657 67.9453 29.9459 67.7697 30.4842C67.594 31.0226 67.2522 31.4914 66.7933 31.8232L59.7438 36.9461C59.6035 37.049 59.4993 37.1935 59.4458 37.3589C59.3923 37.5244 59.3922 37.7025 59.4457 37.8681L62.1396 46.1486C62.3127 46.6866 62.3115 47.2656 62.1362 47.8029C61.9609 48.3401 61.6203 48.8083 61.1632 49.1406C60.706 49.473 60.1556 49.6524 59.5904 49.6534C59.0252 49.6544 58.4742 49.4769 58.0159 49.1462L50.9663 44.0233C50.825 43.9209 50.655 43.8658 50.4805 43.8658C50.3061 43.8658 50.136 43.9209 49.9947 44.0233L42.9452 49.1462C42.4869 49.4769 41.9358 49.6544 41.3706 49.6534C40.8055 49.6524 40.255 49.473 39.7979 49.1406C39.3407 48.8083 39.0002 48.3401 38.8249 47.8029C38.6495 47.2656 38.6483 46.6866 38.8215 46.1486L41.5154 37.8681C41.5688 37.7025 41.5688 37.5244 41.5153 37.3589C41.4618 37.1935 41.3575 37.049 41.2173 36.9461L34.1678 31.8232C33.7089 31.4914 33.3671 31.0226 33.1914 30.4842C33.0157 29.9459 33.0153 29.3657 33.1901 28.8271C33.365 28.2885 33.7061 27.8191 34.1644 27.4866C34.6228 27.154 35.1748 26.9754 35.7411 26.9763H44.4578C44.6296 26.977 44.7973 26.9242 44.9378 26.8253C45.0782 26.7264 45.1844 26.5862 45.2417 26.4243L47.9301 18.1437C48.1058 17.6057 48.447 17.137 48.9051 16.8047C49.3632 16.4724 49.9146 16.2935 50.4805 16.2935C51.0465 16.2935 51.5979 16.4724 52.056 16.8047C52.514 17.137 52.8553 17.6057 53.031 18.1437Z" fill="#FFBC0E"/>
<path d="M41.3717 50.2499C40.8616 50.2475 40.3592 50.1249 39.9053 49.8921C39.4514 49.6592 39.0588 49.3227 38.7593 48.9097C38.4598 48.4967 38.2619 48.019 38.1815 47.5153C38.1012 47.0115 38.1407 46.4959 38.2968 46.0103L40.9908 37.7297C41.009 37.6742 41.0092 37.6145 40.9914 37.5589C40.9735 37.5034 40.9385 37.4549 40.8914 37.4205L33.8419 32.2921C33.2884 31.8917 32.8761 31.3262 32.6643 30.6767C32.4525 30.0273 32.4521 29.3274 32.6631 28.6777C32.8742 28.028 33.2858 27.462 33.8388 27.061C34.3918 26.6599 35.0578 26.4446 35.7409 26.446H44.4521C44.5102 26.4459 44.5669 26.4278 44.6144 26.3942C44.6618 26.3606 44.6977 26.3131 44.7171 26.2583L47.4055 17.9777C47.6174 17.3293 48.0289 16.7644 48.5812 16.364C49.1334 15.9635 49.7982 15.7478 50.4803 15.7478C51.1625 15.7478 51.8272 15.9635 52.3795 16.364C52.9317 16.7644 53.3433 17.3293 53.5552 17.9777L56.2436 26.2583C56.263 26.3131 56.2989 26.3606 56.3463 26.3942C56.3938 26.4278 56.4505 26.4459 56.5086 26.446H65.2198C65.9029 26.4446 66.5688 26.6599 67.1219 27.061C67.6749 27.462 68.0865 28.028 68.2976 28.6777C68.5086 29.3274 68.5082 30.0273 68.2964 30.6767C68.0846 31.3262 67.6723 31.8917 67.1188 32.2921L60.0693 37.415C60.0219 37.4479 59.9866 37.4954 59.9687 37.5502C59.9507 37.6049 59.9512 37.6641 59.9699 37.7186L62.6639 45.9992C62.8721 46.6474 62.8704 47.3448 62.6592 47.9921C62.448 48.6393 62.0379 49.2034 61.4874 49.6041C60.937 50.0047 60.2741 50.2215 59.5933 50.2234C58.9124 50.2254 58.2483 50.0125 57.6955 49.6151L50.646 44.4921C50.5999 44.4572 50.5437 44.4383 50.4859 44.4383C50.4281 44.4383 50.3718 44.4572 50.3258 44.4921L43.2762 49.6151C42.7253 50.0243 42.058 50.2468 41.3717 50.2499ZM35.7409 27.5556C35.2865 27.5488 34.842 27.6879 34.4724 27.9524C34.1029 28.2169 33.8279 28.5928 33.6877 29.0251C33.5475 29.4573 33.5496 29.9231 33.6936 30.3541C33.8376 30.7851 34.1159 31.1587 34.4878 31.4199L41.5428 36.5428C41.7779 36.7139 41.9527 36.9553 42.0419 37.232C42.1312 37.5088 42.1304 37.8067 42.0397 38.083L39.3457 46.3636C39.2052 46.7911 39.204 47.2521 39.3423 47.6804C39.4806 48.1086 39.7512 48.4819 40.1152 48.7465C40.4792 49.011 40.9178 49.1533 41.3679 49.1526C41.8179 49.1519 42.256 49.0085 42.6193 48.7429L49.6688 43.6199C49.9044 43.4477 50.1886 43.3548 50.4803 43.3548C50.7721 43.3548 51.0563 43.4477 51.2918 43.6199L58.3414 48.7429C58.7046 49.0085 59.1428 49.1519 59.5928 49.1526C60.0428 49.1533 60.4814 49.011 60.8455 48.7465C61.2095 48.4819 61.4801 48.1086 61.6184 47.6804C61.7567 47.2521 61.7555 46.7911 61.615 46.3636L58.921 38.083C58.8303 37.8067 58.8295 37.5088 58.9188 37.232C59.008 36.9553 59.1828 36.7139 59.4179 36.5428L66.4895 31.4033C66.8613 31.1421 67.1397 30.7686 67.2837 30.3376C67.4276 29.9066 67.4297 29.4408 67.2895 29.0085C67.1494 28.5763 66.8743 28.2003 66.5048 27.9358C66.1353 27.6714 65.6907 27.5323 65.2364 27.539H56.5086C56.2166 27.54 55.9318 27.448 55.6955 27.2763C55.4593 27.1046 55.2839 26.8621 55.1948 26.584L52.5008 18.3034C52.3617 17.8772 52.0914 17.5059 51.7285 17.2426C51.3656 16.9793 50.9287 16.8375 50.4803 16.8375C50.032 16.8375 49.5951 16.9793 49.2322 17.2426C48.8693 17.5059 48.599 17.8772 48.4599 18.3034L45.7659 26.584C45.6768 26.8621 45.5014 27.1046 45.2651 27.2763C45.0289 27.448 44.7441 27.54 44.4521 27.539L35.7409 27.5556Z" fill="#093F68"/>
<path d="M44.7778 29.8577H36.5911C36.4447 29.8577 36.3043 29.7996 36.2008 29.6961C36.0972 29.5925 36.0391 29.4521 36.0391 29.3057C36.0391 29.1593 36.0972 29.0189 36.2008 28.9154C36.3043 28.8118 36.4447 28.7537 36.5911 28.7537H44.7778C44.9243 28.7537 45.0647 28.8118 45.1682 28.9154C45.2717 29.0189 45.3299 29.1593 45.3299 29.3057C45.3299 29.4521 45.2717 29.5925 45.1682 29.6961C45.0647 29.7996 44.9243 29.8577 44.7778 29.8577Z" fill="white"/>
</svg>
