<svg width="100" height="100" viewBox="0 0 100 100" fill="none" xmlns="http://www.w3.org/2000/svg">
<path d="M47.6982 14.5515V86.4059C47.6982 89.581 46.4515 92.6261 44.2325 94.8713C42.0134 97.1165 39.0037 98.3778 35.8655 98.3778C32.7273 98.3778 29.7176 97.1165 27.4986 94.8713C25.2795 92.6261 24.0328 89.581 24.0328 86.4059V85.3976C23.4633 85.4745 22.8893 85.5133 22.3146 85.5135C18.7237 85.5105 15.2808 84.0654 12.7422 81.4958C10.2035 78.9262 8.77675 75.4422 8.77524 71.809C8.77069 68.8861 9.70093 66.0402 11.427 63.6964C8.59539 62.878 6.10436 61.1487 4.33091 58.77C2.55746 56.3914 1.59814 53.493 1.59814 50.5135C1.59814 47.5339 2.55746 44.6355 4.33091 42.2569C6.10436 39.8783 8.59539 38.1489 11.427 37.3305C9.70093 34.9867 8.77069 32.1408 8.77524 29.2179C8.77675 25.5847 10.2035 22.1007 12.7422 19.5311C15.2808 16.9615 18.7237 15.5165 22.3146 15.5134C22.8893 15.5136 23.4633 15.5524 24.0328 15.6293V14.5515C24.0328 11.3763 25.2795 8.33124 27.4986 6.08607C29.7176 3.84091 32.7273 2.57959 35.8655 2.57959C39.0037 2.57959 42.0134 3.84091 44.2325 6.08607C46.4515 8.33124 47.6982 11.3763 47.6982 14.5515Z" fill="#68E1FD"/>
<path d="M35.8654 98.9513C32.5772 98.9483 29.4245 97.6257 27.0988 95.2738C24.7732 92.9219 23.4645 89.7327 23.46 86.4058V86.0407C23.082 86.0755 22.704 86.0929 22.3145 86.0929C18.5721 86.0883 14.9845 84.5817 12.3387 81.9038C9.69301 79.2258 8.20541 75.5953 8.20238 71.8089C8.18659 69.0297 8.98366 66.3079 10.4933 63.986C7.72097 63.0136 5.31701 61.1913 3.61563 58.7726C1.91424 56.3539 1 53.4589 1 50.4902C1 47.5214 1.91424 44.6264 3.61563 42.2077C5.31701 39.789 7.72097 37.9667 10.4933 36.9943C8.98366 34.6724 8.18659 31.9506 8.20238 29.1714C8.20541 25.385 9.69301 21.7545 12.3387 19.0766C14.9845 16.3986 18.5721 14.892 22.3145 14.8874C22.6982 14.8874 23.0763 14.8874 23.46 14.9396V14.5513C23.46 11.2225 24.767 8.03004 27.0934 5.67621C29.4199 3.32237 32.5753 2 35.8654 2C39.1555 2 42.3109 3.32237 44.6373 5.67621C46.9638 8.03004 48.2708 11.2225 48.2708 14.5513V86.4058C48.2647 89.7322 46.9556 92.9205 44.6303 95.2721C42.305 97.6237 39.1531 98.9467 35.8654 98.9513ZM24.0327 84.8064C24.1846 84.8064 24.3303 84.8675 24.4377 84.9762C24.5451 85.0848 24.6055 85.2322 24.6055 85.3859V86.4058C24.6055 87.9019 24.8967 89.3833 25.4626 90.7655C26.0284 92.1477 26.8578 93.4035 27.9034 94.4614C28.949 95.5193 30.1903 96.3585 31.5564 96.931C32.9225 97.5035 34.3867 97.7982 35.8654 97.7982C37.3441 97.7982 38.8083 97.5035 40.1744 96.931C41.5405 96.3585 42.7818 95.5193 43.8274 94.4614C44.8729 93.4035 45.7024 92.1477 46.2682 90.7655C46.8341 89.3833 47.1253 87.9019 47.1253 86.4058V14.5513C47.1253 13.0553 46.8341 11.5739 46.2682 10.1917C45.7024 8.80947 44.8729 7.55359 43.8274 6.4957C42.7818 5.43782 41.5405 4.59866 40.1744 4.02614C38.8083 3.45362 37.3441 3.15894 35.8654 3.15894C34.3867 3.15894 32.9225 3.45362 31.5564 4.02614C30.1903 4.59866 28.949 5.43782 27.9034 6.4957C26.8578 7.55359 26.0284 8.80947 25.4626 10.1917C24.8967 11.5739 24.6055 13.0553 24.6055 14.5513V15.5596C24.6063 15.6431 24.5893 15.7257 24.5556 15.8019C24.5219 15.878 24.4724 15.9459 24.4104 16.001C24.3484 16.056 24.2754 16.0968 24.1964 16.1207C24.1174 16.1445 24.0342 16.1508 23.9525 16.1391C23.4113 16.0672 22.8661 16.0305 22.3203 16.029C18.8817 16.0336 15.5853 17.4181 13.1544 19.8787C10.7235 22.3393 9.3566 25.675 9.35357 29.154C9.34074 31.96 10.2314 34.6938 11.8908 36.9421C11.9463 37.0174 11.9828 37.1053 11.9973 37.1981C12.0118 37.2909 12.0037 37.3859 11.9739 37.4748C11.944 37.5638 11.8932 37.6441 11.8258 37.7087C11.7585 37.7734 11.6766 37.8206 11.5872 37.8461C8.87459 38.6294 6.48805 40.2855 4.78895 42.5639C3.08985 44.8422 2.17072 47.6186 2.17072 50.4728C2.17072 53.3269 3.08985 56.1033 4.78895 58.3817C6.48805 60.66 8.87459 62.3162 11.5872 63.0994C11.6766 63.125 11.7585 63.1721 11.8258 63.2368C11.8932 63.3015 11.944 63.3817 11.9739 63.4707C12.0037 63.5597 12.0118 63.6546 11.9973 63.7474C11.9828 63.8402 11.9463 63.9281 11.8908 64.0034C10.2314 66.2517 9.34074 68.9856 9.35357 71.7915C9.3566 75.2705 10.7235 78.6063 13.1544 81.0669C15.5853 83.5275 18.8817 84.9119 22.3203 84.9165C22.8661 84.9151 23.4113 84.8783 23.9525 84.8064H24.0327Z" fill="#093F68"/>
<path d="M53.1389 14.5515V86.4059C53.1389 89.581 54.3856 92.6261 56.6046 94.8713C58.8237 97.1165 61.8334 98.3778 64.9716 98.3778C68.1098 98.3778 71.1195 97.1165 73.3385 94.8713C75.5576 92.6261 76.8043 89.581 76.8043 86.4059V85.3976C77.3738 85.4745 77.9478 85.5133 78.5225 85.5135C82.1134 85.5105 85.5563 84.0654 88.0949 81.4958C90.6336 78.9262 92.0603 75.4422 92.0619 71.809C92.0664 68.8861 91.1362 66.0402 89.4101 63.6964C92.2417 62.878 94.7327 61.1487 96.5062 58.77C98.2796 56.3914 99.239 53.493 99.239 50.5135C99.239 47.5339 98.2796 44.6355 96.5062 42.2569C94.7327 39.8783 92.2417 38.1489 89.4101 37.3305C91.1362 34.9867 92.0664 32.1408 92.0619 29.2179C92.0603 25.5847 90.6336 22.1007 88.0949 19.5311C85.5563 16.9615 82.1134 15.5165 78.5225 15.5134C77.9478 15.5136 77.3738 15.5524 76.8043 15.6293V14.5515C76.8043 11.3763 75.5576 8.33124 73.3385 6.08607C71.1195 3.84091 68.1098 2.57959 64.9716 2.57959C61.8334 2.57959 58.8237 3.84091 56.6046 6.08607C54.3856 8.33124 53.1389 11.3763 53.1389 14.5515Z" fill="#68E1FD"/>
<path d="M64.9718 98.9513C61.6841 98.9467 58.5322 97.6237 56.2069 95.2721C53.8816 92.9205 52.5725 89.7322 52.5664 86.4058V14.5513C52.5664 12.9031 52.8873 11.271 53.5107 9.74816C54.1341 8.22536 55.0479 6.84171 56.1999 5.67621C57.3518 4.51071 58.7194 3.58618 60.2245 2.95542C61.7296 2.32465 63.3427 2 64.9718 2C66.6009 2 68.2141 2.32465 69.7192 2.95542C71.2242 3.58618 72.5918 4.51071 73.7438 5.67621C74.8957 6.84171 75.8095 8.22536 76.4329 9.74816C77.0563 11.271 77.3772 12.9031 77.3772 14.5513V14.9164C77.7552 14.8816 78.1332 14.8643 78.5227 14.8643C82.265 14.8689 85.8528 16.3754 88.4985 19.0534C91.1442 21.7313 92.6318 25.3618 92.6348 29.1482C92.6506 31.9274 91.8535 34.6492 90.3439 36.9711C93.1162 37.9436 95.5202 39.7658 97.2216 42.1845C98.923 44.6033 99.8372 47.4982 99.8372 50.467C99.8372 53.4357 98.923 56.3307 97.2216 58.7494C95.5202 61.1681 93.1162 62.9904 90.3439 63.9629C91.8535 66.2847 92.6506 69.0065 92.6348 71.7857C92.6318 75.5721 91.1442 79.2026 88.4985 81.8806C85.8528 84.5585 82.265 86.0651 78.5227 86.0697C78.1389 86.0697 77.7609 86.0697 77.3772 86.0175V86.4058C77.3727 89.7327 76.064 92.9219 73.7384 95.2738C71.4127 97.6257 68.26 98.9483 64.9718 98.9513ZM64.9718 3.16474C61.9869 3.16627 59.1247 4.36624 57.0135 6.50114C54.9024 8.63605 53.7149 11.5314 53.7119 14.5513V86.4058C53.7119 89.4272 54.8982 92.3249 57.0098 94.4614C59.1215 96.5979 61.9855 97.7982 64.9718 97.7982C67.9581 97.7982 70.8221 96.5979 72.9338 94.4614C75.0454 92.3249 76.2317 89.4272 76.2317 86.4058V85.3975C76.2309 85.3141 76.2479 85.2314 76.2816 85.1553C76.3153 85.0791 76.3648 85.0112 76.4268 84.9562C76.4888 84.9011 76.5618 84.8603 76.6408 84.8365C76.7198 84.8126 76.803 84.8063 76.8847 84.818C77.4259 84.8899 77.9711 84.9267 78.5169 84.9281C81.9555 84.9235 85.2519 83.5391 87.6828 81.0785C90.1137 78.6179 91.4806 75.2821 91.4836 71.8031C91.4965 68.9972 90.6058 66.2633 88.9464 64.015C88.8909 63.9397 88.8544 63.8518 88.8399 63.759C88.8254 63.6662 88.8334 63.5712 88.8633 63.4823C88.8932 63.3933 88.944 63.3131 89.0114 63.2484C89.0787 63.1837 89.1606 63.1366 89.25 63.111C91.9626 62.3278 94.3491 60.6716 96.0482 58.3932C97.7473 56.1149 98.6665 53.3385 98.6665 50.4844C98.6665 47.6302 97.7473 44.8538 96.0482 42.5755C94.3491 40.2971 91.9626 38.6409 89.25 37.8577C89.1606 37.8321 89.0787 37.785 89.0114 37.7203C88.944 37.6557 88.8932 37.5754 88.8633 37.4864C88.8334 37.3975 88.8254 37.3025 88.8399 37.2097C88.8544 37.1169 88.8909 37.029 88.9464 36.9537C90.6058 34.7054 91.4965 31.9716 91.4836 29.1656C91.4806 25.6866 90.1137 22.3508 87.6828 19.8903C85.2519 17.4297 81.9555 16.0452 78.5169 16.0406C77.9711 16.0421 77.4259 16.0788 76.8847 16.1507C76.803 16.1624 76.7198 16.1561 76.6408 16.1322C76.5618 16.1084 76.4888 16.0676 76.4268 16.0126C76.3648 15.9575 76.3153 15.8896 76.2816 15.8134C76.2479 15.7373 76.2309 15.6547 76.2317 15.5712V14.5513C76.2257 11.5323 75.0372 8.63877 72.9267 6.50452C70.8162 4.37028 67.9557 3.16933 64.9718 3.16474Z" fill="#093F68"/>
<path d="M78.3105 77.7195C79.4335 77.7195 80.3438 76.7985 80.3438 75.6623C80.3438 74.5262 79.4335 73.6052 78.3105 73.6052C77.1876 73.6052 76.2773 74.5262 76.2773 75.6623C76.2773 76.7985 77.1876 77.7195 78.3105 77.7195Z" fill="#093F68"/>
<path d="M78.3108 78.293C77.7954 78.293 77.2915 78.1383 76.863 77.8486C76.4344 77.5589 76.1004 77.1471 75.9032 76.6653C75.706 76.1836 75.6544 75.6534 75.7549 75.142C75.8555 74.6305 76.1036 74.1608 76.4681 73.792C76.8325 73.4233 77.2969 73.1722 77.8024 73.0704C78.3079 72.9687 78.8318 73.0209 79.308 73.2205C79.7842 73.42 80.1912 73.758 80.4775 74.1916C80.7639 74.6251 80.9167 75.1349 80.9167 75.6564C80.9167 76.0026 80.8493 76.3455 80.7183 76.6653C80.5874 76.9852 80.3954 77.2759 80.1534 77.5207C79.9115 77.7656 79.6242 77.9598 79.308 78.0923C78.9919 78.2248 78.653 78.293 78.3108 78.293ZM78.3108 74.1845C78.0217 74.1845 77.7391 74.2713 77.4988 74.4339C77.2585 74.5966 77.0713 74.8277 76.9609 75.098C76.8506 75.3684 76.822 75.6658 76.8788 75.9526C76.9356 76.2394 77.0753 76.5027 77.2801 76.7091C77.4849 76.9155 77.7457 77.0558 78.0294 77.1121C78.3131 77.1685 78.6069 77.1384 78.8736 77.0257C79.1404 76.9129 79.3681 76.7226 79.5279 76.4789C79.6877 76.2351 79.7724 75.9489 79.7712 75.6564C79.7705 75.4631 79.7321 75.2718 79.6583 75.0936C79.5845 74.9153 79.4767 74.7534 79.3411 74.6173C79.2055 74.4812 79.0447 74.3734 78.8679 74.3001C78.6911 74.2269 78.5018 74.1895 78.3108 74.1903V74.1845Z" fill="#093F68"/>
<path d="M59.6167 76.9431C60.7396 76.9431 61.6499 76.0221 61.6499 74.886C61.6499 73.7499 60.7396 72.8289 59.6167 72.8289C58.4938 72.8289 57.5835 73.7499 57.5835 74.886C57.5835 76.0221 58.4938 76.9431 59.6167 76.9431Z" fill="#093F68"/>
<path d="M59.6168 77.5168C59.1009 77.518 58.5963 77.3642 58.1669 77.0749C57.7374 76.7856 57.4025 76.3739 57.2046 75.8919C57.0066 75.4099 56.9546 74.8793 57.0549 74.3673C57.1553 73.8553 57.4036 73.385 57.7684 73.0159C58.1332 72.6468 58.598 72.3956 59.1041 72.294C59.6101 72.1925 60.1346 72.2452 60.611 72.4455C61.0874 72.6457 61.4943 72.9846 61.7802 73.419C62.0661 73.8535 62.2181 74.3641 62.217 74.886C62.2155 75.5833 61.9411 76.2516 61.4537 76.7446C60.9664 77.2376 60.3059 77.5153 59.6168 77.5168ZM59.6168 73.4084C59.3277 73.4072 59.0448 73.4929 58.8038 73.6546C58.5629 73.8163 58.3748 74.0466 58.2634 74.3165C58.152 74.5864 58.1223 74.8837 58.178 75.1707C58.2337 75.4578 58.3723 75.7216 58.5763 75.9288C58.7803 76.1361 59.0406 76.2774 59.324 76.3348C59.6075 76.3923 59.9014 76.3634 60.1686 76.2518C60.4358 76.1401 60.6643 75.9507 60.825 75.7076C60.9857 75.4644 61.0715 75.1785 61.0715 74.886C61.0715 74.4951 60.9184 74.1202 60.6458 73.8432C60.3731 73.5663 60.0031 73.4099 59.6168 73.4084Z" fill="#093F68"/>
<path d="M29.7026 81.7121C30.8255 81.7121 31.7358 80.7911 31.7358 79.655C31.7358 78.5189 30.8255 77.5979 29.7026 77.5979C28.5797 77.5979 27.6694 78.5189 27.6694 79.655C27.6694 80.7911 28.5797 81.7121 29.7026 81.7121Z" fill="#093F68"/>
<path d="M29.7029 82.2917C29.1875 82.2917 28.6836 82.1371 28.2551 81.8474C27.8265 81.5577 27.4925 81.1459 27.2953 80.6641C27.098 80.1824 27.0464 79.6522 27.147 79.1408C27.2475 78.6293 27.4957 78.1595 27.8602 77.7908C28.2246 77.4221 28.689 77.171 29.1945 77.0692C29.7 76.9675 30.2239 77.0197 30.7001 77.2193C31.1763 77.4188 31.5833 77.7568 31.8696 78.1903C32.156 78.6239 32.3088 79.1337 32.3088 79.6552C32.3088 80.0014 32.2414 80.3443 32.1104 80.6641C31.9795 80.984 31.7875 81.2747 31.5455 81.5195C31.3035 81.7643 31.0163 81.9585 30.7001 82.091C30.3839 82.2235 30.0451 82.2917 29.7029 82.2917ZM29.7029 78.1833C29.4138 78.1833 29.1312 78.2701 28.8909 78.4327C28.6506 78.5954 28.4634 78.8265 28.353 79.0968C28.2427 79.3672 28.2141 79.6646 28.2709 79.9514C28.3277 80.2382 28.4674 80.5014 28.6722 80.7079C28.877 80.9143 29.1378 81.0545 29.4215 81.1109C29.7051 81.1673 29.999 81.1372 30.2657 81.0245C30.5325 80.9117 30.7602 80.7214 30.92 80.4777C31.0798 80.2339 31.1645 79.9477 31.1633 79.6552C31.1618 79.2643 31.0073 78.8899 30.7335 78.614C30.4598 78.3382 30.0892 78.1833 29.7029 78.1833Z" fill="#093F68"/>
<path d="M19.302 64.9307C20.4249 64.9307 21.3352 64.0096 21.3352 62.8735C21.3352 61.7374 20.4249 60.8164 19.302 60.8164C18.1791 60.8164 17.2688 61.7374 17.2688 62.8735C17.2688 64.0096 18.1791 64.9307 19.302 64.9307Z" fill="#093F68"/>
<path d="M19.3022 65.5044C18.7866 65.5044 18.2825 65.3496 17.8538 65.0596C17.4252 64.7697 17.0912 64.3575 16.8941 63.8754C16.697 63.3933 16.6458 62.8629 16.7468 62.3513C16.8478 61.8397 17.0966 61.3699 17.4616 61.0014C17.8266 60.6329 18.2915 60.3822 18.7973 60.2812C19.3032 60.1801 19.8274 60.2331 20.3034 60.4336C20.7795 60.634 21.1861 60.9729 21.4718 61.4072C21.7574 61.8415 21.9093 62.3519 21.9082 62.8736C21.9066 63.5719 21.6314 64.241 21.1429 64.7342C20.6543 65.2274 19.9924 65.5044 19.3022 65.5044ZM19.3022 61.3959C19.0134 61.3959 18.731 61.4826 18.4908 61.645C18.2507 61.8073 18.0635 62.0381 17.9529 62.3081C17.8424 62.5781 17.8135 62.8752 17.8698 63.1619C17.9262 63.4485 18.0653 63.7118 18.2695 63.9184C18.4738 64.1251 18.734 64.2658 19.0173 64.3229C19.3006 64.3799 19.5943 64.3506 19.8611 64.2388C20.128 64.1269 20.3561 63.9375 20.5166 63.6945C20.677 63.4515 20.7627 63.1658 20.7627 62.8736C20.7627 62.6795 20.7249 62.4874 20.6515 62.3081C20.5781 62.1288 20.4705 61.9659 20.3349 61.8287C20.1993 61.6915 20.0383 61.5827 19.8611 61.5084C19.6839 61.4342 19.494 61.3959 19.3022 61.3959Z" fill="#093F68"/>
<path d="M9.48535 51.3708C10.6083 51.3708 11.5186 50.4498 11.5186 49.3137C11.5186 48.1776 10.6083 47.2566 9.48535 47.2566C8.36244 47.2566 7.45215 48.1776 7.45215 49.3137C7.45215 50.4498 8.36244 51.3708 9.48535 51.3708Z" fill="#093F68"/>
<path d="M9.48533 51.9448C8.96968 51.9448 8.46562 51.79 8.03695 51.5001C7.60829 51.2101 7.27428 50.798 7.07721 50.3159C6.88015 49.8338 6.82887 49.3033 6.92989 48.7917C7.0309 48.2801 7.27967 47.8103 7.64469 47.4418C8.00971 47.0733 8.47457 46.8227 8.98045 46.7216C9.48633 46.6205 10.0105 46.6736 10.4866 46.874C10.9626 47.0744 11.3692 47.4133 11.6549 47.8476C11.9405 48.282 12.0924 48.7923 12.0913 49.314C12.0913 49.66 12.0238 50.0026 11.8928 50.3221C11.7618 50.6417 11.5697 50.932 11.3277 51.1763C11.0856 51.4207 10.7983 51.6144 10.4821 51.7462C10.166 51.8781 9.82727 51.9456 9.48533 51.9448ZM9.48533 47.8364C9.19647 47.8364 8.91411 47.923 8.67393 48.0854C8.43376 48.2478 8.24657 48.4785 8.13603 48.7486C8.02549 49.0186 7.99657 49.3157 8.05292 49.6023C8.10927 49.8889 8.24837 50.1522 8.45262 50.3589C8.65687 50.5655 8.9171 50.7063 9.2004 50.7633C9.4837 50.8203 9.77736 50.791 10.0442 50.6792C10.3111 50.5674 10.5392 50.378 10.6997 50.135C10.8601 49.892 10.9458 49.6063 10.9458 49.314C10.9458 48.9221 10.7919 48.5463 10.518 48.2692C10.2441 47.9921 9.87267 47.8364 9.48533 47.8364Z" fill="#093F68"/>
<path d="M19.8345 33.1001C20.9574 33.1001 21.8677 32.1791 21.8677 31.043C21.8677 29.9068 20.9574 28.9858 19.8345 28.9858C18.7116 28.9858 17.8013 29.9068 17.8013 31.043C17.8013 32.1791 18.7116 33.1001 19.8345 33.1001Z" fill="#093F68"/>
<path d="M19.8346 33.6741C19.3189 33.6752 18.8145 33.5215 18.3852 33.2325C17.9559 32.9435 17.621 32.5321 17.4229 32.0505C17.2248 31.5688 17.1724 31.0385 17.2723 30.5267C17.3722 30.0148 17.6199 29.5445 17.9841 29.1752C18.3484 28.8059 18.8127 28.5542 19.3183 28.452C19.824 28.3498 20.3483 28.4016 20.8248 28.601C21.3013 28.8004 21.7086 29.1383 21.9952 29.5721C22.2818 30.0058 22.4348 30.5157 22.4348 31.0375C22.4348 31.7357 22.161 32.4055 21.6735 32.8998C21.1861 33.3941 20.5247 33.6725 19.8346 33.6741ZM19.8346 29.5656C19.5452 29.5645 19.2621 29.6503 19.021 29.8122C18.78 29.9741 18.5919 30.2049 18.4806 30.4751C18.3694 30.7453 18.34 31.0429 18.3962 31.3301C18.4523 31.6173 18.5915 31.8811 18.7961 32.0881C19.0007 32.2951 19.2615 32.436 19.5453 32.4928C19.8292 32.5496 20.1233 32.5199 20.3904 32.4073C20.6575 32.2948 20.8855 32.1045 21.0456 31.8606C21.2056 31.6167 21.2904 31.3302 21.2893 31.0375C21.2863 30.6486 21.1319 30.2766 20.8595 30.0021C20.5872 29.7277 20.2189 29.5729 19.8346 29.5714V29.5656Z" fill="#093F68"/>
<path d="M30.4072 20.0447C31.5301 20.0447 32.4404 19.1237 32.4404 17.9875C32.4404 16.8514 31.5301 15.9304 30.4072 15.9304C29.2843 15.9304 28.374 16.8514 28.374 17.9875C28.374 19.1237 29.2843 20.0447 30.4072 20.0447Z" fill="#093F68"/>
<path d="M30.4073 20.6184C29.8914 20.6195 29.3868 20.4657 28.9574 20.1765C28.528 19.8872 28.1931 19.4755 27.9951 18.9935C27.7972 18.5115 27.7451 17.9808 27.8454 17.4689C27.9458 16.9569 28.1941 16.4865 28.5589 16.1175C28.9237 15.7484 29.3886 15.4971 29.8946 15.3956C30.4006 15.294 30.9251 15.3467 31.4015 15.547C31.8779 15.7473 32.2848 16.0861 32.5707 16.5206C32.8566 16.9551 33.0087 17.4656 33.0075 17.9876C33.006 18.6849 32.7316 19.3531 32.2443 19.8462C31.757 20.3392 31.0965 20.6169 30.4073 20.6184ZM30.4073 16.5099C30.1182 16.5088 29.8353 16.5945 29.5944 16.7562C29.3534 16.9178 29.1654 17.1482 29.0539 17.4181C28.9425 17.688 28.9128 17.9853 28.9685 18.2723C29.0242 18.5593 29.1628 18.8232 29.3669 19.0304C29.5709 19.2376 29.8311 19.3789 30.1146 19.4364C30.398 19.4939 30.692 19.465 30.9592 19.3533C31.2264 19.2416 31.4548 19.0523 31.6155 18.8091C31.7763 18.566 31.8621 18.2801 31.8621 17.9876C31.8621 17.5967 31.709 17.2217 31.4363 16.9448C31.1637 16.6678 30.7937 16.5115 30.4073 16.5099Z" fill="#093F68"/>
<path d="M78.448 75.4653C78.3302 75.4653 78.2154 75.4285 78.1191 75.3601C78.0228 75.2917 77.9496 75.1949 77.9096 75.0829L73.0299 61.3958H62.3083C62.1564 61.3958 62.0108 61.3347 61.9033 61.226C61.7959 61.1174 61.7356 60.97 61.7356 60.8163C61.7356 60.6626 61.7959 60.5152 61.9033 60.4065C62.0108 60.2979 62.1564 60.2368 62.3083 60.2368H73.4308C73.5485 60.2369 73.6633 60.2736 73.7597 60.342C73.856 60.4105 73.9292 60.5073 73.9692 60.6193L78.9863 74.6888C79.0379 74.8333 79.0307 74.9926 78.9662 75.1317C78.9018 75.2707 78.7854 75.3782 78.6427 75.4306C78.5803 75.4535 78.5144 75.4652 78.448 75.4653Z" fill="#093F68"/>
<path d="M62.1655 36.6523H38.9985C37.8502 36.6523 36.9194 37.5941 36.9194 38.7558V62.1954C36.9194 63.3572 37.8502 64.2989 38.9985 64.2989H62.1655C63.3137 64.2989 64.2445 63.3572 64.2445 62.1954V38.7558C64.2445 37.5941 63.3137 36.6523 62.1655 36.6523Z" fill="white"/>
<path d="M62.1655 64.8783H38.9984C38.6505 64.8791 38.3058 64.8104 37.9841 64.6762C37.6624 64.542 37.37 64.3449 37.1237 64.0963C36.8774 63.8476 36.682 63.5522 36.5486 63.227C36.4153 62.9018 36.3467 62.5532 36.3467 62.2012V38.7558C36.3467 38.4037 36.4153 38.0551 36.5486 37.7299C36.682 37.4047 36.8774 37.1094 37.1237 36.8607C37.37 36.612 37.6624 36.4149 37.9841 36.2807C38.3058 36.1465 38.6505 36.0779 38.9984 36.0786H62.1655C62.8678 36.0786 63.5414 36.3605 64.0386 36.8624C64.5357 37.3643 64.8157 38.0452 64.8173 38.7558V62.2012C64.8157 62.9117 64.5357 63.5927 64.0386 64.0946C63.5414 64.5965 62.8678 64.8783 62.1655 64.8783ZM38.9984 37.2376C38.8009 37.2368 38.6052 37.2755 38.4224 37.3515C38.2397 37.4274 38.0736 37.5391 37.9337 37.6802C37.7937 37.8212 37.6827 37.9889 37.6069 38.1734C37.5312 38.358 37.4921 38.5559 37.4921 38.7558V62.2012C37.4921 62.401 37.5312 62.5989 37.6069 62.7835C37.6827 62.9681 37.7937 63.1357 37.9337 63.2768C38.0736 63.4178 38.2397 63.5295 38.4224 63.6055C38.6052 63.6815 38.8009 63.7202 38.9984 63.7194H62.1655C62.363 63.7202 62.5588 63.6815 62.7415 63.6055C62.9242 63.5295 63.0903 63.4178 63.2303 63.2768C63.3702 63.1357 63.4812 62.9681 63.557 62.7835C63.6328 62.5989 63.6718 62.401 63.6718 62.2012V38.7558C63.6718 38.5559 63.6328 38.358 63.557 38.1734C63.4812 37.9889 63.3702 37.8212 63.2303 37.6802C63.0903 37.5391 62.9242 37.4274 62.7415 37.3515C62.5588 37.2755 62.363 37.2368 62.1655 37.2376H38.9984Z" fill="#093F68"/>
<path d="M58.2421 41.3401H42.9214C42.1623 41.3401 41.5469 41.9627 41.5469 42.7308V58.2317C41.5469 58.9998 42.1623 59.6224 42.9214 59.6224H58.2421C59.0012 59.6224 59.6166 58.9998 59.6166 58.2317V42.7308C59.6166 41.9627 59.0012 41.3401 58.2421 41.3401Z" fill="#093F68"/>
<path d="M58.2423 60.1962H42.9217C42.6659 60.1962 42.4127 60.1452 42.1765 60.0462C41.9402 59.9472 41.7255 59.8021 41.5447 59.6192C41.3639 59.4362 41.2205 59.219 41.1226 58.98C41.0247 58.7409 40.9744 58.4847 40.9744 58.226V42.7309C40.9744 42.4722 41.0247 42.216 41.1226 41.977C41.2205 41.7379 41.3639 41.5207 41.5447 41.3378C41.7255 41.1548 41.9402 41.0097 42.1765 40.9107C42.4127 40.8117 42.6659 40.7607 42.9217 40.7607H58.2423C58.7587 40.7607 59.254 40.9683 59.6192 41.3378C59.9844 41.7073 60.1896 42.2084 60.1896 42.7309V58.226C60.1896 58.7485 59.9844 59.2497 59.6192 59.6192C59.254 59.9886 58.7587 60.1962 58.2423 60.1962ZM42.9217 41.9197C42.709 41.9197 42.5051 42.0052 42.3547 42.1573C42.2043 42.3094 42.1198 42.5158 42.1198 42.7309V58.226C42.1198 58.3325 42.1406 58.438 42.1809 58.5365C42.2212 58.6349 42.2802 58.7243 42.3547 58.7997C42.4291 58.875 42.5175 58.9347 42.6148 58.9755C42.7121 59.0163 42.8164 59.0373 42.9217 59.0373H58.2423C58.3476 59.0373 58.4518 59.0163 58.5491 58.9755C58.6464 58.9347 58.7348 58.875 58.8093 58.7997C58.8837 58.7243 58.9428 58.6349 58.9831 58.5365C59.0234 58.438 59.0441 58.3325 59.0441 58.226V42.7309C59.0441 42.5158 58.9596 42.3094 58.8093 42.1573C58.6589 42.0052 58.4549 41.9197 58.2423 41.9197H42.9217Z" fill="#093F68"/>
<path d="M74.7941 42.4991H64.6338C64.4819 42.4991 64.3362 42.4381 64.2288 42.3294C64.1214 42.2207 64.061 42.0733 64.061 41.9197C64.061 41.766 64.1214 41.6186 64.2288 41.5099C64.3362 41.4012 64.4819 41.3402 64.6338 41.3402H74.4733L79.0208 33.8071C79.1002 33.6769 79.2272 33.5837 79.3742 33.5479C79.5212 33.512 79.6762 33.5365 79.8055 33.6158C79.87 33.6556 79.9261 33.7079 79.9705 33.7697C80.0149 33.8315 80.0469 33.9016 80.0644 33.9759C80.082 34.0502 80.0849 34.1273 80.0729 34.2028C80.0608 34.2782 80.0342 34.3505 79.9945 34.4155L75.2809 42.2442C75.2273 42.3244 75.1546 42.3899 75.0696 42.4344C74.9845 42.4789 74.8898 42.5012 74.7941 42.4991Z" fill="#093F68"/>
<path d="M80.533 34.8906C81.6559 34.8906 82.5662 33.9696 82.5662 32.8335C82.5662 31.6974 81.6559 30.7764 80.533 30.7764C79.4101 30.7764 78.4998 31.6974 78.4998 32.8335C78.4998 33.9696 79.4101 34.8906 80.533 34.8906Z" fill="#093F68"/>
<path d="M80.5329 35.4702C80.0175 35.4702 79.5137 35.3156 79.0852 35.0259C78.6566 34.7361 78.3226 34.3244 78.1254 33.8426C77.9281 33.3608 77.8765 32.8307 77.9771 32.3192C78.0776 31.8078 78.3258 31.338 78.6903 30.9693C79.0547 30.6005 79.519 30.3494 80.0245 30.2477C80.53 30.1459 81.054 30.1982 81.5302 30.3977C82.0064 30.5973 82.4134 30.9352 82.6997 31.3688C82.986 31.8024 83.1389 32.3121 83.1389 32.8336C83.1389 33.5329 82.8643 34.2035 82.3756 34.698C81.8869 35.1924 81.2241 35.4702 80.5329 35.4702ZM80.5329 31.3618C80.2438 31.3618 79.9612 31.4486 79.721 31.6112C79.4807 31.7738 79.2935 32.0049 79.1831 32.2753C79.0727 32.5456 79.0441 32.843 79.101 33.1298C79.1578 33.4166 79.2974 33.6799 79.5023 33.8863C79.7071 34.0927 79.9679 34.233 80.2515 34.2894C80.5352 34.3457 80.8291 34.3156 81.0958 34.2029C81.3626 34.0902 81.5903 33.8999 81.7501 33.6561C81.9099 33.4124 81.9945 33.1261 81.9934 32.8336C81.9942 32.6394 81.9569 32.4469 81.8838 32.2672C81.8106 32.0876 81.7031 31.9244 81.5673 31.787C81.4316 31.6497 81.2703 31.5409 81.0927 31.4669C80.9152 31.3929 80.7249 31.3552 80.5329 31.356V31.3618Z" fill="#093F68"/>
<path d="M70.3784 22.0959C71.5013 22.0959 72.4116 21.1749 72.4116 20.0388C72.4116 18.9027 71.5013 17.9817 70.3784 17.9817C69.2555 17.9817 68.3452 18.9027 68.3452 20.0388C68.3452 21.1749 69.2555 22.0959 70.3784 22.0959Z" fill="#093F68"/>
<path d="M70.3784 22.6638C69.863 22.6638 69.3592 22.5092 68.9306 22.2195C68.5021 21.9298 68.1681 21.518 67.9708 21.0362C67.7736 20.5544 67.722 20.0243 67.8225 19.5128C67.9231 19.0014 68.1713 18.5316 68.5357 18.1629C68.9002 17.7941 69.3645 17.543 69.87 17.4413C70.3755 17.3396 70.8995 17.3918 71.3757 17.5913C71.8518 17.7909 72.2588 18.1288 72.5452 18.5624C72.8315 18.996 72.9843 19.5058 72.9843 20.0272C72.9843 20.7265 72.7098 21.3971 72.2211 21.8916C71.7324 22.386 71.0695 22.6638 70.3784 22.6638ZM70.3784 18.5554C70.0893 18.5554 69.8067 18.6422 69.5664 18.8048C69.3261 18.9674 69.1389 19.1985 69.0286 19.4689C68.9182 19.7392 68.8896 20.0366 68.9464 20.3234C69.0032 20.6102 69.1429 20.8735 69.3477 21.0799C69.5526 21.2863 69.8133 21.4266 70.097 21.483C70.3807 21.5393 70.6745 21.5092 70.9413 21.3965C71.208 21.2838 71.4357 21.0935 71.5955 20.8497C71.7553 20.606 71.84 20.3197 71.8389 20.0272C71.8343 19.6383 71.6785 19.2669 71.4051 18.9936C71.1317 18.7202 70.7628 18.5669 70.3784 18.567V18.5554Z" fill="#093F68"/>
<path d="M82.5376 57.7334C83.6605 57.7334 84.5708 56.8124 84.5708 55.6763C84.5708 54.5401 83.6605 53.6191 82.5376 53.6191C81.4147 53.6191 80.5044 54.5401 80.5044 55.6763C80.5044 56.8124 81.4147 57.7334 82.5376 57.7334Z" fill="#093F68"/>
<path d="M82.5374 58.313C82.0215 58.3141 81.5169 58.1603 81.0875 57.871C80.6581 57.5818 80.3232 57.1701 80.1252 56.688C79.9273 56.206 79.8752 55.6754 79.9756 55.1634C80.0759 54.6514 80.3243 54.1811 80.689 53.812C81.0538 53.4429 81.5187 53.1917 82.0247 53.0902C82.5308 52.9886 83.0552 53.0413 83.5316 53.2416C84.008 53.4419 84.415 53.7807 84.7009 54.2152C84.9868 54.6497 85.1388 55.1602 85.1376 55.6822C85.1361 56.3794 84.8617 57.0477 84.3744 57.5407C83.8871 58.0338 83.2266 58.3114 82.5374 58.313ZM82.5374 54.2045C82.2483 54.2034 81.9654 54.2891 81.7245 54.4507C81.4836 54.6124 81.2955 54.8428 81.1841 55.1127C81.0727 55.3826 81.0429 55.6799 81.0986 55.9669C81.1543 56.2539 81.293 56.5177 81.497 56.725C81.701 56.9322 81.9612 57.0735 82.2447 57.131C82.5281 57.1885 82.8221 57.1596 83.0893 57.0479C83.3565 56.9362 83.5849 56.7468 83.7456 56.5037C83.9064 56.2606 83.9922 55.9747 83.9922 55.6822C83.9922 55.2913 83.8391 54.9163 83.5664 54.6394C83.2938 54.3624 82.9238 54.2061 82.5374 54.2045Z" fill="#093F68"/>
<path d="M86.5982 49.6496C87.7211 49.6496 88.6314 48.7286 88.6314 47.5925C88.6314 46.4564 87.7211 45.5354 86.5982 45.5354C85.4752 45.5354 84.5649 46.4564 84.5649 47.5925C84.5649 48.7286 85.4752 49.6496 86.5982 49.6496Z" fill="#093F68"/>
<path d="M86.5982 50.2292C86.0826 50.2304 85.5782 50.0767 85.1489 49.7877C84.7196 49.4987 84.3847 49.0873 84.1866 48.6056C83.9885 48.124 83.936 47.5937 84.0359 47.0818C84.1358 46.57 84.3836 46.0997 84.7478 45.7303C85.112 45.361 85.5763 45.1093 86.082 45.0071C86.5877 44.9049 87.1119 44.9568 87.5884 45.1562C88.0649 45.3556 88.4723 45.6935 88.7589 46.1272C89.0455 46.5609 89.1984 47.0709 89.1984 47.5926C89.1984 48.2909 88.9247 48.9607 88.4372 49.455C87.9497 49.9492 87.2884 50.2277 86.5982 50.2292ZM86.5982 46.1208C86.3089 46.1196 86.0257 46.2055 85.7847 46.3674C85.5436 46.5293 85.3556 46.76 85.2443 47.0303C85.1331 47.3005 85.1037 47.5981 85.1598 47.8853C85.216 48.1725 85.3552 48.4363 85.5598 48.6433C85.7644 48.8503 86.0252 48.9911 86.309 49.048C86.5928 49.1048 86.887 49.075 87.1541 48.9625C87.4212 48.8499 87.6492 48.6596 87.8092 48.4158C87.9693 48.1719 88.0541 47.8854 88.053 47.5926C88.0515 47.2028 87.8977 46.8293 87.6252 46.5536C87.3527 46.2779 86.9836 46.1223 86.5982 46.1208Z" fill="#093F68"/>
<path d="M82.5375 56.2732H64.2444C64.0925 56.2732 63.9468 56.2121 63.8394 56.1035C63.732 55.9948 63.6716 55.8474 63.6716 55.6937C63.6716 55.54 63.732 55.3927 63.8394 55.284C63.9468 55.1753 64.0925 55.1143 64.2444 55.1143H82.5375C82.6894 55.1143 82.835 55.1753 82.9424 55.284C83.0499 55.3927 83.1102 55.54 83.1102 55.6937C83.1102 55.8474 83.0499 55.9948 82.9424 56.1035C82.835 56.2121 82.6894 56.2732 82.5375 56.2732Z" fill="#093F68"/>
<path d="M59.6167 37.2374C59.4648 37.2374 59.3191 37.1764 59.2117 37.0677C59.1043 36.9591 59.0439 36.8117 59.0439 36.658V27.3864C59.0438 27.288 59.0684 27.1911 59.1155 27.1049C59.1626 27.0187 59.2306 26.9461 59.3131 26.8939L70.0805 20.2068C70.2091 20.1269 70.3636 20.1016 70.5105 20.1363C70.6574 20.171 70.7849 20.263 70.8652 20.3922C70.9049 20.4572 70.9315 20.5295 70.9435 20.605C70.9555 20.6804 70.9527 20.7575 70.9351 20.8318C70.9176 20.9062 70.8856 20.9762 70.8412 21.038C70.7967 21.0998 70.7407 21.1521 70.6762 21.1919L60.1894 27.7051V36.658C60.1894 36.8117 60.1291 36.9591 60.0217 37.0677C59.9143 37.1764 59.7686 37.2374 59.6167 37.2374Z" fill="#093F68"/>
<path d="M41.5472 37.2375C41.4438 37.2357 41.3429 37.2057 41.2551 37.1505L30.3731 31.2747C30.2817 31.2254 30.2051 31.152 30.1517 31.0622C30.0982 30.9724 30.0699 30.8696 30.0696 30.7648V17.9874C30.0696 17.8337 30.1299 17.6864 30.2373 17.5777C30.3447 17.469 30.4904 17.408 30.6423 17.408C30.7942 17.408 30.9399 17.469 31.0473 17.5777C31.1547 17.6864 31.215 17.8337 31.215 17.9874V30.4345L41.8278 36.1423C41.9428 36.2019 42.0346 36.2991 42.0881 36.4181C42.1416 36.5371 42.1538 36.671 42.1226 36.7979C42.0914 36.9248 42.0187 37.0373 41.9163 37.1171C41.8139 37.1969 41.6878 37.2393 41.5586 37.2375H41.5472Z" fill="#093F68"/>
<path d="M31.9995 42.5978C29.4337 42.5978 25.5906 42.5689 19.8232 42.4993C19.6713 42.4993 19.5256 42.4383 19.4182 42.3296C19.3108 42.2209 19.2505 42.0735 19.2505 41.9199V31.4894C19.2505 31.3357 19.3108 31.1883 19.4182 31.0796C19.5256 30.971 19.6713 30.9099 19.8232 30.9099C19.9751 30.9099 20.1208 30.971 20.2282 31.0796C20.3356 31.1883 20.396 31.3357 20.396 31.4894V41.3404C26.696 41.4157 35.7452 41.4737 36.7131 41.3404C36.7764 41.3218 36.8419 41.3121 36.9079 41.3114C37.0211 41.3119 37.1317 41.3464 37.2256 41.4104C37.3195 41.4745 37.3926 41.5653 37.4355 41.6714C37.4784 41.7774 37.4893 41.894 37.4667 42.0063C37.4442 42.1186 37.3892 42.2216 37.3088 42.3023C37.1713 42.482 37.0568 42.5978 31.9995 42.5978Z" fill="#093F68"/>
<path d="M36.0998 49.8989H10.1435C9.99164 49.8989 9.84597 49.8379 9.73856 49.7292C9.63115 49.6205 9.5708 49.4731 9.5708 49.3195C9.5708 49.1658 9.63115 49.0184 9.73856 48.9097C9.84597 48.801 9.99164 48.74 10.1435 48.74H36.0998C36.2517 48.74 36.3974 48.801 36.5048 48.9097C36.6122 49.0184 36.6725 49.1658 36.6725 49.3195C36.6725 49.4731 36.6122 49.6205 36.5048 49.7292C36.3974 49.8379 36.2517 49.8989 36.0998 49.8989Z" fill="#093F68"/>
<path d="M85.7104 48.74H64.2444C64.0925 48.74 63.9468 48.6789 63.8394 48.5703C63.732 48.4616 63.6716 48.3142 63.6716 48.1605C63.6716 48.0068 63.732 47.8594 63.8394 47.7508C63.9468 47.6421 64.0925 47.5811 64.2444 47.5811H85.7104C85.8623 47.5811 86.008 47.6421 86.1154 47.7508C86.2228 47.8594 86.2831 48.0068 86.2831 48.1605C86.2831 48.3142 86.2228 48.4616 86.1154 48.5703C86.008 48.6789 85.8623 48.74 85.7104 48.74Z" fill="#093F68"/>
<path d="M19.829 62.7981C19.707 62.7968 19.5886 62.7562 19.4911 62.6822C19.4305 62.6369 19.3793 62.5801 19.3404 62.5148C19.3016 62.4495 19.2758 62.3771 19.2646 62.3018C19.2535 62.2264 19.2571 62.1496 19.2753 62.0756C19.2935 62.0017 19.326 61.9321 19.3708 61.8709L24.1875 55.3345C24.2373 55.267 24.3009 55.2113 24.3741 55.1713C24.4473 55.1313 24.5283 55.1078 24.6113 55.1027C32.4119 54.587 36.6731 54.6159 37.2744 55.1838C37.3425 55.2473 37.397 55.3244 37.4344 55.4101C37.4719 55.4958 37.4915 55.5884 37.4921 55.6822C37.4923 55.8015 37.4561 55.918 37.3885 56.0157C37.3208 56.1134 37.225 56.1877 37.1141 56.2282C37.0032 56.2688 36.8826 56.2738 36.7688 56.2424C36.655 56.211 36.5536 56.1449 36.4783 56.053C35.499 55.7633 29.9893 55.9139 24.9492 56.2384L20.2929 62.5663C20.239 62.639 20.1689 62.6979 20.0883 62.7382C20.0077 62.7785 19.9189 62.799 19.829 62.7981Z" fill="#093F68"/>
<path d="M29.2278 79.5506C29.0759 79.5506 28.9302 79.4895 28.8228 79.3809C28.7154 79.2722 28.655 79.1248 28.655 78.9711V60.8163C28.655 60.6626 28.7154 60.5152 28.8228 60.4065C28.9302 60.2979 29.0759 60.2368 29.2278 60.2368H36.9482C37.1001 60.2368 37.2458 60.2979 37.3532 60.4065C37.4606 60.5152 37.5209 60.6626 37.5209 60.8163C37.5209 60.97 37.4606 61.1174 37.3532 61.226C37.2458 61.3347 37.1001 61.3958 36.9482 61.3958H29.8005V78.9711C29.8005 79.1248 29.7402 79.2722 29.6327 79.3809C29.5253 79.4895 29.3797 79.5506 29.2278 79.5506Z" fill="#093F68"/>
<path d="M59.6167 73.1417C59.4648 73.1417 59.3191 73.0806 59.2117 72.972C59.1043 72.8633 59.0439 72.7159 59.0439 72.5622V64.299C59.0439 64.1453 59.1043 63.9979 59.2117 63.8892C59.3191 63.7805 59.4648 63.7195 59.6167 63.7195C59.7686 63.7195 59.9143 63.7805 60.0217 63.8892C60.1291 63.9979 60.1894 64.1453 60.1894 64.299V72.5622C60.1894 72.7159 60.1291 72.8633 60.0217 72.972C59.9143 73.0806 59.7686 73.1417 59.6167 73.1417Z" fill="#093F68"/>
<path d="M49.4564 45.8777H44.571C44.4191 45.8777 44.2734 45.8166 44.166 45.708C44.0586 45.5993 43.9983 45.4519 43.9983 45.2982C43.9983 45.1445 44.0586 44.9971 44.166 44.8885C44.2734 44.7798 44.4191 44.7188 44.571 44.7188H49.4564C49.6083 44.7188 49.754 44.7798 49.8614 44.8885C49.9688 44.9971 50.0292 45.1445 50.0292 45.2982C50.0292 45.4519 49.9688 45.5993 49.8614 45.708C49.754 45.8166 49.6083 45.8777 49.4564 45.8777Z" fill="#FFBC0E"/>
</svg>
