<svg width="100" height="100" viewBox="0 0 100 100" fill="none" xmlns="http://www.w3.org/2000/svg">
<g clip-path="url(#clip0_39_1019)">
<path d="M35.4152 0.769287V51.6154H12.2349V0.769287" fill="#FFBC0E"/>
<path d="M35.4371 52.1648H12.2349C12.09 52.1648 11.951 52.1069 11.8485 52.0038C11.746 51.9008 11.6885 51.7611 11.6885 51.6153V0.769177C11.6885 0.623454 11.746 0.483698 11.8485 0.380656C11.951 0.277615 12.09 0.219727 12.2349 0.219727C12.3799 0.219727 12.5188 0.277615 12.6213 0.380656C12.7238 0.483698 12.7814 0.623454 12.7814 0.769177V51.0659H34.8907V0.769177C34.8907 0.623454 34.9482 0.483698 35.0507 0.380656C35.1532 0.277615 35.2922 0.219727 35.4371 0.219727C35.582 0.219727 35.721 0.277615 35.8235 0.380656C35.926 0.483698 35.9836 0.623454 35.9836 0.769177V51.6153C35.9836 51.7611 35.926 51.9008 35.8235 52.0038C35.721 52.1069 35.582 52.1648 35.4371 52.1648Z" fill="#093F68"/>
<path d="M17.4919 46.956C18.2705 46.956 18.9017 46.3213 18.9017 45.5384C18.9017 44.7555 18.2705 44.1208 17.4919 44.1208C16.7132 44.1208 16.082 44.7555 16.082 45.5384C16.082 46.3213 16.7132 46.956 17.4919 46.956Z" fill="#093F68"/>
<path d="M49.4589 31.8683C49.4589 31.8683 43.5737 32.3133 40.9453 32.7529C38.3168 33.1924 34.3879 38.9232 28.8196 39.5111C23.2513 40.099 18.7376 40.2419 17.131 38.7748C15.5245 37.3078 16.1092 34.3792 16.1092 34.3792H9.48624C5.59006 34.3792 5.29498 30.0825 7.84689 28.8078C7.84689 28.8078 3.47531 28.2034 3.09826 25.1155C2.65563 21.6155 6.86875 21.3957 6.86875 21.3957C6.16262 20.4367 5.81794 19.2567 5.89607 18.0661C6.0928 16.2034 9.50263 14.9342 9.50263 14.9342C9.50263 14.9342 7.55181 13.6595 8.91793 11.2089C10.2841 8.75836 11.1584 9.15397 16.1256 9.15397C21.0928 9.15397 26.06 8.76386 28.6939 9.74188C31.3278 10.7199 39.4097 14.2474 41.6502 14.3463C43.8906 14.4452 49.4808 14.1485 49.4808 14.1485L49.4589 31.8683Z" fill="#FFC9B0"/>
<path d="M22.41 40.4836C19.7488 40.4836 17.8034 40.1319 16.7652 39.1814C15.4318 37.9616 15.3991 35.9561 15.4865 34.9231H9.47555C7.16408 34.9231 6.022 33.5605 5.72692 32.2913C5.59754 31.727 5.60654 31.1396 5.75314 30.5797C5.89974 30.0197 6.17955 29.504 6.56845 29.077C5.12583 28.6429 2.83075 27.5825 2.52473 25.1814C2.44011 24.6986 2.46027 24.2032 2.58383 23.729C2.70739 23.2549 2.93142 22.8131 3.24058 22.4341C3.95558 21.6669 4.8991 21.154 5.92911 20.9726C5.44119 20.0649 5.22842 19.0334 5.31708 18.0056C5.48102 16.4176 7.37173 15.2583 8.49195 14.7473C7.87446 13.9561 7.45916 12.6264 8.39905 10.9396C9.74331 8.53303 10.8909 8.54402 14.3062 8.58797H16.0876C17.2133 8.58797 18.3389 8.58797 19.4428 8.54951C23.1805 8.48358 26.716 8.41765 28.8417 9.20886C29.4865 9.45061 30.4537 9.84072 31.5739 10.3078C34.9346 11.6649 40.022 13.7198 41.6231 13.7913C43.8089 13.8847 49.3444 13.599 49.3991 13.5935C49.4742 13.5893 49.5494 13.6009 49.62 13.6274C49.6905 13.6538 49.7548 13.6947 49.8089 13.7473C49.8622 13.7984 49.9046 13.8598 49.9338 13.9277C49.9629 13.9957 49.978 14.0689 49.9783 14.1429V31.8682C49.9786 32.0075 49.9263 32.1417 49.832 32.2437C49.7376 32.3457 49.6083 32.4079 49.4701 32.4176C49.41 32.4176 43.5848 32.8627 41.0111 33.2968C40.104 33.4451 38.8963 34.4231 37.4919 35.5495C35.2078 37.3902 32.3608 39.6869 28.8471 40.055C26.7099 40.3058 24.5615 40.4488 22.41 40.4836ZM13.1204 9.67589C10.7816 9.67589 10.2679 9.87918 9.38266 11.4726C8.28976 13.3957 9.63949 14.3627 9.7925 14.4671C9.88125 14.5254 9.95124 14.6083 9.99393 14.7059C10.0366 14.8034 10.0502 14.9114 10.0329 15.0165C10.0214 15.1167 9.9826 15.2117 9.92092 15.2911C9.85923 15.3706 9.777 15.4315 9.68321 15.4671C8.87993 15.7693 6.55752 16.9067 6.40452 18.1484C6.33909 19.1957 6.64286 20.2326 7.26244 21.077C7.32474 21.156 7.36424 21.2507 7.3766 21.3507C7.38896 21.4507 7.37371 21.5523 7.33252 21.6442C7.29133 21.7361 7.22579 21.8148 7.14307 21.8718C7.06036 21.9287 6.96364 21.9617 6.86353 21.9671C6.86353 21.9671 4.97282 22.088 4.06572 23.1814C3.85825 23.4446 3.70942 23.7496 3.62928 24.0757C3.54915 24.4018 3.53959 24.7414 3.60124 25.0715C3.93457 27.7089 7.84168 28.2803 7.87993 28.2858C7.99567 28.3019 8.10322 28.3549 8.18682 28.4369C8.27042 28.519 8.32565 28.6259 8.34441 28.7418C8.3565 28.8527 8.33475 28.9646 8.28204 29.0628C8.22933 29.1609 8.14816 29.2406 8.04932 29.2913C7.564 29.5422 7.17549 29.9484 6.94498 30.4457C6.71447 30.9431 6.65506 31.5035 6.7761 32.0385C7.0384 33.1374 8.04386 33.8242 9.46463 33.8242H16.0876C16.169 33.8227 16.2497 33.8396 16.3238 33.8734C16.3979 33.9073 16.4635 33.9574 16.5159 34.0201C16.5683 34.0828 16.6061 34.1564 16.6265 34.2357C16.6469 34.3149 16.6495 34.3977 16.634 34.4781C16.634 34.4781 16.1313 37.1319 17.4865 38.3682C19.0384 39.7858 24.3225 39.4341 28.7488 38.9616C31.94 38.6264 34.6504 36.4451 36.8253 34.6924C38.3499 33.4671 39.6613 32.4067 40.8471 32.2089C43.0329 31.8407 47.4045 31.4781 48.9018 31.3627V14.7198C47.41 14.7913 43.4373 14.9671 41.5958 14.8902C39.7542 14.8133 34.8198 12.7968 31.1805 11.3242C30.0876 10.8737 29.104 10.4891 28.4482 10.2253C26.5138 9.50556 23.0821 9.566 19.4482 9.63193C18.3553 9.63193 17.2078 9.67039 16.0767 9.67039H14.2788L13.1204 9.67589Z" fill="#093F68"/>
<path d="M23.9015 34.9231H16.1092C15.9643 34.9231 15.8253 34.8652 15.7228 34.7622C15.6203 34.6591 15.5627 34.5194 15.5627 34.3737C15.5627 34.2279 15.6203 34.0882 15.7228 33.9851C15.8253 33.8821 15.9643 33.8242 16.1092 33.8242H23.9015C24.0465 33.8242 24.1855 33.8821 24.2879 33.9851C24.3904 34.0882 24.448 34.2279 24.448 34.3737C24.448 34.5194 24.3904 34.6591 24.2879 34.7622C24.1855 34.8652 24.0465 34.9231 23.9015 34.9231Z" fill="#093F68"/>
<path d="M19.3221 29.3516H7.84674C7.70181 29.3516 7.56282 29.2937 7.46034 29.1907C7.35786 29.0876 7.30029 28.9479 7.30029 28.8021C7.30029 28.6564 7.35786 28.5167 7.46034 28.4136C7.56282 28.3106 7.70181 28.2527 7.84674 28.2527H19.3221C19.4671 28.2527 19.6061 28.3106 19.7085 28.4136C19.811 28.5167 19.8686 28.6564 19.8686 28.8021C19.8686 28.9479 19.811 29.0876 19.7085 29.1907C19.6061 29.2937 19.4671 29.3516 19.3221 29.3516Z" fill="#093F68"/>
<path d="M19.5901 21.9395H6.85236C6.70743 21.9395 6.56844 21.8816 6.46596 21.7785C6.36348 21.6755 6.30591 21.5358 6.30591 21.39C6.30591 21.2443 6.36348 21.1045 6.46596 21.0015C6.56844 20.8985 6.70743 20.8406 6.85236 20.8406H19.5901C19.735 20.8406 19.874 20.8985 19.9765 21.0015C20.0789 21.1045 20.1365 21.2443 20.1365 21.39C20.1365 21.5358 20.0789 21.6755 19.9765 21.7785C19.874 21.8816 19.735 21.9395 19.5901 21.9395Z" fill="#093F68"/>
<path d="M18.7375 15.4781H9.48615C9.34122 15.4781 9.20223 15.4202 9.09975 15.3171C8.99727 15.2141 8.9397 15.0743 8.9397 14.9286C8.9397 14.7829 8.99727 14.6431 9.09975 14.5401C9.20223 14.437 9.34122 14.3792 9.48615 14.3792H18.7375C18.8824 14.3792 19.0214 14.437 19.1239 14.5401C19.2264 14.6431 19.284 14.7829 19.284 14.9286C19.284 15.0743 19.2264 15.2141 19.1239 15.3171C19.0214 15.4202 18.8824 15.4781 18.7375 15.4781Z" fill="#093F68"/>
<path d="M49.2729 12.4395V33.0054H44.2675V12.4395H49.2729Z" fill="white"/>
<path d="M49.2734 33.5494H44.2679C44.123 33.5494 43.984 33.4915 43.8815 33.3884C43.779 33.2854 43.7214 33.1456 43.7214 32.9999V12.434C43.7214 12.2882 43.779 12.1485 43.8815 12.0455C43.984 11.9424 44.123 11.8845 44.2679 11.8845H49.2734C49.4183 11.8845 49.5573 11.9424 49.6597 12.0455C49.7622 12.1485 49.8198 12.2882 49.8198 12.434V32.9999C49.8198 33.1456 49.7622 33.2854 49.6597 33.3884C49.5573 33.4915 49.4183 33.5494 49.2734 33.5494ZM44.8143 32.4505H48.7269V12.9834H44.8143V32.4505Z" fill="#093F68"/>
<path d="M99.8358 34.3736H49.2729V11.0659H99.8358" fill="#68E1FD"/>
<path d="M99.8359 34.9229H49.273C49.1281 34.9229 48.9891 34.8651 48.8866 34.762C48.7841 34.659 48.7266 34.5192 48.7266 34.3735V11.0658C48.7266 10.9201 48.7841 10.7803 48.8866 10.6773C48.9891 10.5742 49.1281 10.5164 49.273 10.5164H99.8359C99.9808 10.5164 100.12 10.5742 100.222 10.6773C100.325 10.7803 100.382 10.9201 100.382 11.0658C100.382 11.2115 100.325 11.3513 100.222 11.4543C100.12 11.5574 99.9808 11.6153 99.8359 11.6153H49.8195V33.824H99.8359C99.9808 33.824 100.12 33.8819 100.222 33.985C100.325 34.088 100.382 34.2278 100.382 34.3735C100.382 34.5192 100.325 34.659 100.222 34.762C100.12 34.8651 99.9808 34.9229 99.8359 34.9229Z" fill="#093F68"/>
<path d="M55.3114 17.7636C56.0901 17.7636 56.7213 17.129 56.7213 16.3461C56.7213 15.5631 56.0901 14.9285 55.3114 14.9285C54.5328 14.9285 53.9016 15.5631 53.9016 16.3461C53.9016 17.129 54.5328 17.7636 55.3114 17.7636Z" fill="#093F68"/>
<path d="M87.0381 48.5714C87.0381 48.5714 87.4808 42.6594 87.9179 40.011C88.3551 37.3627 94.0545 33.4176 94.6392 27.8187C95.2239 22.2198 95.366 17.6813 93.907 16.066C92.448 14.4506 89.5354 15.0385 89.5354 15.0385V8.37914C89.5354 4.46156 85.2622 4.17035 83.9944 6.73079C83.9944 6.73079 83.3933 2.33518 80.3223 1.95606C76.8414 1.51101 76.6228 5.75277 76.6228 5.75277C75.6703 5.04013 74.4959 4.69327 73.3114 4.77475C71.4589 4.96705 70.1966 8.39562 70.1966 8.39562C70.1966 8.39562 68.9289 6.43958 66.4917 7.80771C64.0545 9.17584 64.448 10.0605 64.448 15.055C64.448 20.0495 64.06 25.044 65.0327 27.6923C66.0054 30.3407 69.5136 38.4616 69.6119 40.7143C69.7103 42.9671 69.4152 48.5879 69.4152 48.5879L87.0381 48.5714Z" fill="#AD7972"/>
<path d="M87.0382 49.1209H69.4098C69.3362 49.1207 69.2634 49.1054 69.1958 49.0762C69.1282 49.0469 69.0671 49.0042 69.0163 48.9506C68.9647 48.8969 68.9245 48.8331 68.8982 48.7632C68.8718 48.6933 68.86 48.6187 68.8633 48.544C68.8633 48.4891 69.153 42.9231 69.0601 40.7253C68.989 39.11 66.9453 33.9946 65.5901 30.61C65.142 29.5111 64.7541 28.5111 64.4972 27.8627C63.7103 25.7253 63.7704 22.1704 63.8415 18.4122C63.8415 17.3133 63.8797 16.1704 63.8797 15.0385C63.8797 14.3737 63.8797 13.7803 63.8797 13.2473C63.836 9.81326 63.8251 8.65941 66.2131 7.31326C67.8961 6.36271 69.2185 6.76381 70.0054 7.40117C70.5519 6.30227 71.6448 4.3737 73.2459 4.20886C74.2681 4.11971 75.294 4.33365 76.1967 4.82425C76.3793 3.78379 76.8933 2.83119 77.6612 2.10996C78.0393 1.80132 78.4788 1.57785 78.9502 1.45463C79.4215 1.33141 79.9137 1.3113 80.3934 1.39568C82.7759 1.69787 83.836 4.00557 84.2677 5.45612C84.6924 5.06508 85.2053 4.78374 85.7622 4.63633C86.3191 4.48892 86.9033 4.47987 87.4644 4.60996C88.7267 4.91216 90.0819 6.06051 90.0819 8.37919V14.4231C91.1092 14.3407 93.1038 14.3682 94.3169 15.7089C95.9125 17.4726 95.8196 21.8517 95.1857 27.8902C94.8196 31.4177 92.5355 34.2803 90.7049 36.5825C89.5792 37.9891 88.612 39.2089 88.459 40.1155C88.0327 42.7034 87.5956 48.566 87.5901 48.621C87.5777 48.7589 87.514 48.887 87.4117 48.9798C87.3093 49.0725 87.1759 49.1229 87.0382 49.1209ZM69.9836 48.022H86.5355C86.6502 46.522 87.0109 42.1374 87.377 39.9231C87.5737 38.7308 88.6284 37.4122 89.847 35.8792C91.5901 33.6814 93.7595 30.9726 94.0928 27.7638C94.5628 23.3078 94.9125 18.0001 93.5027 16.4396C92.2677 15.0715 89.6775 15.5715 89.6338 15.577C89.5539 15.5926 89.4715 15.59 89.3927 15.5694C89.3139 15.5489 89.2407 15.5109 89.1784 15.4582C89.116 15.4056 89.0662 15.3396 89.0325 15.265C88.9988 15.1905 88.9821 15.1094 88.9836 15.0275V8.37919C88.9836 6.95062 88.3169 5.94512 87.2076 5.68139C86.6754 5.5587 86.1178 5.61799 85.6229 5.84987C85.128 6.08175 84.7242 6.47297 84.4754 6.96161C84.4234 7.06589 84.3398 7.15086 84.2367 7.2042C84.1335 7.25754 84.0162 7.27649 83.9016 7.25831C83.7863 7.23945 83.68 7.18392 83.5984 7.09986C83.5167 7.01581 83.464 6.90765 83.448 6.79128C83.448 6.75282 82.8633 2.81875 80.2459 2.48359C79.9184 2.42205 79.5816 2.4319 79.2583 2.51247C78.9349 2.59304 78.6325 2.74246 78.3715 2.95062C77.2786 3.86271 77.1639 5.74732 77.1639 5.76381C77.1586 5.86477 77.1257 5.96231 77.0688 6.04568C77.0119 6.12905 76.9333 6.19502 76.8415 6.23633C76.7523 6.27417 76.6547 6.2875 76.5587 6.27495C76.4626 6.2624 76.3717 6.22442 76.295 6.16491C75.4536 5.54531 74.4236 5.24024 73.3825 5.30227C72.1475 5.43414 71.0163 7.76381 70.7158 8.5715C70.6804 8.66628 70.6196 8.74937 70.5401 8.8116C70.4607 8.87383 70.3657 8.91279 70.2657 8.92415C70.1656 8.93552 70.0643 8.91886 69.9731 8.87603C69.8819 8.83319 69.8042 8.76583 69.7486 8.68139C69.6448 8.52755 68.6557 7.19788 66.7704 8.2693C64.9453 9.29678 64.9508 9.82425 64.9945 13.2144V15.0166C64.9945 16.1594 64.9945 17.2968 64.9562 18.4122C64.8907 22.066 64.8306 25.5166 65.5464 27.4616C65.7759 28.0935 66.1639 29.0605 66.612 30.1759C68.0765 33.8407 70.0765 38.8517 70.1584 40.6539C70.2404 42.4561 70.0546 46.522 69.9836 48.022Z" fill="#093F68"/>
<path d="M89.5355 23.4231C89.3905 23.4231 89.2516 23.3652 89.1491 23.2621C89.0466 23.1591 88.989 23.0193 88.989 22.8736V15.0385C88.989 14.8927 89.0466 14.753 89.1491 14.6499C89.2516 14.5469 89.3905 14.489 89.5355 14.489C89.6804 14.489 89.8194 14.5469 89.9219 14.6499C90.0243 14.753 90.0819 14.8927 90.0819 15.0385V22.8736C90.0819 23.0193 90.0243 23.1591 89.9219 23.2621C89.8194 23.3652 89.6804 23.4231 89.5355 23.4231Z" fill="#093F68"/>
<path d="M83.9891 18.8188C83.8441 18.8188 83.7051 18.7609 83.6027 18.6578C83.5002 18.5548 83.4426 18.415 83.4426 18.2693V6.73085C83.4426 6.58512 83.5002 6.44537 83.6027 6.34233C83.7051 6.23928 83.8441 6.1814 83.9891 6.1814C84.134 6.1814 84.273 6.23928 84.3755 6.34233C84.4779 6.44537 84.5355 6.58512 84.5355 6.73085V18.2693C84.5355 18.415 84.4779 18.5548 84.3755 18.6578C84.273 18.7609 84.134 18.8188 83.9891 18.8188Z" fill="#093F68"/>
<path d="M76.6175 19.1153C76.4726 19.1153 76.3336 19.0574 76.2311 18.9544C76.1286 18.8514 76.071 18.7116 76.071 18.5659V5.73622C76.071 5.59049 76.1286 5.45074 76.2311 5.3477C76.3336 5.24466 76.4726 5.18677 76.6175 5.18677C76.7624 5.18677 76.9014 5.24466 77.0039 5.3477C77.1064 5.45074 77.1639 5.59049 77.1639 5.73622V18.5659C77.1639 18.7116 77.1064 18.8514 77.0039 18.9544C76.9014 19.0574 76.7624 19.1153 76.6175 19.1153Z" fill="#093F68"/>
<path d="M70.1912 18.2309C70.0463 18.2309 69.9073 18.173 69.8048 18.07C69.7023 17.967 69.6448 17.8272 69.6448 17.6815V8.37928C69.6448 8.23356 69.7023 8.09381 69.8048 7.99076C69.9073 7.88772 70.0463 7.82983 70.1912 7.82983C70.3362 7.82983 70.4751 7.88772 70.5776 7.99076C70.6801 8.09381 70.7377 8.23356 70.7377 8.37928V17.6815C70.7377 17.8272 70.6801 17.967 70.5776 18.07C70.4751 18.173 70.3362 18.2309 70.1912 18.2309Z" fill="#093F68"/>
<path d="M67.7104 43.3572H88.164V48.3901H67.7104V43.3572Z" fill="#093F68"/>
<path d="M88.1638 48.9342H67.7103C67.5653 48.9342 67.4263 48.8763 67.3239 48.7733C67.2214 48.6703 67.1638 48.5305 67.1638 48.3848V43.3573C67.1638 43.2116 67.2214 43.0718 67.3239 42.9688C67.4263 42.8657 67.5653 42.8079 67.7103 42.8079H88.1638C88.3087 42.8079 88.4477 42.8657 88.5502 42.9688C88.6527 43.0718 88.7103 43.2116 88.7103 43.3573V48.3848C88.7103 48.5305 88.6527 48.6703 88.5502 48.7733C88.4477 48.8763 88.3087 48.9342 88.1638 48.9342ZM68.2567 47.8353H87.6174V43.9068H68.2567V47.8353Z" fill="#093F68"/>
<path d="M89.5299 99.2309V48.3848H66.3496V99.2309" fill="#F56132"/>
<path d="M89.5355 99.7803C89.3905 99.7803 89.2515 99.7224 89.1491 99.6193C89.0466 99.5163 88.989 99.3765 88.989 99.2308V48.9341H66.8961V99.2308C66.8961 99.3765 66.8385 99.5163 66.7361 99.6193C66.6336 99.7224 66.4946 99.7803 66.3497 99.7803C66.2047 99.7803 66.0658 99.7224 65.9633 99.6193C65.8608 99.5163 65.8032 99.3765 65.8032 99.2308V48.3847C65.8032 48.2389 65.8608 48.0992 65.9633 47.9961C66.0658 47.8931 66.2047 47.8352 66.3497 47.8352H89.5355C89.6804 47.8352 89.8194 47.8931 89.9218 47.9961C90.0243 48.0992 90.0819 48.2389 90.0819 48.3847V99.2308C90.0819 99.3765 90.0243 99.5163 89.9218 99.6193C89.8194 99.7224 89.6804 99.7803 89.5355 99.7803Z" fill="#093F68"/>
<path d="M71.601 55.8791C72.3796 55.8791 73.0108 55.2444 73.0108 54.4615C73.0108 53.6786 72.3796 53.0439 71.601 53.0439C70.8224 53.0439 70.1912 53.6786 70.1912 54.4615C70.1912 55.2444 70.8224 55.8791 71.601 55.8791Z" fill="#093F68"/>
<path d="M50.9232 86.346C50.9232 86.346 56.8085 86.7856 59.4369 87.2306C62.0653 87.6757 65.9943 93.401 71.5626 93.9889C77.1309 94.5768 81.6445 94.7197 83.2511 93.2526C84.8576 91.7856 84.2729 88.857 84.2729 88.857H90.8959C94.7921 88.857 95.0872 84.5548 92.5352 83.2856C92.5352 83.2856 96.9068 82.6812 97.2839 79.5933C97.7265 76.0933 93.5134 75.8735 93.5134 75.8735C94.2195 74.9144 94.5642 73.7345 94.4861 72.5438C94.2893 70.6812 90.8795 69.4065 90.8795 69.4065C90.8795 69.4065 92.8303 68.1372 91.4642 65.6867C90.0981 63.2361 89.2238 63.6317 84.2566 63.6317C79.2893 63.6317 74.3221 63.2416 71.6882 64.2197C69.0544 65.1977 60.9724 68.7252 58.732 68.8241C56.4915 68.923 50.9014 68.6263 50.9014 68.6263L50.9232 86.346Z" fill="#FFC9B0"/>
<path d="M77.9726 94.9615C75.812 94.9275 73.6544 94.7845 71.5081 94.533C67.9944 94.1594 65.1475 91.8681 62.8633 90.0275C61.4589 88.8956 60.2513 87.9231 59.3442 87.7692C56.7704 87.3407 50.9453 86.9011 50.8852 86.8956C50.747 86.8859 50.6176 86.8237 50.5233 86.7217C50.4289 86.6197 50.3766 86.4855 50.377 86.3462V68.6209C50.3765 68.546 50.3913 68.4717 50.4204 68.4027C50.4496 68.3338 50.4924 68.2715 50.5464 68.2198C50.6003 68.1688 50.6639 68.1294 50.7334 68.1039C50.8029 68.0784 50.8769 68.0674 50.9507 68.0714C51.0108 68.0714 56.5409 68.3626 58.7322 68.2692C60.3333 68.1978 65.4207 66.1429 68.7813 64.7857C69.907 64.3297 70.8742 63.9396 71.5136 63.6868C73.6447 62.8956 77.1748 62.9561 80.9125 63.0275C82.0054 63.0275 83.142 63.0659 84.2677 63.0659H86.0491C89.4644 63.0275 90.6119 63.0165 91.9507 65.4176C92.8961 67.1099 92.4972 68.4396 91.8633 69.2308C92.9835 69.7802 94.8742 70.8791 95.0382 72.4835C95.1281 73.5115 94.9153 74.5434 94.4262 75.4506C95.4612 75.638 96.4092 76.1541 97.1311 76.9231C97.4393 77.3026 97.6627 77.7444 97.7862 78.2184C97.9097 78.6924 97.9304 79.1876 97.8469 79.6703C97.5409 82.0659 95.2513 83.1264 93.8032 83.5659C94.1921 83.993 94.4719 84.5087 94.6185 85.0687C94.7651 85.6286 94.7741 86.216 94.6447 86.7802C94.3496 88.0495 93.2076 89.4121 90.8961 89.4121H84.8852C84.9726 90.4451 84.9398 92.4506 83.6065 93.6703C82.5792 94.6044 80.6338 94.9615 77.9726 94.9615ZM51.4699 85.8407C52.9617 85.9561 57.3223 86.3187 59.5245 86.6868C60.7103 86.8846 62.0218 87.9451 63.5464 89.1703C65.7322 90.9231 68.4316 93.1044 71.6229 93.4396C76.0491 93.9066 81.3332 94.2637 82.8852 92.8462C84.2403 91.6044 83.7431 89 83.7376 88.9561C83.7221 88.8757 83.7247 88.7929 83.7452 88.7136C83.7656 88.6344 83.8034 88.5608 83.8557 88.4981C83.9081 88.4354 83.9738 88.3853 84.0479 88.3514C84.122 88.3175 84.2027 88.3007 84.2841 88.3022H90.907C92.3278 88.3022 93.3332 87.6319 93.5955 86.5165C93.7166 85.9814 93.6572 85.4211 93.4267 84.9237C93.1961 84.4263 92.8076 84.0202 92.3223 83.7692C92.2191 83.7162 92.1353 83.6316 92.0831 83.5276C92.0308 83.4235 92.0129 83.3055 92.0317 83.1905C92.0506 83.0756 92.1053 82.9696 92.188 82.8879C92.2707 82.8063 92.377 82.7532 92.4917 82.7363C92.53 82.7363 96.4371 82.1484 96.7704 79.5165C96.832 79.1872 96.8223 78.8485 96.7422 78.5233C96.6621 78.1982 96.5133 77.8941 96.3059 77.6319C95.3988 76.533 93.53 76.4176 93.5081 76.4176C93.4075 76.412 93.3104 76.3785 93.2275 76.3209C93.1446 76.2632 93.0792 76.1837 93.0385 76.091C92.9978 75.9983 92.9834 75.8961 92.9968 75.7957C93.0102 75.6953 93.051 75.6005 93.1147 75.522C93.7277 74.6746 94.029 73.6394 93.9671 72.5934C93.8414 71.3572 91.519 70.2198 90.7158 69.9176C90.6212 69.8816 90.5385 69.8198 90.4767 69.7393C90.415 69.6588 90.3767 69.5627 90.366 69.4615C90.3558 69.361 90.3734 69.2597 90.4168 69.1686C90.4602 69.0774 90.5277 69.0001 90.6119 68.9451C90.7595 68.8407 92.0873 67.8462 91.0163 65.9506C89.9944 64.1154 89.4753 64.1209 86.0983 64.1594C85.5518 64.1594 84.9671 64.1594 84.3005 64.1594C83.1693 64.1594 82.0327 64.1594 80.9289 64.1209C77.295 64.055 73.8633 63.989 71.9289 64.7143C71.295 64.9451 70.3333 65.3352 69.1966 65.7857C65.5573 67.2583 60.5737 69.2692 58.7813 69.3462C56.989 69.4231 52.9726 69.2528 51.4753 69.1813L51.4699 85.8407Z" fill="#093F68"/>
<path d="M84.2731 89.4011H76.4808C76.3358 89.4011 76.1969 89.3433 76.0944 89.2402C75.9919 89.1372 75.9343 88.9974 75.9343 88.8517C75.9343 88.706 75.9919 88.5662 76.0944 88.4632C76.1969 88.3601 76.3358 88.3022 76.4808 88.3022H84.2731C84.418 88.3022 84.557 88.3601 84.6595 88.4632C84.762 88.5662 84.8196 88.706 84.8196 88.8517C84.8196 88.9974 84.762 89.1372 84.6595 89.2402C84.557 89.3433 84.418 89.4011 84.2731 89.4011Z" fill="#093F68"/>
<path d="M92.5519 83.8296H81.0765C80.9315 83.8296 80.7926 83.7717 80.6901 83.6687C80.5876 83.5656 80.53 83.4259 80.53 83.2802C80.53 83.1344 80.5876 82.9947 80.6901 82.8916C80.7926 82.7886 80.9315 82.7307 81.0765 82.7307H92.5519C92.6968 82.7307 92.8358 82.7886 92.9383 82.8916C93.0408 82.9947 93.0983 83.1344 93.0983 83.2802C93.0983 83.4259 93.0408 83.5656 92.9383 83.6687C92.8358 83.7717 92.6968 83.8296 92.5519 83.8296Z" fill="#093F68"/>
<path d="M93.53 76.4175H80.7923C80.6474 76.4175 80.5084 76.3596 80.4059 76.2566C80.3034 76.1535 80.2458 76.0138 80.2458 75.8681C80.2458 75.7223 80.3034 75.5826 80.4059 75.4795C80.5084 75.3765 80.6474 75.3186 80.7923 75.3186H93.5519C93.6968 75.3186 93.8358 75.3765 93.9383 75.4795C94.0407 75.5826 94.0983 75.7223 94.0983 75.8681C94.0983 76.0138 94.0407 76.1535 93.9383 76.2566C93.8358 76.3596 93.6968 76.4175 93.5519 76.4175H93.53Z" fill="#093F68"/>
<path d="M90.8962 69.9505H81.6448C81.4999 69.9505 81.3609 69.8926 81.2584 69.7895C81.156 69.6865 81.0984 69.5467 81.0984 69.401C81.0984 69.2553 81.156 69.1155 81.2584 69.0125C81.3609 68.9095 81.4999 68.8516 81.6448 68.8516H90.8962C91.0411 68.8516 91.1801 68.9095 91.2826 69.0125C91.3851 69.1155 91.4426 69.2553 91.4426 69.401C91.4426 69.5467 91.3851 69.6865 91.2826 69.7895C91.1801 69.8926 91.0411 69.9505 90.8962 69.9505Z" fill="#093F68"/>
<path d="M56.1145 66.9121V87.4781H51.109V66.9121H56.1145Z" fill="white"/>
<path d="M56.1149 88.0274H51.1094C50.9645 88.0274 50.8255 87.9695 50.723 87.8665C50.6206 87.7634 50.563 87.6237 50.563 87.4779V66.912C50.563 66.7663 50.6206 66.6265 50.723 66.5235C50.8255 66.4204 50.9645 66.3625 51.1094 66.3625H56.1149C56.2598 66.3625 56.3988 66.4204 56.5013 66.5235C56.6038 66.6265 56.6614 66.7663 56.6614 66.912V87.4779C56.6614 87.6237 56.6038 87.7634 56.5013 87.8665C56.3988 87.9695 56.2598 88.0274 56.1149 88.0274ZM51.6559 86.9285H55.5685V67.4614H51.6559V86.9285Z" fill="#093F68"/>
<path d="M0.546387 88.8516H51.1092V65.5439H0.546387" fill="#68E1FD"/>
<path d="M51.1093 89.4012H0.546448C0.401521 89.4012 0.262529 89.3433 0.160051 89.2403C0.0575716 89.1373 0 88.9975 0 88.8518C0 88.7061 0.0575716 88.5663 0.160051 88.4633C0.262529 88.3602 0.401521 88.3023 0.546448 88.3023H50.5628V66.0935H0.546448C0.401521 66.0935 0.262529 66.0356 0.160051 65.9326C0.0575716 65.8296 0 65.6898 0 65.5441C0 65.3984 0.0575716 65.2586 0.160051 65.1556C0.262529 65.0525 0.401521 64.9946 0.546448 64.9946H51.1093C51.2542 64.9946 51.3932 65.0525 51.4957 65.1556C51.5982 65.2586 51.6557 65.3984 51.6557 65.5441V88.8518C51.6557 88.9975 51.5982 89.1373 51.4957 89.2403C51.3932 89.3433 51.2542 89.4012 51.1093 89.4012Z" fill="#093F68"/>
<path d="M45.071 72.2419C45.8496 72.2419 46.4808 71.6072 46.4808 70.8243C46.4808 70.0414 45.8496 69.4067 45.071 69.4067C44.2923 69.4067 43.6611 70.0414 43.6611 70.8243C43.6611 71.6072 44.2923 72.2419 45.071 72.2419Z" fill="#093F68"/>
<path d="M32.929 52.9945C32.929 52.9945 33.3662 57.3407 33.8033 59.989C34.2405 62.6374 39.9399 66.5824 40.5246 72.1813C41.1093 77.7802 41.2569 82.3187 39.7979 83.9341C38.3388 85.5495 35.4263 84.9615 35.4263 84.9615V91.6209C35.4263 95.5385 31.1531 95.8297 29.8853 93.2692C29.8853 93.2692 29.2842 97.6648 26.2186 98.044C22.7378 98.489 22.5192 94.2473 22.5192 94.2473C21.566 94.9586 20.392 95.3053 19.2077 95.2253C17.3552 95.033 16.0875 91.6044 16.0875 91.6044C16.0875 91.6044 14.8197 93.5604 12.388 92.1923C9.95634 90.8242 10.3443 89.9396 10.3443 84.9451C10.3443 79.9506 9.95087 74.9561 10.9235 72.3077C11.8962 69.6593 15.4044 61.5385 15.5028 59.2857C15.6011 57.033 15.3115 52.978 15.3115 52.978L32.929 52.9945Z" fill="#E28362"/>
<path d="M25.7048 98.6428C24.9226 98.6575 24.1609 98.3905 23.5573 97.89C22.7915 97.1664 22.2763 96.2152 22.0873 95.1757C21.1837 95.6636 20.1586 95.8774 19.1365 95.7911C17.5573 95.6263 16.4316 93.7252 15.9016 92.5988C15.1092 93.2142 13.7923 93.6373 12.1092 92.6867C9.71576 91.3406 9.73215 90.1867 9.7704 86.7526C9.7704 86.2032 9.7704 85.6537 9.7704 84.9614C9.7704 83.8296 9.7704 82.6922 9.72669 81.5878C9.66111 77.8296 9.59554 74.2746 10.3879 72.1373C10.6283 71.4834 11.0163 70.4889 11.4808 69.39C12.836 66.0054 14.8797 60.8955 14.9453 59.2801C15.0436 57.0823 14.754 53.0768 14.754 53.0384C14.7485 52.9636 14.7582 52.8884 14.7826 52.8175C14.8071 52.7467 14.8457 52.6816 14.8961 52.6263C14.9477 52.5704 15.0103 52.5258 15.0799 52.4956C15.1495 52.4653 15.2246 52.4499 15.3005 52.4505H32.9289C33.0648 52.4498 33.1961 52.5 33.2972 52.5915C33.3982 52.6829 33.4617 52.809 33.4753 52.945C33.4753 52.9889 33.9179 57.3076 34.3496 59.901C34.4972 60.8076 35.4699 62.0274 36.5901 63.434C38.4261 65.7362 40.7048 68.5988 41.0764 72.1263C41.7048 78.1702 41.7977 82.5658 40.2021 84.3076C38.9944 85.6483 36.9999 85.6812 35.9671 85.5933V91.6373C35.9671 93.9559 34.6174 95.1043 33.3496 95.4065C32.7885 95.5361 32.2044 95.5268 31.6476 95.3794C31.0908 95.2321 30.5779 94.951 30.1529 94.5603C29.7212 96.0109 28.6666 98.3186 26.2786 98.6208C26.0881 98.6418 25.8964 98.6492 25.7048 98.6428ZM22.5026 93.6977C22.5817 93.6983 22.6598 93.7151 22.7322 93.7472C22.8229 93.7892 22.9004 93.8556 22.9563 93.9389C23.0122 94.0222 23.0443 94.1193 23.0491 94.2197C23.0491 94.2197 23.1693 96.1208 24.2622 97.0329C24.5228 97.2417 24.8252 97.3915 25.1487 97.4721C25.4721 97.5527 25.8091 97.5622 26.1365 97.4999C28.754 97.1647 29.3278 93.2307 29.3332 93.1922C29.3484 93.0751 29.4007 92.966 29.4824 92.8811C29.5641 92.7963 29.6708 92.7401 29.7867 92.721C29.9026 92.7019 30.0215 92.7208 30.1259 92.775C30.2302 92.8292 30.3144 92.9158 30.366 93.0219C30.6149 93.5105 31.0187 93.9017 31.5136 94.1336C32.0084 94.3655 32.5661 94.4248 33.0983 94.3021C34.1912 94.0384 34.8688 93.0329 34.8688 91.6043V84.9614C34.8693 84.8803 34.8877 84.8003 34.9227 84.7271C34.9576 84.6539 35.0083 84.5895 35.071 84.5384C35.1333 84.4866 35.2064 84.4494 35.2848 84.4294C35.3633 84.4094 35.4451 84.4072 35.5245 84.423C35.5245 84.423 38.1584 84.923 39.3934 83.5603C40.8032 81.9999 40.448 76.6922 39.9835 72.2362C39.6447 69.0274 37.4753 66.3076 35.7321 64.1153C34.5136 62.5878 33.4644 61.2691 33.2677 60.0768C32.9179 57.9724 32.5628 54.7636 32.4371 53.5439H15.8852C15.9617 54.7581 16.1147 57.5548 16.0382 59.3241C15.9617 61.0933 13.9562 66.1373 12.4863 69.7801C12.0382 70.879 11.6502 71.868 11.3934 72.5274C10.6775 74.4724 10.7376 77.923 10.8032 81.5768C10.8032 82.6757 10.8469 83.8296 10.8469 84.9724V86.7746C10.8087 90.1867 10.8032 90.7142 12.6283 91.7197C14.5354 92.8186 15.5026 91.4614 15.6065 91.3076C15.6623 91.223 15.7404 91.1556 15.8321 91.1129C15.9237 91.0703 16.0253 91.054 16.1256 91.0658C16.2252 91.0775 16.3197 91.1164 16.3987 91.1785C16.4777 91.2405 16.5383 91.3232 16.5737 91.4175C16.8742 92.2252 18.0054 94.5548 19.2349 94.6867C20.2764 94.7525 21.3077 94.4471 22.1475 93.8241C22.2494 93.7468 22.3751 93.708 22.5026 93.7142V93.6977Z" fill="#093F68"/>
<path d="M35.4371 85.511C35.2921 85.511 35.1532 85.4531 35.0507 85.35C34.9482 85.247 34.8906 85.1072 34.8906 84.9615V77.1264C34.8906 76.9806 34.9482 76.8409 35.0507 76.7378C35.1532 76.6348 35.2921 76.5769 35.4371 76.5769C35.582 76.5769 35.721 76.6348 35.8235 76.7378C35.9259 76.8409 35.9835 76.9806 35.9835 77.1264V84.9615C35.9835 85.1072 35.9259 85.247 35.8235 85.35C35.721 85.4531 35.582 85.511 35.4371 85.511Z" fill="#093F68"/>
<path d="M29.8741 93.8351C29.7292 93.8351 29.5902 93.7772 29.4877 93.6742C29.3852 93.5711 29.3276 93.4314 29.3276 93.2857V81.7472C29.3276 81.6015 29.3852 81.4617 29.4877 81.3587C29.5902 81.2556 29.7292 81.1978 29.8741 81.1978C30.019 81.1978 30.158 81.2556 30.2605 81.3587C30.363 81.4617 30.4205 81.6015 30.4205 81.7472V93.2857C30.4205 93.4314 30.363 93.5711 30.2605 93.6742C30.158 93.7772 30.019 93.8351 29.8741 93.8351Z" fill="#093F68"/>
<path d="M22.5081 94.8131C22.3632 94.8131 22.2242 94.7552 22.1217 94.6522C22.0192 94.5491 21.9617 94.4094 21.9617 94.2636V81.434C21.9617 81.2882 22.0192 81.1485 22.1217 81.0455C22.2242 80.9424 22.3632 80.8845 22.5081 80.8845C22.653 80.8845 22.792 80.9424 22.8945 81.0455C22.997 81.1485 23.0546 81.2882 23.0546 81.434V94.2636C23.0546 94.4094 22.997 94.5491 22.8945 94.6522C22.792 94.7552 22.653 94.8131 22.5081 94.8131Z" fill="#093F68"/>
<path d="M16.0762 92.1704C15.9313 92.1704 15.7923 92.1125 15.6898 92.0095C15.5874 91.9064 15.5298 91.7667 15.5298 91.6209V82.3187C15.5298 82.173 15.5874 82.0333 15.6898 81.9302C15.7923 81.8272 15.9313 81.7693 16.0762 81.7693C16.2212 81.7693 16.3601 81.8272 16.4626 81.9302C16.5651 82.0333 16.6227 82.173 16.6227 82.3187V91.6209C16.6227 91.7667 16.5651 91.9064 16.4626 92.0095C16.3601 92.1125 16.2212 92.1704 16.0762 92.1704Z" fill="#093F68"/>
<path d="M13.6011 51.6152H34.0546V56.6482H13.6011V51.6152Z" fill="#093F68"/>
<path d="M34.0546 57.1923H13.5792C13.4342 57.1923 13.2952 57.1344 13.1928 57.0314C13.0903 56.9283 13.0327 56.7886 13.0327 56.6428V51.6154C13.0327 51.4696 13.0903 51.3299 13.1928 51.2268C13.2952 51.1238 13.4342 51.0659 13.5792 51.0659H34.0327C34.1776 51.0659 34.3166 51.1238 34.4191 51.2268C34.5216 51.3299 34.5792 51.4696 34.5792 51.6154V56.6428C34.5793 56.7848 34.5247 56.9214 34.4269 57.0238C34.3291 57.1262 34.1957 57.1866 34.0546 57.1923ZM14.1475 56.0934H33.5081V52.1648H14.1256L14.1475 56.0934Z" fill="#093F68"/>
</g>
<defs>
<clipPath id="clip0_39_1019">
<rect width="100" height="100" fill="white"/>
</clipPath>
</defs>
</svg>
