<svg xmlns="http://www.w3.org/2000/svg" width="114" height="114" viewBox="0 0 114 114" fill="none">
<path d="M109.909 39.5059L61.0941 24.6088C58.4341 23.7971 55.5641 23.7971 52.9059 24.6088L4.08963 39.5059C-0.0298751 40.7627 -0.0298751 46.1739 4.08963 47.4307L12.5999 50.0277C10.7326 52.3205 9.58463 55.1174 9.47088 58.1803C7.78563 59.1398 6.59913 60.8711 6.59913 62.9379C6.59913 64.8118 7.59313 66.3884 9.02463 67.3966L4.55688 87.366C4.16838 89.1025 5.49837 90.7504 7.28863 90.7504H17.1079C18.8999 90.7504 20.2299 89.1025 19.8414 87.366L15.3736 67.3966C16.8051 66.3884 17.7991 64.8118 17.7991 62.9379C17.7991 60.9267 16.6669 59.2441 15.0586 58.2672C15.1916 55.6563 16.5356 53.3478 18.6794 51.8842L52.9041 62.3295C54.4896 62.8128 57.5311 63.416 61.0924 62.3295L109.909 47.4325C114.03 46.174 114.03 40.7644 109.909 39.5059ZM62.7374 67.6469C57.7446 69.1697 53.4904 68.3283 51.2591 67.6469L25.8806 59.9029L23.3991 79.6254C23.3991 85.7703 38.4421 90.7504 56.9991 90.7504C75.5561 90.7504 90.5991 85.7703 90.5991 79.6254L88.1176 59.9012L62.7374 67.6469Z" fill="black"/>
</svg>