<svg width="114" height="114" viewBox="0 0 114 114" fill="none" xmlns="http://www.w3.org/2000/svg">
<path d="M102.536 75.9155C100.598 74.1582 97.5761 74.2732 95.5398 75.9155L80.3659 88.052C78.5102 89.5464 76.1947 90.3512 73.7971 90.3512H54.3699C52.9248 90.3512 51.7424 89.1687 51.7424 87.7235C51.7424 86.2783 52.9248 85.0958 54.3699 85.0958H67.2283C69.8394 85.0958 72.2698 83.3057 72.6968 80.7274C73.2387 77.4428 70.7097 74.5852 67.5075 74.5852H41.2323C36.7984 74.5852 32.5123 76.1125 29.0636 78.9044L21.4274 85.0958H12.3297C10.8845 85.0958 9.70215 86.2783 9.70215 87.7235V103.489C9.70215 104.935 10.8845 106.117 12.3297 106.117H70.9232C73.3044 106.117 75.6199 105.312 77.492 103.818L102.322 83.9462C104.818 81.9591 105.015 78.149 102.536 75.9155Z" fill="black"/>
<path d="M36.1555 20.3898C36.1555 15.7849 39.8885 12.052 44.4933 12.052C49.0981 12.052 52.831 15.7849 52.831 20.3898C52.831 23.0777 51.5591 25.4686 49.5843 26.9933C49.5249 27.0371 49.4659 27.0815 49.4073 27.1263C48.0293 28.1332 46.3307 28.7275 44.4933 28.7275C39.8885 28.7275 36.1555 24.9946 36.1555 20.3898Z" fill="black"/>
<path d="M64.4157 26.9933C64.4751 27.0371 64.5341 27.0815 64.5927 27.1263C65.9707 28.1332 67.6695 28.7275 69.5067 28.7275C74.1117 28.7275 77.8445 24.9946 77.8445 20.3898C77.8445 15.7849 74.1117 12.052 69.5067 12.052C64.9019 12.052 61.1689 15.7849 61.1689 20.3898C61.1689 23.0777 62.4409 25.4686 64.4157 26.9933Z" fill="black"/>
<path d="M49.7778 32.8964C51.2194 30.4043 53.914 28.7275 57.0001 28.7275C60.0863 28.7275 62.7808 30.4043 64.2225 32.8964C64.9319 34.1228 65.3379 35.5466 65.3379 37.0653C65.3379 41.6701 61.6049 45.4031 57.0001 45.4031C52.3953 45.4031 48.6624 41.6701 48.6624 37.0653C48.6624 35.5466 49.0684 34.1228 49.7778 32.8964Z" fill="black"/>
<path d="M34.0711 32.8965H45.2051C44.7442 34.2004 44.4934 35.6036 44.4934 37.0654C44.4934 40.2685 45.6976 43.1905 47.678 45.4031H46.5778C42.0539 45.4031 38.2034 48.2855 36.7621 52.3135C35.3448 51.7369 34.0336 50.9836 32.8712 50.0506C29.7313 47.5304 27.8179 43.8026 27.8179 39.1498C27.8179 35.6963 30.6175 32.8965 34.0711 32.8965Z" fill="black"/>
<path d="M67.4224 45.4031C71.9461 45.4031 75.7969 48.2854 77.2381 52.3135C78.6555 51.7369 79.9666 50.9836 81.1293 50.0506C84.2689 47.5304 86.1824 43.8026 86.1824 39.1498C86.1824 35.6962 83.3826 32.8965 79.9291 32.8965H68.7952C69.2559 34.2004 69.5069 35.6036 69.5069 37.0654C69.5069 40.2685 68.3025 43.1905 66.3223 45.4031H67.4224Z" fill="black"/>
<path d="M73.2049 53.4407C73.5079 54.1757 73.6755 54.9811 73.6755 55.8253C73.6755 60.4782 71.762 64.2061 68.6224 66.7261C65.532 69.2066 61.3902 70.4164 57 70.4164C52.6098 70.4164 48.468 69.2066 45.3778 66.7261C42.2379 64.2061 40.3245 60.4782 40.3245 55.8253C40.3245 54.9811 40.4918 54.1757 40.7952 53.4407C41.7326 51.17 43.9685 49.572 46.5777 49.572H67.4222C70.0315 49.572 72.2673 51.17 73.2049 53.4407Z" fill="black"/>
</svg>
