<svg width="100" height="100" viewBox="0 0 100 100" fill="none" xmlns="http://www.w3.org/2000/svg">
<path d="M92.8253 31.419C91.2816 35.5578 89.1881 39.851 88.3053 40.7145C85.7294 42.205 80.5872 38.785 71.3496 38.785C69.2319 38.785 63.7665 33.6524 61.7743 31.8049C59.0747 29.2482 56.2321 26.8469 53.2602 24.6125L50.4817 28.515L64.2682 45.3695V62.0069H78.9567V46.0882C81.1948 46.7615 83.5135 47.1298 85.85 47.1832C87.8553 47.2616 89.8419 46.7717 91.5807 45.7699C94.0795 44.1925 96.6988 38.2399 98.4595 33.527L92.8253 31.419Z" fill="#68E1FD"/>
<path d="M78.9567 62.4989H64.2682C64.1403 62.4989 64.0176 62.448 63.9271 62.3576C63.8366 62.2671 63.7858 62.1444 63.7858 62.0165V45.5528L50.1103 28.8285C50.0465 28.7446 50.012 28.6421 50.012 28.5367C50.012 28.4313 50.0465 28.3288 50.1103 28.2449L52.884 24.3424C52.9589 24.2391 53.0716 24.1698 53.1975 24.1494C53.2602 24.1386 53.3245 24.1402 53.3866 24.1543C53.4487 24.1683 53.5074 24.1946 53.5593 24.2314C56.5472 26.4784 59.4044 28.8943 62.1168 31.4672L62.3242 31.6601C64.1042 33.3099 69.5117 38.3218 71.3689 38.3218C75.1583 38.3722 78.9263 38.8989 82.5843 39.8896C85.0927 40.4974 86.9257 40.9412 88.0304 40.372C88.8022 39.5423 90.8041 35.5481 92.3718 31.2935C92.3938 31.2339 92.4274 31.1791 92.4706 31.1325C92.5139 31.0859 92.5659 31.0482 92.6237 31.0218C92.6816 30.9953 92.7441 30.9806 92.8076 30.9784C92.8712 30.9762 92.9346 30.9865 92.9941 31.0089L98.6476 33.1169C98.7073 33.1389 98.762 33.1725 98.8086 33.2158C98.8553 33.259 98.8929 33.311 98.9194 33.3689C98.9458 33.4267 98.9606 33.4892 98.9628 33.5528C98.965 33.6163 98.9546 33.6797 98.9322 33.7392C96.337 40.6952 93.9589 44.8967 91.8605 46.2233C89.053 47.9984 84.7357 48.1528 79.4391 46.7732V62.0599C79.4283 62.1802 79.3727 62.292 79.2834 62.3733C79.1941 62.4545 79.0775 62.4994 78.9567 62.4989ZM64.7506 61.5341H78.4744V46.0978C78.4751 46.0238 78.4929 45.9509 78.5264 45.8848C78.5598 45.8187 78.6081 45.7612 78.6673 45.7168C78.7268 45.671 78.7962 45.6398 78.8699 45.6255C78.9436 45.6113 79.0196 45.6145 79.0918 45.6348C84.398 47.135 88.6768 47.0481 91.3443 45.3646C93.1629 44.2117 95.4687 40.1163 97.8565 33.7874L93.0857 32.0412C91.682 35.7121 89.6174 40.0922 88.6237 41.0618C88.5947 41.0898 88.5623 41.1141 88.5272 41.1341C87.0801 41.9638 85.0878 41.4814 82.319 40.8061C78.7361 39.8294 75.0436 39.3123 71.3303 39.2673C69.3622 39.2673 65.3198 35.77 61.6296 32.3499L61.427 32.157C57.3219 28.3558 54.3649 26.0693 53.347 25.3023L51.0702 28.5054L64.6252 45.0752C64.6943 45.1614 64.7317 45.2686 64.7313 45.3791L64.7506 61.5341Z" fill="#093F68"/>
<path d="M71.581 49.0935L70.2014 39.47H73.1825L71.581 49.0935Z" fill="white"/>
<path d="M71.5811 49.5758C71.464 49.577 71.3506 49.5355 71.2618 49.4592C71.1731 49.3829 71.1151 49.2769 71.0987 49.161L69.7191 39.5374C69.7086 39.4683 69.7133 39.3977 69.7328 39.3306C69.7522 39.2634 69.7861 39.2013 69.832 39.1485C69.8779 39.0958 69.9347 39.0536 69.9985 39.025C70.0623 38.9963 70.1315 38.9819 70.2015 38.9827H73.1826C73.2526 38.9833 73.3217 38.9991 73.385 39.0291C73.4484 39.0591 73.5044 39.1025 73.5492 39.1564C73.595 39.2095 73.6286 39.272 73.6478 39.3395C73.667 39.407 73.6712 39.4778 73.6602 39.5471L72.0538 49.1947C72.0306 49.3028 71.971 49.3996 71.8849 49.469C71.7989 49.5384 71.6916 49.5761 71.5811 49.5758ZM70.7562 39.9282L71.6149 45.9242L72.6134 39.9282H70.7562Z" fill="#093F68"/>
<path d="M70.8674 14.7235C71.2344 14.6657 71.6054 14.6366 71.9769 14.6367C73.6894 14.6367 75.4404 14.5933 77.0033 15.3603C78.5877 16.1395 79.9235 17.3449 80.8608 18.8411C81.7981 20.3374 82.2998 22.0653 82.3095 23.8309L81.9477 30.8496H61.3934C61.3549 30.4119 61.3842 29.971 61.4802 29.5423C61.4679 29.0823 61.3999 28.6256 61.2776 28.182C61.0333 27.0378 60.8944 25.8736 60.8628 24.704C60.8709 22.861 61.255 21.039 61.9916 19.3496C62.4064 18.3366 62.8984 17.285 63.7957 16.6482C64.6929 16.0115 66.1159 15.997 66.7527 16.8894C67.8441 15.7285 69.2926 14.9661 70.8674 14.7235Z" fill="#725858"/>
<path d="M81.933 31.3322H62.2759C61.1278 31.3322 60.93 31.3322 60.9156 30.9173C60.857 30.5828 60.8668 30.2398 60.9445 29.9092C60.9711 29.7803 60.9888 29.6497 60.9976 29.5184C60.9953 29.2037 60.9515 28.8907 60.8673 28.5874C60.8673 28.4861 60.8239 28.3848 60.8046 28.2787C60.5541 27.1043 60.412 25.9094 60.3801 24.7091C60.3857 22.8016 60.7813 20.9154 61.5427 19.1665C61.972 18.1342 62.5074 16.9668 63.5156 16.2722C63.9856 15.9331 64.5479 15.7458 65.1274 15.7355C65.7068 15.7252 66.2755 15.8922 66.7572 16.2143C67.8812 15.1838 69.287 14.512 70.7948 14.2848C71.1857 14.2231 71.5809 14.1925 71.9766 14.1931H72.2853C73.9351 14.1931 75.662 14.1931 77.2153 14.9649C78.8795 15.7842 80.282 17.0518 81.2646 18.6251C82.2473 20.1984 82.7711 22.0148 82.7772 23.8697C82.7772 23.8697 82.7772 23.8697 82.4154 30.9173C82.399 31.0332 82.341 31.1392 82.2523 31.2156C82.1635 31.2919 82.05 31.3333 81.933 31.3322ZM61.8514 30.3674H81.4747C81.5567 28.819 81.8124 23.8697 81.8124 23.807C81.803 22.1361 81.3281 20.5008 80.4412 19.0846C79.5542 17.6685 78.2901 16.5276 76.7908 15.7898C75.4208 15.1241 73.8965 15.1193 72.2853 15.1193H71.9766C71.6309 15.1184 71.2856 15.1458 70.9443 15.2013C69.4756 15.423 68.1245 16.1334 67.1094 17.2177C67.0594 17.269 66.9993 17.3092 66.9328 17.3358C66.8663 17.3624 66.795 17.3747 66.7235 17.372C66.6519 17.3673 66.5823 17.3466 66.5197 17.3116C66.4571 17.2765 66.4031 17.228 66.3617 17.1694C65.8793 16.5086 64.765 16.5568 64.0752 17.044C63.2744 17.6084 62.8258 18.5828 62.4351 19.5331C61.7246 21.1633 61.3536 22.9211 61.3449 24.6994C61.3763 25.835 61.512 26.9653 61.7501 28.0761C61.7501 28.1726 61.7887 28.2642 61.8128 28.3607C61.9159 28.7477 61.9662 29.1469 61.9623 29.5474C61.9496 29.719 61.9271 29.8897 61.8948 30.0587C61.8803 30.1696 61.861 30.2709 61.8514 30.3674Z" fill="#093F68"/>
<path d="M70.2014 37.7527H73.1825V39.47C73.1825 39.8052 73.0494 40.1266 72.8124 40.3636C72.5754 40.6007 72.2539 40.7338 71.9187 40.7338H71.4701C71.1349 40.7338 70.8134 40.6007 70.5764 40.3636C70.3394 40.1266 70.2062 39.8052 70.2062 39.47V37.7527H70.2014Z" fill="#FFC9B0"/>
<path d="M71.9189 41.2162H71.4655C71.0019 41.2149 70.5577 41.0298 70.2304 40.7016C69.9031 40.3733 69.7192 39.9287 69.7192 39.4651V37.7526C69.7192 37.6247 69.7701 37.502 69.8605 37.4115C69.951 37.3211 70.0737 37.2703 70.2016 37.2703H73.1828C73.3107 37.2703 73.4334 37.3211 73.5238 37.4115C73.6143 37.502 73.6651 37.6247 73.6651 37.7526V39.4651C73.6651 39.9287 73.4813 40.3733 73.154 40.7016C72.8266 41.0298 72.3825 41.2149 71.9189 41.2162ZM70.684 38.235V39.4651C70.684 39.6728 70.7662 39.8721 70.9126 40.0194C71.059 40.1667 71.2578 40.2501 71.4655 40.2514H71.9189C72.1266 40.2501 72.3254 40.1667 72.4718 40.0194C72.6182 39.8721 72.7004 39.6728 72.7004 39.4651V38.235H70.684Z" fill="#093F68"/>
<path d="M63.6602 32.5043C65.1681 32.5043 66.3905 31.3856 66.3905 30.0056C66.3905 28.6256 65.1681 27.5068 63.6602 27.5068C62.1523 27.5068 60.9299 28.6256 60.9299 30.0056C60.9299 31.3856 62.1523 32.5043 63.6602 32.5043Z" fill="#FFC9B0"/>
<path d="M63.6604 32.9818C63.0811 32.9377 62.5273 32.7256 62.0668 32.3714C61.6062 32.0173 61.259 31.5365 61.0677 30.9879C60.8764 30.4394 60.8492 29.8469 60.9896 29.2832C61.1299 28.7195 61.4316 28.2089 61.8578 27.8141C62.284 27.4193 62.8161 27.1573 63.3889 27.0604C63.9617 26.9635 64.5503 27.0357 65.0827 27.2684C65.615 27.501 66.0679 27.8838 66.3859 28.37C66.7039 28.8562 66.8732 29.4246 66.873 30.0055C66.8404 30.8258 66.4839 31.5997 65.8817 32.1575C65.2795 32.7154 64.4807 33.0118 63.6604 32.9818ZM63.6604 27.9892C63.2716 28.032 62.9035 28.1865 62.6006 28.4339C62.2977 28.6813 62.0728 29.0112 61.9533 29.3836C61.8337 29.756 61.8244 30.1551 61.9267 30.5326C62.0289 30.9101 62.2383 31.25 62.5294 31.5112C62.8206 31.7723 63.1811 31.9436 63.5675 32.0044C63.9539 32.0652 64.3496 32.0128 64.7069 31.8536C65.0642 31.6944 65.3677 31.4352 65.5809 31.1072C65.7941 30.7793 65.9078 30.3967 65.9083 30.0055C65.8759 29.4407 65.6213 28.9116 65.2001 28.5338C64.7789 28.156 64.2254 27.9602 63.6604 27.9892Z" fill="#093F68"/>
<path d="M79.5692 32.5043C81.0771 32.5043 82.2994 31.3856 82.2994 30.0056C82.2994 28.6256 81.0771 27.5068 79.5692 27.5068C78.0613 27.5068 76.8389 28.6256 76.8389 30.0056C76.8389 31.3856 78.0613 32.5043 79.5692 32.5043Z" fill="#FFC9B0"/>
<path d="M79.579 32.9817C78.9994 32.9385 78.4451 32.7271 77.9839 32.3735C77.5227 32.0198 77.1748 31.5393 76.9827 30.9908C76.7906 30.4423 76.7628 29.8496 76.9027 29.2855C77.0425 28.7214 77.344 28.2104 77.77 27.8151C78.196 27.4198 78.7281 27.1575 79.3011 27.0602C79.8741 26.9629 80.463 27.035 80.9956 27.2675C81.5282 27.5 81.9814 27.883 82.2996 28.3693C82.6178 28.8556 82.7871 29.4242 82.7868 30.0054C82.7529 30.8244 82.3967 31.5967 81.7959 32.1542C81.195 32.7117 80.3982 33.0091 79.579 32.9817ZM79.579 27.989C79.1899 28.031 78.8212 28.1847 78.5176 28.4317C78.214 28.6786 77.9884 29.0082 77.8681 29.3806C77.7479 29.7531 77.738 30.1524 77.8398 30.5303C77.9415 30.9082 78.1506 31.2485 78.4416 31.5101C78.7327 31.7718 79.0933 31.9435 79.4799 32.0046C79.8664 32.0657 80.2624 32.0135 80.62 31.8543C80.9775 31.6952 81.2813 31.4359 81.4946 31.1078C81.708 30.7796 81.8217 30.3968 81.8221 30.0054C81.7897 29.4414 81.5358 28.9131 81.1156 28.5354C80.6955 28.1578 80.1432 27.9614 79.579 27.989Z" fill="#093F68"/>
<path d="M71.6919 38.1434C69.3737 38.1434 67.1505 37.2225 65.5113 35.5833C63.8721 33.9441 62.9512 31.7209 62.9512 29.4027V24.6994C62.9512 24.6994 65.1508 23.4452 65.8069 21.4626C65.8069 21.4626 69.1836 25.2831 72.401 25.0275C75.0962 24.797 77.7772 24.4234 80.4327 23.9083V29.4027C80.4327 31.7209 79.5118 33.9441 77.8726 35.5833C76.2334 37.2225 74.0101 38.1434 71.6919 38.1434Z" fill="#FFC9B0"/>
<path d="M71.6919 38.6257C69.2469 38.6219 66.9032 37.6489 65.1744 35.9201C63.4455 34.1912 62.4726 31.8475 62.4688 29.4026V24.6993C62.4689 24.6139 62.4918 24.5299 62.535 24.4562C62.5782 24.3825 62.6403 24.3215 62.7148 24.2797C62.7148 24.2797 64.7601 23.0882 65.3486 21.313C65.3751 21.2323 65.4224 21.1599 65.4858 21.1034C65.5492 21.0468 65.6264 21.008 65.7097 20.9909C65.7929 20.9737 65.8792 20.9789 65.9598 21.0058C66.0403 21.0327 66.1124 21.0805 66.1686 21.1442C66.2024 21.1828 69.4151 24.7717 72.3624 24.5208C75.0364 24.2918 77.6965 23.9215 80.3314 23.4114C80.4018 23.3962 80.4748 23.3969 80.5449 23.4136C80.6151 23.4303 80.6805 23.4625 80.7366 23.5078C80.7926 23.5532 80.8376 23.6106 80.8685 23.6757C80.8994 23.7408 80.9153 23.812 80.9151 23.8841V29.3784C80.9176 31.8276 79.9475 34.1775 78.218 35.9116C76.4884 37.6456 74.141 38.6219 71.6919 38.6257ZM63.4335 24.9646V29.4026C63.4335 30.4871 63.6471 31.561 64.0621 32.5629C64.4772 33.5649 65.0855 34.4753 65.8523 35.2421C66.6192 36.009 67.5296 36.6173 68.5316 37.0323C69.5335 37.4473 70.6074 37.661 71.6919 37.661C72.7764 37.661 73.8503 37.4473 74.8523 37.0323C75.8542 36.6173 76.7646 36.009 77.5315 35.2421C78.2983 34.4753 78.9067 33.5649 79.3217 32.5629C79.7367 31.561 79.9503 30.4871 79.9503 29.4026V24.4919C78.7106 24.7186 75.6667 25.2492 72.4396 25.5049C69.7431 25.7268 67.061 23.4114 65.9612 22.326C65.344 23.3967 64.4767 24.302 63.4335 24.9646Z" fill="#093F68"/>
<path d="M71.6487 31.3369C71.3722 31.3355 71.0963 31.3113 70.8238 31.2645C70.7605 31.2538 70.6998 31.2306 70.6454 31.1964C70.591 31.1622 70.5439 31.1177 70.5067 31.0653C70.4316 30.9594 70.4017 30.8281 70.4234 30.7002C70.4452 30.5722 70.5169 30.4582 70.6227 30.3831C70.7285 30.308 70.8599 30.278 70.9878 30.2998C71.2905 30.3506 71.5982 30.3652 71.9043 30.3432C71.7548 29.7827 71.5394 29.2419 71.2628 28.732C71.2336 28.6756 71.2159 28.6141 71.2105 28.5508C71.2052 28.4876 71.2123 28.4239 71.2316 28.3635C71.2509 28.303 71.2819 28.2469 71.3228 28.1984C71.3637 28.1499 71.4138 28.11 71.4702 28.0808C71.5266 28.0517 71.5881 28.0339 71.6514 28.0286C71.7146 28.0232 71.7783 28.0304 71.8388 28.0497C71.8992 28.0689 71.9553 28.0999 72.0038 28.1408C72.0523 28.1818 72.0923 28.2319 72.1214 28.2882C72.5748 29.1565 73.0862 30.3094 72.8112 30.8642C72.7704 30.9576 72.7087 31.0405 72.631 31.1066C72.5532 31.1726 72.4614 31.22 72.3626 31.2452C72.1292 31.3046 71.8895 31.3354 71.6487 31.3369Z" fill="#093F68"/>
<path d="M64.3066 88.3112H57.8765L64.2729 56.855H70.703L64.3066 88.3112Z" fill="#093F68"/>
<path d="M64.3067 88.7936H57.8717C57.7996 88.7939 57.7284 88.778 57.6633 88.7471C57.5982 88.7162 57.5409 88.6711 57.4955 88.6151C57.4508 88.5596 57.419 88.495 57.4023 88.4258C57.3857 88.3565 57.3845 88.2845 57.399 88.2148L63.7954 56.7586C63.8179 56.648 63.8785 56.5488 63.9667 56.4783C64.0548 56.4078 64.1649 56.3704 64.2778 56.3727H70.7031C70.7743 56.3731 70.8446 56.3894 70.9088 56.4202C70.9731 56.4511 71.0296 56.4958 71.0745 56.5511C71.12 56.6062 71.1527 56.6707 71.1702 56.7399C71.1877 56.8092 71.1896 56.8814 71.1758 56.9515L64.7794 88.4077C64.7572 88.5167 64.698 88.6146 64.6118 88.6849C64.5257 88.7552 64.4179 88.7936 64.3067 88.7936ZM58.465 87.8288H63.9111L70.1146 57.3374H64.6637L58.465 87.8288Z" fill="#093F68"/>
<path d="M78.4264 88.3112H73.4289L73.1829 56.855H78.957L78.4264 88.3112Z" fill="#093F68"/>
<path d="M78.4261 88.7935H73.4286C73.3007 88.7935 73.178 88.7427 73.0875 88.6522C72.997 88.5618 72.9462 88.4391 72.9462 88.3111L72.7002 56.8598C72.6998 56.7963 72.712 56.7334 72.736 56.6746C72.76 56.6158 72.7954 56.5623 72.8401 56.5173C72.8848 56.4717 72.938 56.4354 72.9968 56.4106C73.0556 56.3857 73.1188 56.3728 73.1826 56.3726H78.9712C79.0991 56.3726 79.2218 56.4234 79.3123 56.5138C79.4027 56.6043 79.4536 56.727 79.4536 56.8549L78.9229 88.3063C78.9236 88.3713 78.9112 88.4357 78.8863 88.4958C78.8615 88.5559 78.8247 88.6103 78.7783 88.6558C78.7319 88.7013 78.6768 88.7369 78.6163 88.7606C78.5557 88.7843 78.491 88.7955 78.4261 88.7935ZM73.9062 87.8287H77.9485L78.4647 57.3373H73.6698L73.9062 87.8287Z" fill="#093F68"/>
<path d="M64.5479 56.8069H78.9566V62.6727H64.5479V56.8069Z" fill="#093F68"/>
<path d="M78.9568 63.155H64.5481C64.4201 63.155 64.2974 63.1042 64.207 63.0137C64.1165 62.9232 64.0657 62.8006 64.0657 62.6726V56.8068C64.0657 56.6789 64.1165 56.5562 64.207 56.4657C64.2974 56.3753 64.4201 56.3245 64.5481 56.3245H78.9568C79.0848 56.3245 79.2075 56.3753 79.2979 56.4657C79.3884 56.5562 79.4392 56.6789 79.4392 56.8068V62.6726C79.4392 62.8006 79.3884 62.9232 79.2979 63.0137C79.2075 63.1042 79.0848 63.155 78.9568 63.155ZM65.0304 62.1902H78.4744V57.2892H65.0304V62.1902Z" fill="#093F68"/>
<path d="M64.3066 88.3113L63.4528 92.5466H53.6846L59.0149 88.3113H64.3066Z" fill="#68E1FD"/>
<path d="M63.4529 93.029H53.6847C53.585 93.0284 53.488 92.997 53.4069 92.939C53.3258 92.881 53.2647 92.7994 53.2319 92.7053C53.1991 92.6112 53.1963 92.5092 53.2238 92.4134C53.2514 92.3176 53.3079 92.2327 53.3856 92.1703L58.6918 87.9302C58.7773 87.8638 58.8827 87.8281 58.9909 87.8289H64.2971C64.3688 87.8281 64.4397 87.8432 64.5048 87.8733C64.5699 87.9033 64.6275 87.9475 64.6734 88.0025C64.718 88.058 64.7498 88.1227 64.7665 88.1919C64.7832 88.2611 64.7843 88.3332 64.7698 88.4029L63.9257 92.6286C63.9064 92.7402 63.8485 92.8415 63.7621 92.9147C63.6756 92.9879 63.5662 93.0284 63.4529 93.029ZM55.0691 92.0642H63.0574L63.7182 88.7937H59.179L55.0691 92.0642Z" fill="#093F68"/>
<path d="M73.7375 88.3113V92.5466H82.6954L77.6448 88.3113H73.7375Z" fill="#68E1FD"/>
<path d="M82.6951 93.0289H73.7373C73.6093 93.0289 73.4866 92.9781 73.3962 92.8877C73.3057 92.7972 73.2549 92.6745 73.2549 92.5466V88.3112C73.2549 88.1833 73.3057 88.0606 73.3962 87.9701C73.4866 87.8797 73.6093 87.8289 73.7373 87.8289H77.6494C77.7621 87.8286 77.8713 87.8679 77.9581 87.9398L83.0135 92.18C83.088 92.2437 83.1412 92.3286 83.1662 92.4234C83.1912 92.5182 83.1867 92.6184 83.1534 92.7106C83.1194 92.8046 83.0571 92.8857 82.975 92.9427C82.8929 92.9998 82.7951 93.0299 82.6951 93.0289ZM74.2196 92.0642H81.3734L77.4709 88.7936H74.2196V92.0642Z" fill="#093F68"/>
<path d="M97.3397 28.4666L95.5367 28.7693C94.6644 28.9157 94.076 29.7415 94.2224 30.6138L94.5251 32.4168C94.6716 33.2891 95.4974 33.8775 96.3697 33.7311L98.1727 33.4284C99.045 33.282 99.6334 32.4561 99.4869 31.5838L99.1842 29.7808C99.0378 28.9086 98.212 28.3201 97.3397 28.4666Z" fill="#FFC9B0"/>
<path d="M96.1005 34.2311C95.6078 34.2308 95.1313 34.0556 94.7558 33.7366C94.3804 33.4177 94.1304 32.9758 94.0504 32.4897L93.7464 30.6953C93.6542 30.1484 93.7827 29.5873 94.1038 29.1351C94.4249 28.6829 94.9122 28.3766 95.4589 28.2833L97.2582 27.9843C97.5291 27.9373 97.8067 27.9444 98.0748 28.0051C98.343 28.0659 98.5965 28.1792 98.8207 28.3383C99.0449 28.4975 99.2354 28.6995 99.3811 28.9326C99.5269 29.1658 99.6251 29.4255 99.6701 29.6967L99.9692 31.496C100.016 31.7656 100.009 32.042 99.9478 32.3087C99.8865 32.5755 99.7724 32.8273 99.6122 33.0493C99.4539 33.2726 99.2531 33.4625 99.0213 33.6081C98.7896 33.7538 98.5314 33.8524 98.2616 33.8983L96.4623 34.1974C96.3428 34.2187 96.2218 34.23 96.1005 34.2311ZM97.6055 28.9249C97.5429 28.9201 97.48 28.9201 97.4174 28.9249L95.6181 29.2288C95.3256 29.2785 95.0647 29.4417 94.8921 29.683C94.7195 29.9242 94.6493 30.224 94.6967 30.5168L95.0151 32.3305C95.0647 32.624 95.2287 32.8858 95.471 33.0585C95.7134 33.2312 96.0143 33.3007 96.3079 33.2519L98.1072 32.948C98.3994 32.8984 98.6599 32.7349 98.8318 32.4935C99.0036 32.252 99.0726 31.9523 99.0237 31.66L98.7246 29.8607C98.6803 29.5996 98.5452 29.3625 98.3431 29.1913C98.1409 29.0201 97.8849 28.9257 97.62 28.9249H97.6055Z" fill="#093F68"/>
<path d="M94.2002 30.0749C94.0546 29.5707 93.5288 29.2797 93.0259 29.425C92.5229 29.5702 92.2333 30.0967 92.3789 30.601L92.7162 31.7688C92.8619 32.2731 93.3876 32.5641 93.8906 32.4188C94.3935 32.2735 94.6832 31.747 94.5375 31.2428L94.2002 30.0749Z" fill="#FFC9B0"/>
<path d="M93.6263 32.9288C93.3848 32.9299 93.1472 32.8684 92.9365 32.7504C92.6052 32.5664 92.3592 32.2599 92.2515 31.8965L91.9139 30.7292C91.827 30.54 91.7821 30.3343 91.782 30.1262C91.7819 29.9181 91.8267 29.7124 91.9134 29.5231C92 29.3339 92.1265 29.1656 92.2841 29.0296C92.4417 28.8937 92.6268 28.7934 92.8267 28.7355C93.0267 28.6777 93.2367 28.6636 93.4426 28.6943C93.6484 28.725 93.8453 28.7997 94.0196 28.9134C94.1939 29.0271 94.3417 29.1771 94.4528 29.3531C94.5639 29.5291 94.6358 29.727 94.6634 29.9332L95.0011 31.1006C95.1055 31.4658 95.0622 31.8573 94.8805 32.1908C94.791 32.3556 94.6694 32.5007 94.5227 32.6176C94.376 32.7344 94.2073 32.8206 94.0267 32.871C93.8966 32.9089 93.7618 32.9284 93.6263 32.9288ZM93.2886 29.8609C93.247 29.8559 93.2049 29.8559 93.1632 29.8609C93.0456 29.8978 92.9465 29.9783 92.8864 30.086C92.8263 30.1937 92.8097 30.3202 92.84 30.4397L93.1777 31.6071C93.2156 31.7239 93.2965 31.8218 93.4041 31.8809C93.5116 31.9401 93.6377 31.956 93.7566 31.9255C93.8723 31.8876 93.9694 31.8074 94.0284 31.701C94.0875 31.5945 94.1041 31.4696 94.0749 31.3514L93.7373 30.1793C93.7038 30.0868 93.643 30.0068 93.5628 29.9499C93.4826 29.893 93.387 29.8619 93.2886 29.8609Z" fill="#093F68"/>
<path d="M64.268 49.5758C64.1401 49.5758 64.0174 49.5249 63.9269 49.4345C63.8365 49.344 63.7856 49.2213 63.7856 49.0934V43.6955C63.7856 43.5676 63.8365 43.4449 63.9269 43.3544C64.0174 43.264 64.1401 43.2131 64.268 43.2131C64.396 43.2131 64.5187 43.264 64.6091 43.3544C64.6996 43.4449 64.7504 43.5676 64.7504 43.6955V49.0934C64.7504 49.2213 64.6996 49.344 64.6091 49.4345C64.5187 49.5249 64.396 49.5758 64.268 49.5758Z" fill="#093F68"/>
<path d="M78.9567 46.5802C78.8288 46.5802 78.7061 46.5294 78.6157 46.4389C78.5252 46.3485 78.4744 46.2258 78.4744 46.0978V42.562C78.4744 42.434 78.5252 42.3113 78.6157 42.2209C78.7061 42.1304 78.8288 42.0796 78.9567 42.0796C79.0847 42.0796 79.2074 42.1304 79.2979 42.2209C79.3883 42.3113 79.4391 42.434 79.4391 42.562V46.0978C79.4391 46.2258 79.3883 46.3485 79.2979 46.4389C79.2074 46.5294 79.0847 46.5802 78.9567 46.5802Z" fill="#093F68"/>
<path d="M71.306 35.1237C70.5801 35.1182 69.8632 34.9638 69.1994 34.67C68.5356 34.3763 67.9392 33.9495 67.4469 33.4161C67.3737 33.3163 67.3417 33.1921 67.3574 33.0694C67.3732 32.9466 67.4356 32.8346 67.5316 32.7565C67.6277 32.6784 67.7501 32.6402 67.8735 32.6499C67.9969 32.6595 68.1118 32.7162 68.1946 32.8083C68.3056 32.9433 70.7898 35.8473 75.0927 32.7215C75.1965 32.6527 75.3229 32.6268 75.4454 32.6492C75.5679 32.6715 75.677 32.7404 75.7499 32.8413C75.8228 32.9423 75.8539 33.0675 75.8366 33.1908C75.8193 33.3141 75.7549 33.4259 75.6571 33.5029C73.9687 34.7426 72.5119 35.1237 71.306 35.1237Z" fill="#093F68"/>
<path d="M69.2319 28.3511C69.104 28.3511 68.9813 28.3003 68.8908 28.2098C68.8003 28.1194 68.7495 27.9967 68.7495 27.8687C68.7495 27.65 68.6626 27.4402 68.5079 27.2855C68.3532 27.1308 68.1434 27.0439 67.9246 27.0439C67.7059 27.0439 67.4961 27.1308 67.3414 27.2855C67.1867 27.4402 67.0998 27.65 67.0998 27.8687C67.0998 27.9967 67.049 28.1194 66.9585 28.2098C66.868 28.3003 66.7453 28.3511 66.6174 28.3511C66.4895 28.3511 66.3668 28.3003 66.2763 28.2098C66.1858 28.1194 66.135 27.9967 66.135 27.8687C66.135 27.3941 66.3236 26.9389 66.6592 26.6033C66.9948 26.2677 67.45 26.0791 67.9246 26.0791C68.3993 26.0791 68.8545 26.2677 69.1901 26.6033C69.5257 26.9389 69.7143 27.3941 69.7143 27.8687C69.7143 27.9967 69.6635 28.1194 69.573 28.2098C69.4825 28.3003 69.3598 28.3511 69.2319 28.3511Z" fill="#093F68"/>
<path d="M76.6848 28.3511C76.5569 28.3511 76.4342 28.3003 76.3437 28.2098C76.2532 28.1194 76.2024 27.9967 76.2024 27.8687C76.2024 27.65 76.1155 27.4402 75.9608 27.2855C75.8061 27.1308 75.5963 27.0439 75.3775 27.0439C75.1588 27.0439 74.9489 27.1308 74.7943 27.2855C74.6396 27.4402 74.5527 27.65 74.5527 27.8687C74.5527 27.9967 74.5018 28.1194 74.4114 28.2098C74.3209 28.3003 74.1982 28.3511 74.0703 28.3511C73.9423 28.3511 73.8196 28.3003 73.7292 28.2098C73.6387 28.1194 73.5879 27.9967 73.5879 27.8687C73.5879 27.3941 73.7764 26.9389 74.1121 26.6033C74.4477 26.2677 74.9029 26.0791 75.3775 26.0791C75.8522 26.0791 76.3074 26.2677 76.643 26.6033C76.9786 26.9389 77.1672 27.3941 77.1672 27.8687C77.1672 27.9967 77.1163 28.1194 77.0259 28.2098C76.9354 28.3003 76.8127 28.3511 76.6848 28.3511Z" fill="#093F68"/>
<path d="M42.918 24.6124C42.918 24.6124 44.7414 23.474 45.0935 22.5237C45.8597 20.4531 46.4692 18.3278 46.9169 16.1659C46.9989 15.7558 47.2884 15.2011 47.6791 15.3796C47.9203 15.4761 47.983 15.78 48.0119 16.0405C48.2483 18.1388 47.8865 23.1797 47.8383 23.4691C47.79 23.7586 46.5937 27.2703 45.6917 28.5149C44.7687 27.2189 43.8441 25.918 42.918 24.6124Z" fill="#FFC9B0"/>
<path d="M45.6868 29.0072C45.6103 29.0068 45.5349 28.9883 45.467 28.9531C45.3991 28.9178 45.3405 28.8669 45.2961 28.8046L42.5224 24.9021C42.4843 24.849 42.4573 24.7887 42.4432 24.7248C42.4291 24.661 42.4282 24.5949 42.4404 24.5307C42.4534 24.4664 42.4793 24.4055 42.5166 24.3516C42.5539 24.2976 42.6019 24.2519 42.6575 24.2171C43.3087 23.8071 44.423 22.9437 44.6352 22.3696C45.3937 20.3277 45.9968 18.2314 46.4393 16.0986C46.469 15.8715 46.5462 15.6531 46.6659 15.4578C46.7855 15.2625 46.9451 15.0946 47.134 14.965C47.2434 14.9059 47.3644 14.8714 47.4885 14.8639C47.6127 14.8564 47.737 14.8761 47.8527 14.9216C48.0432 15.0247 48.2024 15.1772 48.3136 15.3631C48.4248 15.549 48.4839 15.7614 48.4846 15.978C48.7307 18.1632 48.3592 23.2138 48.311 23.5322C48.2531 23.9229 47.023 27.4829 46.0824 28.7901C46.0391 28.8558 45.9805 28.9099 45.9115 28.9478C45.8426 28.9856 45.7655 29.006 45.6868 29.0072ZM43.5933 24.7478L45.6579 27.6421C46.3399 26.2724 46.9094 24.8495 47.3607 23.3874C47.4041 23.0835 47.7514 18.0812 47.5295 16.0938C47.5295 16.0311 47.5295 15.978 47.5054 15.9395C47.4456 16.0405 47.4047 16.1517 47.3848 16.2675C46.9304 18.4493 46.3129 20.5939 45.5373 22.6832C45.2478 23.4936 44.2011 24.3233 43.5933 24.7478Z" fill="#093F68"/>
<path d="M53.2601 24.6124C53.2601 24.6124 51.4367 23.474 51.0846 22.5237C50.3162 20.4538 49.7066 18.3284 49.2612 16.1659C49.1743 15.7558 48.8897 15.2011 48.499 15.3796C48.2578 15.4761 48.1951 15.78 48.1662 16.0405C47.9298 18.1388 48.2916 23.1797 48.335 23.4691C48.3784 23.7586 49.5844 27.2703 50.4816 28.5149L53.2601 24.6124Z" fill="#FFC9B0"/>
<path d="M50.4816 29.0069C50.4051 29.0065 50.3298 28.988 50.2618 28.9527C50.1939 28.9175 50.1353 28.8666 50.0909 28.8043C49.1262 27.5019 47.9202 23.9419 47.8575 23.5511C47.8141 23.2376 47.4426 18.1726 47.6838 15.997C47.6903 15.7843 47.7525 15.5769 47.8643 15.3958C47.976 15.2146 48.1333 15.066 48.3206 14.9647C48.4354 14.9189 48.559 14.8991 48.6824 14.9066C48.8058 14.9141 48.926 14.9488 49.0345 15.0081C49.2197 15.1332 49.3774 15.2949 49.4977 15.4832C49.618 15.6715 49.6984 15.8825 49.734 16.1031C50.1743 18.2365 50.7774 20.3329 51.5381 22.3741C51.7503 22.9482 52.8646 23.8213 53.5158 24.2216C53.5714 24.2564 53.6194 24.3021 53.6567 24.3561C53.694 24.41 53.7199 24.4709 53.7329 24.5352C53.7451 24.5994 53.7442 24.6655 53.7301 24.7293C53.716 24.7932 53.689 24.8535 53.6509 24.9066L50.8772 28.8091C50.8318 28.8712 50.7722 28.9216 50.7034 28.956C50.6346 28.9904 50.5586 29.0078 50.4816 29.0069ZM48.6679 15.9295V16.0838C48.4412 18.0906 48.7933 23.0736 48.8367 23.3871C49.2902 24.8446 49.858 26.264 50.5347 27.6321L52.5993 24.7378C51.9963 24.3133 50.9496 23.4836 50.6698 22.6925C49.8931 20.6007 49.2771 18.4527 48.8271 16.2672C48.7919 16.147 48.7382 16.0331 48.6679 15.9295Z" fill="#093F68"/>
<path d="M16.4736 88.8272L10.9841 88.7259L16.8354 59.783L22.3201 59.8891L16.4736 88.8272Z" fill="#FFC9B0"/>
<path d="M16.4688 89.3099L10.9792 89.2086C10.9088 89.2074 10.8395 89.1908 10.7762 89.16C10.7128 89.1292 10.657 89.0848 10.6126 89.0301C10.568 88.9746 10.5362 88.91 10.5195 88.8408C10.5028 88.7715 10.5017 88.6995 10.5162 88.6298L16.3675 59.6868C16.39 59.5762 16.4506 59.477 16.5388 59.4065C16.6269 59.336 16.737 59.2986 16.8499 59.3009L22.3345 59.4022C22.4054 59.4039 22.4749 59.4213 22.5383 59.453C22.6016 59.4846 22.6573 59.5299 22.7011 59.5855C22.7451 59.6404 22.7765 59.7043 22.7932 59.7726C22.8098 59.8409 22.8114 59.9121 22.7976 59.981L16.9463 88.924C16.9239 89.0338 16.864 89.1323 16.7769 89.2027C16.6897 89.2732 16.5808 89.3111 16.4688 89.3099ZM11.5629 88.2535L16.0684 88.3403L21.7219 60.3621L17.2165 60.2801L11.5629 88.2535Z" fill="#093F68"/>
<path d="M31.1333 88.8272L25.6438 88.7259L25.9863 59.783L31.4758 59.8891L31.1333 88.8272Z" fill="#FFC9B0"/>
<path d="M31.1333 89.3098L25.6438 89.2085C25.5158 89.2085 25.3931 89.1577 25.3027 89.0672C25.2122 88.9767 25.1614 88.854 25.1614 88.7261L25.5039 59.7831C25.5041 59.7193 25.5171 59.6562 25.5419 59.5974C25.5667 59.5386 25.603 59.4853 25.6486 59.4406C25.6946 59.3962 25.749 59.3614 25.8087 59.3382C25.8683 59.315 25.9319 59.3039 25.9959 59.3056L31.4806 59.4069C31.6085 59.4069 31.7312 59.4577 31.8217 59.5482C31.9121 59.6386 31.963 59.7613 31.963 59.8893L31.6205 88.8322C31.619 88.8956 31.605 88.958 31.5793 89.0159C31.5536 89.0739 31.5168 89.1262 31.4709 89.1699C31.3811 89.259 31.2598 89.3093 31.1333 89.3098ZM26.131 88.2534L30.6557 88.3354L30.9837 60.3572L26.4638 60.2703L26.131 88.2534Z" fill="#093F68"/>
<path d="M32.2718 54.8481L32.7832 75.745L12.7739 75.3398L16.7922 54.8481H32.2718Z" fill="#093F68"/>
<path d="M32.7878 76.2276L12.7786 75.8224C12.7089 75.8206 12.6406 75.8036 12.5781 75.7728C12.5157 75.742 12.4606 75.6981 12.4168 75.6439C12.372 75.5894 12.3397 75.5258 12.3222 75.4574C12.3047 75.3891 12.3024 75.3177 12.3155 75.2484L16.3337 54.7568C16.3553 54.6453 16.4155 54.545 16.5037 54.4735C16.592 54.402 16.7026 54.364 16.8161 54.366H32.2958C32.4237 54.366 32.5464 54.4169 32.6369 54.5073C32.7273 54.5978 32.7782 54.7205 32.7782 54.8484L33.2702 75.7453C33.2718 75.8104 33.2603 75.8751 33.2363 75.9356C33.2122 75.9962 33.1762 76.0512 33.1303 76.0974C33.0377 76.1842 32.9147 76.231 32.7878 76.2276ZM13.3622 74.8673L32.3054 75.2629L31.823 55.3405H17.2068L13.3622 74.8673Z" fill="#093F68"/>
<path d="M21.0033 13.8265C21.0033 13.8265 18.4804 14.169 18.1958 14.3089C17.549 14.5667 16.9747 14.9781 16.5225 15.5076C16.0704 16.0371 15.7539 16.6687 15.6006 17.3479L12.3686 30.6954C11.9317 32.149 11.7378 33.6648 11.7946 35.1816C12.1371 38.8477 15.4896 41.7082 19.0882 42.4848C22.6868 43.2615 26.4397 42.3546 29.8791 41.0377C32.0305 40.2273 34.3267 39.1082 35.6677 37.1449C37.2933 34.7329 36.1067 32.678 36.208 30.0345C36.3575 26.0066 36.2948 20.3869 34.2109 16.7063C31.4662 11.9211 24.1629 9.7214 21.0033 13.8265Z" fill="#725858"/>
<path d="M21.8714 43.2518C20.8988 43.2552 19.9285 43.1549 18.9771 42.9528C15.4509 42.1906 11.6883 39.2866 11.3072 35.2346C11.1577 33.6331 11.5484 32.0171 11.8909 30.5941L15.1229 17.2466C15.2914 16.4952 15.6391 15.7957 16.1363 15.2078C16.6336 14.6198 17.2656 14.1608 17.9786 13.8699C17.9786 13.8699 19.8502 13.4647 20.733 13.3875C22.0209 11.8294 23.9746 11.0576 26.2611 11.2216C27.9692 11.3784 29.6159 11.9375 31.0664 12.8531C32.5169 13.7687 33.73 15.0147 34.6063 16.4892C36.7626 20.2759 36.8108 26.0549 36.6613 30.0731C36.6526 30.8531 36.7091 31.6325 36.8301 32.403C37.0327 34.0046 37.2449 35.6591 36.0438 37.4343C34.5967 39.5809 32.0738 40.7386 30.043 41.5104C26.9364 42.673 24.2688 43.2518 21.8714 43.2518ZM21.0272 14.3089C20.7571 14.3378 18.6684 14.6417 18.3886 14.743C17.8103 14.9731 17.2968 15.3407 16.8925 15.8139C16.4882 16.2871 16.2053 16.8517 16.0683 17.4588L12.8364 30.8064C12.4939 32.2246 12.1417 33.7006 12.2768 35.1478C12.6145 38.7512 16.0105 41.3368 19.1894 42.0218C22.1367 42.6633 25.4603 42.2099 29.7101 40.6084C31.6059 39.8896 33.9551 38.8187 35.2575 36.894C36.2512 35.4228 36.0824 34.0769 35.8798 32.5236C35.7526 31.7019 35.6961 30.8708 35.711 30.0394C35.8557 26.1369 35.8123 20.5412 33.7814 16.9668C32.9872 15.6277 31.8866 14.4961 30.5701 13.6651C29.2535 12.8341 27.7585 12.3273 26.208 12.1864C24.1772 12.0417 22.4647 12.7363 21.3842 14.1159C21.3423 14.1721 21.2886 14.2184 21.227 14.2517C21.1653 14.2851 21.0972 14.3046 21.0272 14.3089Z" fill="#093F68"/>
<path d="M18.5092 38.2976L18.0269 38.7173C18.1784 38.5671 18.3395 38.4269 18.5092 38.2976Z" fill="#68E1FD"/>
<path d="M18.027 39.1998C17.9306 39.2004 17.8363 39.1721 17.7561 39.1185C17.6759 39.0649 17.6137 38.9886 17.5773 38.8993C17.541 38.81 17.5322 38.7118 17.5522 38.6175C17.5722 38.5232 17.62 38.437 17.6894 38.3701C17.8571 38.1996 18.0343 38.0385 18.22 37.8877C18.3189 37.8164 18.4411 37.7852 18.5621 37.8004C18.6831 37.8155 18.7939 37.876 18.8721 37.9695C18.9503 38.063 18.9902 38.1827 18.9838 38.3044C18.9774 38.4262 18.9251 38.541 18.8374 38.6258C18.7554 38.703 18.577 38.8573 18.3551 39.0647C18.2669 39.1498 18.1496 39.1981 18.027 39.1998Z" fill="#093F68"/>
<path d="M45.6918 28.5246C42.0112 33.6764 37.583 36.7251 32.2768 43.4784V54.8675H16.7923L16.4112 46.667C16.4112 46.667 8.25892 48.7027 6.35833 48.7027C2.20984 48.7027 1.64062 36.3681 1.64062 36.3681L5.68782 35.6156C5.68782 35.6156 6.99025 40.589 7.75724 41.52C7.75724 41.52 18.4275 38.4086 18.5095 38.3362C18.5916 38.2639 20.5211 37.2268 21.6692 37.2268H26.85C27.6218 37.2268 42.9133 24.6848 42.9133 24.6848L45.6918 28.5246Z" fill="#68E1FD"/>
<path d="M32.2765 55.3305H16.792C16.6641 55.3305 16.5414 55.2797 16.451 55.1893C16.3605 55.0988 16.3097 54.9761 16.3097 54.8482L15.9527 47.212C14.0473 47.6944 8.01751 49.1416 6.35811 49.1416C1.8816 49.1416 1.21591 37.656 1.15802 36.344C1.15616 36.2297 1.1949 36.1186 1.26733 36.0302C1.33977 35.9419 1.4412 35.8821 1.55358 35.8616L5.60077 35.1139C5.72062 35.0916 5.84445 35.1156 5.94736 35.1809C6.05028 35.2462 6.12465 35.3481 6.15551 35.466C6.5993 37.164 7.43382 39.9425 7.96445 40.9266C12.0647 39.7303 17.9691 37.9985 18.3164 37.8635C18.7988 37.5789 20.5209 36.7106 21.6689 36.7106H26.7822C27.8724 36.2282 37.0232 28.8429 42.6044 24.2554C42.6556 24.2131 42.7151 24.1818 42.779 24.1636C42.8429 24.1453 42.9099 24.1405 42.9758 24.1493C43.0416 24.1564 43.105 24.1777 43.1617 24.2119C43.2184 24.246 43.2669 24.2922 43.3038 24.3471L46.0823 28.2496C46.1405 28.3313 46.1718 28.4291 46.1718 28.5294C46.1718 28.6296 46.1405 28.7274 46.0823 28.8091C44.2014 31.3176 42.1168 33.6667 39.8499 35.8326C37.3362 38.2922 34.9685 40.8967 32.7589 43.6328V54.853C32.7577 54.9801 32.7063 55.1015 32.6159 55.191C32.5256 55.2804 32.4036 55.3305 32.2765 55.3305ZM17.2551 54.3658H31.7942V43.4591C31.7945 43.3525 31.8301 43.2491 31.8955 43.1649C34.157 40.3502 36.5845 37.673 39.165 35.1476C41.3118 33.0957 43.2956 30.8797 45.0983 28.5197L42.8214 25.3215C32.8409 33.522 27.4672 37.6705 26.8497 37.6705H21.6931C20.7524 37.6705 18.9965 38.5822 18.7988 38.7028C18.5817 38.8138 17.3757 39.1852 7.92103 41.9444C7.83377 41.9654 7.74241 41.9616 7.65719 41.9335C7.57197 41.9053 7.49629 41.854 7.43865 41.7852C6.73919 40.9411 5.74066 37.4438 5.39334 36.1365L2.19997 36.725C2.32894 38.6344 2.5868 40.5329 2.97178 42.4075C3.77254 46.1315 4.99297 48.1961 6.41117 48.1961C8.22976 48.1961 16.2663 46.1942 16.3434 46.1749C16.4125 46.157 16.4846 46.1547 16.5547 46.168C16.6248 46.1814 16.691 46.2101 16.7486 46.2521C16.8069 46.2945 16.8549 46.3495 16.8891 46.413C16.9234 46.4764 16.9429 46.5467 16.9464 46.6187L17.2551 54.3658Z" fill="#093F68"/>
<path d="M23.8206 37.7671L25.2677 48.6641L26.792 37.7671H23.8206Z" fill="#F56132"/>
<path d="M25.2675 49.0983C25.1626 49.0981 25.0613 49.0599 24.9823 48.9907C24.9034 48.9215 24.8522 48.8261 24.8382 48.7221L23.3911 37.825C23.3817 37.764 23.386 37.7017 23.4035 37.6425C23.421 37.5833 23.4513 37.5287 23.4924 37.4826C23.5329 37.4353 23.5833 37.3975 23.6399 37.3717C23.6966 37.3459 23.7581 37.3327 23.8204 37.333H26.7919C26.8528 37.3333 26.9129 37.3464 26.9684 37.3715C27.0239 37.3966 27.0735 37.433 27.114 37.4785C27.1545 37.524 27.185 37.5775 27.2034 37.6356C27.2219 37.6936 27.228 37.7549 27.2212 37.8154L25.6969 48.7317C25.6808 48.834 25.6286 48.9271 25.5499 48.9943C25.4712 49.0616 25.3711 49.0984 25.2675 49.0983ZM24.3028 38.2013L25.2675 45.437L26.2805 38.2013H24.3028Z" fill="#093F68"/>
<path d="M23.7914 36.7395H26.816V38.4809C26.816 38.8212 26.6808 39.1476 26.4402 39.3882C26.1995 39.6289 25.8732 39.764 25.5329 39.764H25.0698C24.7295 39.764 24.4031 39.6289 24.1624 39.3882C23.9218 39.1476 23.7866 38.8212 23.7866 38.4809V36.7395H23.7914Z" fill="#FFC9B0"/>
<path d="M25.552 40.2464H25.0697C24.601 40.2464 24.1514 40.0605 23.8195 39.7296C23.4877 39.3986 23.3006 38.9496 23.2993 38.4809V36.7395C23.2993 36.6115 23.3501 36.4888 23.4406 36.3984C23.5311 36.3079 23.6538 36.2571 23.7817 36.2571H26.8111C26.939 36.2571 27.0617 36.3079 27.1522 36.3984C27.2426 36.4888 27.2934 36.6115 27.2934 36.7395V38.4809C27.2922 38.9446 27.1091 39.3893 26.7835 39.7195C26.4579 40.0496 26.0157 40.2388 25.552 40.2464ZM24.293 37.2218V38.4809C24.293 38.5864 24.3139 38.691 24.3544 38.7884C24.395 38.8859 24.4544 38.9744 24.5293 39.0488C24.6041 39.1232 24.693 39.1821 24.7907 39.2221C24.8884 39.262 24.993 39.2823 25.0986 39.2816H25.552C25.6576 39.2823 25.7622 39.262 25.86 39.2221C25.9577 39.1821 26.0465 39.1232 26.1214 39.0488C26.1963 38.9744 26.2557 38.8859 26.2962 38.7884C26.3368 38.691 26.3576 38.5864 26.3576 38.4809V37.2218H24.293Z" fill="#093F68"/>
<path d="M16.6571 31.4095C18.2822 31.4095 19.5997 30.2757 19.5997 28.877C19.5997 27.4783 18.2822 26.3445 16.6571 26.3445C15.032 26.3445 13.7146 27.4783 13.7146 28.877C13.7146 30.2757 15.032 31.4095 16.6571 31.4095Z" fill="#FFC9B0"/>
<path d="M16.6571 31.8916C14.771 31.8916 13.2322 30.5409 13.2322 28.8767C13.2322 27.2125 14.771 25.8618 16.6571 25.8618C18.5432 25.8618 20.082 27.2125 20.082 28.8767C20.082 30.5409 18.5432 31.8916 16.6571 31.8916ZM16.6571 26.8266C15.3016 26.8266 14.1969 27.7431 14.1969 28.8767C14.1969 30.0103 15.3016 30.9268 16.6571 30.9268C18.0126 30.9268 19.1172 30.0055 19.1172 28.8767C19.1172 27.7479 18.0126 26.8266 16.6571 26.8266Z" fill="#093F68"/>
<path d="M33.8009 31.4095C35.4261 31.4095 36.7435 30.2757 36.7435 28.877C36.7435 27.4783 35.4261 26.3445 33.8009 26.3445C32.1758 26.3445 30.8584 27.4783 30.8584 28.877C30.8584 30.2757 32.1758 31.4095 33.8009 31.4095Z" fill="#FFC9B0"/>
<path d="M33.8009 31.8916C31.9148 31.8916 30.376 30.5409 30.376 28.8767C30.376 27.2125 31.9148 25.8618 33.8009 25.8618C35.687 25.8618 37.221 27.2125 37.221 28.8767C37.221 30.5409 35.6822 31.8916 33.8009 31.8916ZM33.8009 26.8266C32.4454 26.8266 31.3407 27.7431 31.3407 28.8767C31.3407 30.0103 32.4454 30.9268 33.8009 30.9268C35.1564 30.9268 36.2562 30.0055 36.2562 28.8767C36.2562 27.7479 35.1564 26.8266 33.8009 26.8266Z" fill="#093F68"/>
<path d="M30.6991 21.3614L27.8289 17.6711C27.8289 17.6711 27.1873 19.9432 26.7869 21.3469H22.267L21.2106 18.0426L19.9564 21.3276H16.4495V28.2739C16.4476 29.4386 16.6752 30.5923 17.1193 31.6691C17.5634 32.7458 18.2153 33.7245 19.0378 34.5492C19.8603 35.3739 20.8372 36.0285 21.9127 36.4755C22.9882 36.9226 24.1413 37.1533 25.306 37.1546C27.6588 37.1546 29.9151 36.22 31.5788 34.5563C33.2424 32.8927 34.177 30.6363 34.177 28.2836V21.371L30.6991 21.3614Z" fill="#FFC9B0"/>
<path d="M25.3064 37.6367C22.8273 37.6329 20.4509 36.646 18.6984 34.8926C16.9459 33.1392 15.9603 30.7624 15.9578 28.2833V21.3177C15.9574 21.2542 15.9696 21.1913 15.9936 21.1325C16.0176 21.0737 16.053 21.0203 16.0977 20.9752C16.1427 20.9305 16.1962 20.8951 16.255 20.8711C16.3137 20.8471 16.3767 20.8349 16.4402 20.8353H19.6142L20.7285 17.859C20.7654 17.7628 20.8321 17.6809 20.919 17.6253C21.0058 17.5698 21.1081 17.5435 21.2109 17.5503C21.311 17.5524 21.4079 17.5855 21.4883 17.6452C21.5687 17.7048 21.6285 17.788 21.6595 17.8831L22.6243 20.845H26.4303C26.8259 19.4412 27.371 17.5213 27.371 17.5213C27.3951 17.4355 27.4427 17.358 27.5082 17.2976C27.5738 17.2371 27.6549 17.196 27.7424 17.1788C27.8314 17.1601 27.924 17.1668 28.0093 17.1984C28.0947 17.23 28.1694 17.2851 28.2248 17.3573L30.9502 20.8594H34.1918C34.3198 20.8594 34.4425 20.9103 34.5329 21.0007C34.6234 21.0912 34.6742 21.2139 34.6742 21.3418V28.2351C34.6793 29.4683 34.4407 30.6904 33.9722 31.8311C33.5036 32.9719 32.8143 34.0088 31.9438 34.8824C31.0734 35.756 30.0389 36.449 28.8999 36.9217C27.7608 37.3944 26.5396 37.6373 25.3064 37.6367ZM16.9225 21.8001V28.264C16.8957 29.3822 17.0928 30.4945 17.5022 31.5354C17.9116 32.5764 18.525 33.5249 19.3064 34.3253C20.0878 35.1256 21.0214 35.7616 22.0522 36.1959C23.083 36.6301 24.1902 36.8538 25.3088 36.8538C26.4273 36.8538 27.5345 36.6301 28.5654 36.1959C29.5962 35.7616 30.5297 35.1256 31.3111 34.3253C32.0925 33.5249 32.7059 32.5764 33.1153 31.5354C33.5247 30.4945 33.7218 29.3822 33.695 28.264V21.8531H30.6994C30.6257 21.853 30.5531 21.8359 30.487 21.8033C30.421 21.7707 30.3632 21.7234 30.3183 21.665L28.0366 18.7273C27.8099 19.5184 27.4867 20.6568 27.2552 21.4913C27.2251 21.5948 27.1613 21.6852 27.0738 21.7481C26.9864 21.8111 26.8804 21.8429 26.7728 21.8387H22.248C22.1465 21.8372 22.0481 21.8038 21.9667 21.7432C21.8853 21.6826 21.825 21.5978 21.7946 21.501L21.1482 19.5136L20.3812 21.5203C20.3462 21.6109 20.2847 21.6889 20.2046 21.744C20.1246 21.7991 20.0298 21.8287 19.9326 21.829L16.9225 21.8001Z" fill="#093F68"/>
<path d="M21.2012 27.7961C21.6541 27.7961 22.0212 27.429 22.0212 26.9761C22.0212 26.5232 21.6541 26.156 21.2012 26.156C20.7483 26.156 20.3811 26.5232 20.3811 26.9761C20.3811 27.429 20.7483 27.7961 21.2012 27.7961Z" fill="#093F68"/>
<path d="M29.6719 27.7961C30.1248 27.7961 30.4919 27.429 30.4919 26.9761C30.4919 26.5232 30.1248 26.156 29.6719 26.156C29.219 26.156 28.8518 26.5232 28.8518 26.9761C28.8518 27.429 29.219 27.7961 29.6719 27.7961Z" fill="#093F68"/>
<path d="M25.2629 30.2175C24.9819 30.2162 24.7013 30.1936 24.4236 30.15C24.2957 30.1276 24.1819 30.0553 24.1072 29.949C24.0326 29.8427 24.0033 29.7111 24.0256 29.5832C24.048 29.4552 24.1203 29.3414 24.2266 29.2668C24.3329 29.1922 24.4645 29.1628 24.5924 29.1852C24.9111 29.2383 25.235 29.2528 25.5572 29.2286C25.4059 28.6558 25.1856 28.1034 24.9012 27.5837C24.8417 27.4698 24.8299 27.337 24.8683 27.2144C24.9067 27.0918 24.9923 26.9896 25.1062 26.9301C25.22 26.8706 25.3529 26.8588 25.4754 26.8972C25.598 26.9356 25.7003 27.0212 25.7598 27.1351C26.2422 28.0178 26.7246 29.1852 26.4593 29.7496C26.4191 29.843 26.3575 29.9256 26.2796 29.991C26.2017 30.0563 26.1096 30.1025 26.0106 30.1259C25.7662 30.1872 25.515 30.218 25.2629 30.2175Z" fill="#093F68"/>
<path d="M22.88 24.9307H18.9679C18.7645 24.9307 18.5694 24.8499 18.4256 24.7061C18.2817 24.5622 18.2009 24.3671 18.2009 24.1637C18.2009 23.9603 18.2817 23.7652 18.4256 23.6214C18.5694 23.4775 18.7645 23.3967 18.9679 23.3967H22.8849C23.0883 23.3967 23.2834 23.4775 23.4272 23.6214C23.571 23.7652 23.6519 23.9603 23.6519 24.1637C23.6519 24.3671 23.571 24.5622 23.4272 24.7061C23.2834 24.8499 23.0883 24.9307 22.8849 24.9307H22.88Z" fill="#093F68"/>
<path d="M28.4467 25.0273C28.2433 25.0324 28.0461 24.9565 27.8987 24.8163C27.7512 24.6761 27.6655 24.483 27.6604 24.2796C27.6553 24.0762 27.7312 23.8791 27.8714 23.7316C28.0116 23.5842 28.2047 23.4984 28.4081 23.4933L32.3202 23.2956C32.4242 23.2839 32.5296 23.2936 32.6297 23.3242C32.7298 23.3548 32.8226 23.4055 32.9024 23.4733C32.9821 23.5411 33.0472 23.6245 33.0935 23.7183C33.1398 23.8122 33.1664 23.9146 33.1717 24.0191C33.177 24.1236 33.1608 24.2282 33.1242 24.3262C33.0875 24.4243 33.0312 24.5138 32.9587 24.5893C32.8861 24.6647 32.7989 24.7245 32.7024 24.765C32.6059 24.8055 32.5021 24.8258 32.3974 24.8247L28.4853 25.0273H28.4467Z" fill="#093F68"/>
<path d="M26.2615 32.1424L23.7917 31.8047C23.7917 31.8047 23.4251 34.9836 24.6214 34.9932C25.5524 34.9981 25.9238 34.0381 26.2615 32.1424Z" fill="#093F68"/>
<path d="M32.2719 48.1914C32.144 48.1914 32.0213 48.1405 31.9308 48.0501C31.8404 47.9596 31.7896 47.8369 31.7896 47.709V43.4592C31.7896 43.3313 31.8404 43.2086 31.9308 43.1181C32.0213 43.0276 32.144 42.9768 32.2719 42.9768C32.3999 42.9768 32.5226 43.0276 32.613 43.1181C32.7035 43.2086 32.7543 43.3313 32.7543 43.4592V47.709C32.7543 47.8369 32.7035 47.9596 32.613 48.0501C32.5226 48.1405 32.3999 48.1914 32.2719 48.1914Z" fill="#093F68"/>
<path d="M16.4113 47.1107C16.2834 47.1107 16.1607 47.0599 16.0702 46.9694C15.9798 46.8789 15.929 46.7563 15.929 46.6283V43.9077C15.929 43.7797 15.9798 43.657 16.0702 43.5666C16.1607 43.4761 16.2834 43.4253 16.4113 43.4253C16.5393 43.4253 16.662 43.4761 16.7524 43.5666C16.8429 43.657 16.8937 43.7797 16.8937 43.9077V46.6283C16.8937 46.7563 16.8429 46.8789 16.7524 46.9694C16.662 47.0599 16.5393 47.1107 16.4113 47.1107Z" fill="#093F68"/>
<path d="M16.4741 88.8271V92.5463H6.86499L10.9845 88.7258L16.4741 88.8271Z" fill="#093F68"/>
<path d="M16.469 93.0286H6.86476C6.76814 93.0283 6.67385 92.999 6.5941 92.9444C6.51435 92.8899 6.45281 92.8127 6.41747 92.7227C6.38212 92.6328 6.3746 92.5343 6.39586 92.4401C6.41713 92.3458 6.4662 92.2602 6.53674 92.1941L10.6563 88.3736C10.7505 88.2927 10.8698 88.2467 10.994 88.2434L16.4786 88.3447C16.6066 88.3447 16.7293 88.3955 16.8197 88.486C16.9102 88.5765 16.961 88.6992 16.961 88.8271V92.5463C16.961 92.6104 16.9483 92.674 16.9234 92.7331C16.8986 92.7923 16.8622 92.8459 16.8163 92.8908C16.7705 92.9357 16.7162 92.9711 16.6566 92.9947C16.5969 93.0184 16.5332 93.0299 16.469 93.0286ZM8.09483 92.0639H15.9866V89.2998L11.1628 89.213L8.09483 92.0639Z" fill="#093F68"/>
<path d="M25.644 88.8271V92.5463H35.2483L31.1336 88.7258L25.644 88.8271Z" fill="#093F68"/>
<path d="M35.2482 93.0286H25.644C25.5161 93.0286 25.3934 92.9778 25.3029 92.8874C25.2124 92.7969 25.1616 92.6742 25.1616 92.5463V88.8271C25.1616 88.6992 25.2124 88.5765 25.3029 88.486C25.3934 88.3955 25.5161 88.3447 25.644 88.3447L31.1335 88.2434C31.2581 88.2446 31.378 88.2909 31.4712 88.3736L35.5859 92.1941C35.6564 92.2602 35.7055 92.3458 35.7268 92.4401C35.7481 92.5343 35.7405 92.6328 35.7052 92.7227C35.6698 92.8127 35.6083 92.8899 35.5286 92.9444C35.4488 92.999 35.3545 93.0283 35.2579 93.0286H35.2482ZM26.1264 92.0639H34.0182L30.9454 89.213L26.1216 89.2998L26.1264 92.0639Z" fill="#093F68"/>
<path d="M5.68741 35.577L5.12785 33.2134C5.12785 33.2134 6.17462 30.9655 5.40763 30.6616C4.64064 30.3577 2.23837 29.2771 0.92629 30.8497C-0.385791 32.4223 1.64022 36.3296 1.64022 36.3296L5.68741 35.577Z" fill="#FFC9B0"/>
<path d="M1.6404 36.812C1.55182 36.8122 1.46491 36.7879 1.38918 36.742C1.31345 36.696 1.25183 36.6301 1.21108 36.5515C0.989187 36.1222 -0.921049 32.3113 0.555042 30.541C2.03113 28.7706 4.50093 29.7836 5.44158 30.1551L5.58147 30.213C5.69 30.2571 5.78859 30.3225 5.87143 30.4054C5.95428 30.4882 6.0197 30.5868 6.06385 30.6954C6.34846 31.4093 5.86125 32.6779 5.61524 33.2375L6.14104 35.442C6.15653 35.5061 6.15871 35.5727 6.14744 35.6377C6.13618 35.7027 6.11171 35.7647 6.07554 35.8198C6.03937 35.875 5.99228 35.9221 5.93717 35.9584C5.88206 35.9946 5.8201 36.0192 5.75513 36.0305L1.70794 36.7782L1.6404 36.812ZM2.85119 30.5024C2.55872 30.4863 2.26642 30.537 1.99646 30.6507C1.72651 30.7644 1.48597 30.938 1.29309 31.1584C0.47786 32.1232 1.37509 34.6268 1.91054 35.7893L5.10391 35.196L4.6553 33.3243C4.6311 33.219 4.643 33.1086 4.68906 33.0108C5.0412 32.2486 5.27757 31.3466 5.17145 31.0813L5.05568 31.0378C4.35916 30.7278 3.6123 30.5464 2.85119 30.5024Z" fill="#093F68"/>
<path d="M3.20832 31.1826C2.81659 31.2362 2.44035 31.3709 2.10366 31.5782C1.94798 31.6698 1.81323 31.7931 1.70811 31.94C1.65527 32.0137 1.62034 32.0987 1.60611 32.1883C1.59187 32.2779 1.59872 32.3696 1.6261 32.4561C1.74187 32.7648 2.13743 32.8565 2.46545 32.842C2.78666 32.8322 3.10355 32.7652 3.40127 32.6442C3.38289 32.9262 3.47231 33.2046 3.65142 33.4231C3.83053 33.6416 4.08597 33.7839 4.36604 33.8212" fill="#FFC9B0"/>
<path d="M4.37537 34.3036H4.32714C3.91517 34.2602 3.53711 34.0556 3.27554 33.7344C3.15996 33.5893 3.06873 33.4264 3.00541 33.252C2.83218 33.2874 2.65631 33.3084 2.47961 33.3147C2.21428 33.3537 1.94346 33.3062 1.70717 33.1794C1.47089 33.0526 1.28168 32.8531 1.16753 32.6104C1.11068 32.4509 1.09284 32.2801 1.1155 32.1122C1.13816 31.9444 1.20065 31.7844 1.29777 31.6457C1.44518 31.448 1.63255 31.2837 1.84769 31.1633C2.24019 30.9139 2.68058 30.7496 3.14047 30.6809C3.26841 30.6636 3.39796 30.6979 3.50064 30.7761C3.60332 30.8544 3.67071 30.9702 3.68798 31.0982C3.70525 31.2261 3.67099 31.3556 3.59274 31.4583C3.51449 31.561 3.39865 31.6284 3.27072 31.6457C2.94586 31.6906 2.63381 31.8023 2.35419 31.9737C2.25854 32.0288 2.17357 32.1007 2.10335 32.1859C2.08712 32.214 2.07724 32.2453 2.07441 32.2776C2.18674 32.3373 2.31477 32.3609 2.44102 32.3451C2.7076 32.3371 2.97061 32.2816 3.21765 32.1811C3.29682 32.1485 3.38323 32.1376 3.468 32.1495C3.55277 32.1614 3.63285 32.1956 3.70004 32.2486C3.76605 32.2987 3.81803 32.365 3.85099 32.4411C3.88394 32.5171 3.89674 32.6004 3.88816 32.6828C3.88349 32.7599 3.89431 32.8372 3.91999 32.9102C3.94568 32.9831 3.9857 33.0501 4.03771 33.1073C4.13333 33.2278 4.27138 33.3071 4.42361 33.3292C4.55155 33.3343 4.67221 33.39 4.75906 33.4841C4.8459 33.5782 4.89182 33.7029 4.8867 33.8309C4.88158 33.9588 4.82585 34.0794 4.73177 34.1663C4.63769 34.2531 4.51296 34.2991 4.38502 34.2939L4.37537 34.3036Z" fill="#093F68"/>
<path d="M90.7655 93.0287H1.33175C1.20381 93.0287 1.08112 92.9779 0.990652 92.8874C0.900187 92.797 0.849365 92.6743 0.849365 92.5463C0.849365 92.4184 0.900187 92.2957 0.990652 92.2053C1.08112 92.1148 1.20381 92.064 1.33175 92.064H90.7655C90.8935 92.064 91.0161 92.1148 91.1066 92.2053C91.1971 92.2957 91.2479 92.4184 91.2479 92.5463C91.2479 92.6743 91.1971 92.797 91.1066 92.8874C91.0161 92.9779 90.8935 93.0287 90.7655 93.0287Z" fill="#093F68"/>
<path d="M39.7245 20.1311C39.624 20.1305 39.5262 20.0984 39.4448 20.0395C39.3415 19.965 39.2719 19.8527 39.2511 19.7271C39.2304 19.6015 39.2601 19.4728 39.3338 19.369C39.7294 18.8142 39.6281 17.9218 39.0251 16.7352C37.914 14.5282 36.4691 12.5057 34.7415 10.7391C34.6577 10.6557 34.6075 10.5443 34.6005 10.4262C34.5934 10.3082 34.63 10.1916 34.7032 10.0988C34.7764 10.0059 34.8812 9.94315 34.9977 9.92247C35.1141 9.9018 35.2341 9.92463 35.3349 9.98663L39.136 12.2635C39.6831 12.6595 40.3193 12.9147 40.9884 13.0063C41.6348 13.0063 42.3342 12.6832 43.1302 11.9692C44.4926 10.7449 45.5161 9.18972 46.1016 7.45412C46.1362 7.35 46.2052 7.26077 46.2973 7.20113C46.3893 7.1415 46.499 7.11504 46.6081 7.1261C46.7173 7.13745 46.8194 7.1857 46.8974 7.26288C46.9755 7.34006 47.0249 7.44155 47.0375 7.5506C47.1023 8.58316 47.3404 9.59746 47.7417 10.551C47.9263 10.9765 48.2115 11.3508 48.5729 11.6416C48.9342 11.9323 49.3608 12.1309 49.816 12.2201C50.316 12.2392 50.8151 12.164 51.2873 11.9982C54.384 11.0902 57.2035 9.42005 59.4878 7.14057C59.5681 7.06061 59.6739 7.01147 59.7868 7.00177C59.8997 6.99207 60.0125 7.02242 60.1052 7.08751C60.1977 7.15271 60.2643 7.24835 60.2934 7.35769C60.3225 7.46703 60.3122 7.58312 60.2644 7.68567C58.8173 10.7874 57.1964 14.304 57.0951 17.9267C57.0951 18.0546 57.0443 18.1773 56.9539 18.2677C56.8634 18.3582 56.7407 18.409 56.6128 18.409C56.4848 18.409 56.3621 18.3582 56.2717 18.2677C56.1812 18.1773 56.1304 18.0546 56.1304 17.9267C56.2124 14.9166 57.2736 12.0368 58.441 9.3933C56.3933 11.0118 54.0529 12.2205 51.5477 12.9533C50.9578 13.1579 50.3331 13.2432 49.7099 13.2041C49.0905 13.1035 48.5059 12.8501 48.009 12.4669C47.5121 12.0837 47.1185 11.5828 46.8638 11.0093C46.6185 10.493 46.4371 9.94869 46.3235 9.38848C45.6789 10.6456 44.8091 11.7737 43.7573 12.7169C42.7925 13.6045 41.8277 14.0242 40.945 13.9952C40.1095 13.9081 39.3104 13.6074 38.6247 13.1221L37.4187 12.36C38.361 13.5952 39.1877 14.9145 39.8885 16.301C40.6604 17.8398 40.7375 19.0603 40.1153 19.9285C40.0709 19.9909 40.0123 20.0418 39.9444 20.077C39.8764 20.1122 39.8011 20.1308 39.7245 20.1311Z" fill="#DFEAEF"/>
<path d="M47.1387 47.0335C47.1083 47.0382 47.0774 47.0382 47.047 47.0335C46.9356 47.0119 46.8353 46.9517 46.7638 46.8635C46.6923 46.7753 46.6543 46.6646 46.6563 46.5511C46.7285 44.9697 46.3771 43.3976 45.6385 41.9974C45.3249 41.4041 44.6737 40.3911 43.709 40.2801C43.2331 40.266 42.7601 40.3583 42.3245 40.5503C40.8628 41.084 39.4789 41.8108 38.2098 42.7113C38.1164 42.7804 38.0012 42.8134 37.8855 42.8043C37.7697 42.7953 37.6611 42.7448 37.5795 42.6621C37.498 42.5794 37.449 42.47 37.4417 42.3541C37.4343 42.2383 37.4689 42.1236 37.5393 42.0312C38.4934 40.713 39.0005 39.124 38.9864 37.4968C38.9864 37.3689 39.0373 37.2462 39.1277 37.1557C39.2182 37.0652 39.3409 37.0144 39.4688 37.0144C39.5968 37.0144 39.7194 37.0652 39.8099 37.1557C39.9004 37.2462 39.9512 37.3689 39.9512 37.4968C39.9571 38.6565 39.7273 39.8053 39.2759 40.8735C40.1431 40.3867 41.0481 39.9705 41.982 39.6289C42.5565 39.3812 43.1808 39.2706 43.8054 39.3057C45.132 39.4553 46.0003 40.5985 46.4923 41.5343C46.9581 42.4262 47.2835 43.3845 47.4571 44.3756C47.7787 43.6134 48.1404 42.8673 48.5424 42.1373C48.7331 41.7087 49.0407 41.3426 49.43 41.0809C49.7874 40.9007 50.1826 40.8081 50.5829 40.8108C51.6109 40.6941 52.6508 40.738 53.6653 40.941C54.2305 41.0798 54.762 41.3308 55.2283 41.679C55.1961 40.5221 55.2509 39.3643 55.3923 38.2155C55.408 38.089 55.4731 37.9739 55.5734 37.8952C55.6737 37.8166 55.8011 37.7809 55.9277 37.7959C56.0542 37.8116 56.1694 37.8767 56.248 37.977C56.3266 38.0773 56.3624 38.2047 56.3474 38.3313C56.1545 39.9145 56.1302 41.5137 56.275 43.1021C56.2817 43.2147 56.2487 43.326 56.1818 43.4168C56.1149 43.5076 56.0183 43.5721 55.9088 43.5991C55.7992 43.626 55.6837 43.6137 55.5823 43.5644C55.4809 43.515 55.4 43.4316 55.3537 43.3288C55.1626 42.9572 54.8897 42.6339 54.5554 42.3832C54.2212 42.1325 53.8343 41.961 53.4241 41.8816C52.507 41.7059 51.5686 41.6702 50.6408 41.7755C50.3891 41.774 50.1398 41.8232 49.9076 41.9202C49.6785 42.0985 49.4991 42.3328 49.3866 42.6004C48.6771 43.925 48.0707 45.3022 47.5728 46.7199C47.5395 46.8093 47.4805 46.8867 47.4033 46.9425C47.326 46.9983 47.2339 47.03 47.1387 47.0335Z" fill="#DFEAEF"/>
</svg>
