<svg width="100" height="100" viewBox="0 0 100 100" fill="none" xmlns="http://www.w3.org/2000/svg">
<path d="M94.0116 22.5845L91.5475 31.4357C65.5145 34.3137 49.4925 51.9548 49.4925 51.9548C49.4925 51.9548 32.4483 33.1948 4.97334 31.213V22.5845L0.553467 33.3952V86.5524C0.553467 86.5524 30.1555 81.5979 49.4925 98.443C68.8294 81.5979 98.4315 86.5524 98.4315 86.5524V33.3952L94.0116 22.5845Z" fill="#68E1FD"/>
<path d="M49.492 98.9996C49.3596 98.9981 49.2322 98.9487 49.1329 98.8604C30.1827 82.3772 0.939754 87.0533 0.641413 87.1034C0.562067 87.1161 0.48092 87.1112 0.40363 87.0891C0.32634 87.067 0.254765 87.0282 0.193898 86.9753C0.133255 86.9231 0.0845678 86.8582 0.051187 86.7852C0.0178062 86.7121 0.000524494 86.6327 0.000529744 86.5523V33.395C-0.000350287 33.3227 0.012786 33.2508 0.0392034 33.1835L4.45907 22.3728C4.50782 22.2535 4.59619 22.155 4.70905 22.0941C4.82192 22.0331 4.95228 22.0136 5.07786 22.0388C5.20555 22.0637 5.32043 22.1331 5.40229 22.235C5.48415 22.3368 5.52773 22.4645 5.52537 22.5955V30.7063C30.2987 32.6825 46.7296 48.3864 49.492 51.1698C52.155 48.4588 67.6522 33.6622 91.1161 30.9345L93.4808 22.4452C93.5118 22.3329 93.5771 22.2334 93.6673 22.1605C93.7574 22.0876 93.8681 22.045 93.9835 22.0388C94.1 22.0301 94.2162 22.0588 94.3155 22.1208C94.4147 22.1828 94.492 22.275 94.536 22.3839L98.9559 33.1946C98.9842 33.2616 98.9992 33.3334 99.0001 33.4062V86.5634C99.0001 86.6438 98.9828 86.7233 98.9494 86.7963C98.9161 86.8693 98.8674 86.9342 98.8067 86.9865C98.7459 87.0393 98.6743 87.0781 98.597 87.1003C98.5197 87.1224 98.4386 87.1272 98.3592 87.1145C98.0609 87.0644 68.8069 82.3994 49.8677 98.8716C49.7625 98.9596 49.6287 99.0052 49.492 98.9996ZM10.5364 85.3443C20.901 85.3443 37.2214 87.2704 49.492 97.7081C67.2378 82.6165 93.4531 85.3276 97.8785 85.9121V33.5064L94.1106 24.2878L92.0775 31.5858C92.0475 31.692 91.9868 31.7869 91.9032 31.8582C91.8196 31.9296 91.7168 31.9743 91.6079 31.9866C66.0997 34.809 50.0611 52.1607 49.9009 52.3332C49.8491 52.3906 49.786 52.4365 49.7156 52.4679C49.6451 52.4993 49.569 52.5155 49.492 52.5155C49.415 52.5155 49.3389 52.4993 49.2685 52.4679C49.1981 52.4365 49.135 52.3906 49.0832 52.3332C48.9174 52.1495 31.8623 33.7123 4.93421 31.7695C4.79449 31.7597 4.6637 31.6967 4.56832 31.5933C4.47293 31.49 4.42006 31.354 4.4204 31.2129V25.3956L1.1055 33.5064V85.9121C4.23389 85.5203 7.38396 85.3306 10.5364 85.3443Z" fill="#093F68"/>
<path d="M49.4925 92.7484V43.4267C49.4925 43.4267 32.2164 21.0593 4.97339 22.5846V80.0338C4.97339 80.0338 31.8793 74.7287 49.4925 92.7484Z" fill="white"/>
<path d="M49.4926 93.305C49.4195 93.3046 49.3472 93.2897 49.2799 93.2611C49.2125 93.2324 49.1515 93.1906 49.1004 93.1379C31.9071 75.5469 5.34364 80.5236 5.07845 80.5793C4.99764 80.5951 4.91436 80.5924 4.83468 80.5716C4.75501 80.5508 4.68096 80.5123 4.61795 80.4589C4.55493 80.4056 4.50455 80.3387 4.47047 80.2632C4.4364 80.1877 4.41949 80.1055 4.42099 80.0226V22.5845C4.42074 22.4425 4.47437 22.3057 4.57092 22.2022C4.66746 22.0988 4.79962 22.0364 4.94033 22.0278C32.1667 20.4859 49.7523 42.8588 49.9291 43.0814C50.0051 43.1801 50.046 43.3017 50.0451 43.4266V92.7483C50.0451 92.8959 49.9869 93.0375 49.8833 93.1419C49.7797 93.2463 49.6391 93.305 49.4926 93.305ZM14.0563 78.7812C23.3325 78.7812 37.8131 80.7686 48.9401 91.4178V43.6214C47.3932 41.7176 30.7082 21.9722 5.52596 23.1134V79.3769C8.35096 78.9668 11.2022 78.7677 14.0563 78.7812Z" fill="#093F68"/>
<path d="M49.4924 92.7484V43.4267C49.4924 43.4267 66.7686 21.0593 94.0116 22.5846V80.0338C94.0116 80.0338 67.1056 74.7287 49.4924 92.7484Z" fill="white"/>
<path d="M49.4924 93.3047C49.3459 93.3047 49.2054 93.246 49.1018 93.1416C48.9982 93.0372 48.94 92.8957 48.94 92.748V43.4263C48.9391 43.3014 48.98 43.1798 49.056 43.0812C49.2328 42.8585 66.8073 20.4911 94.0447 22.0276C94.1854 22.0361 94.3176 22.0985 94.4141 22.202C94.5107 22.3055 94.5643 22.4422 94.5641 22.5843V80.0335C94.5642 80.1153 94.5464 80.1961 94.5121 80.2701C94.4777 80.3442 94.4275 80.4098 94.3652 80.4621C94.3021 80.5146 94.2282 80.5523 94.1489 80.5725C94.0696 80.5927 93.9869 80.595 93.9066 80.579C93.6414 80.5233 67.078 75.5689 49.8847 93.1377C49.8335 93.1903 49.7725 93.2321 49.7052 93.2608C49.6378 93.2895 49.5655 93.3044 49.4924 93.3047ZM50.0449 43.6211V91.4175C66.1056 76.0143 89.2713 78.7308 93.4591 79.3766V23.1131C68.2769 21.9775 51.5919 41.7062 50.0449 43.6211Z" fill="#093F68"/>
<path d="M43.415 47.8298C43.2754 47.8294 43.1412 47.7757 43.0393 47.6795C28.1222 33.6234 13.0007 34.5976 12.8516 34.6087C12.779 34.6142 12.7061 34.6052 12.637 34.5823C12.5679 34.5594 12.5039 34.523 12.4488 34.4752C12.3374 34.3786 12.2686 34.2414 12.2577 34.0938C12.2467 33.9462 12.2943 33.8002 12.3902 33.6879C12.486 33.5757 12.6222 33.5064 12.7687 33.4954C12.9234 33.4954 28.4869 32.4544 43.7962 46.8556C43.9028 46.9562 43.9656 47.0953 43.9708 47.2424C43.976 47.3895 43.9231 47.5326 43.8238 47.6406C43.7727 47.6993 43.7098 47.7464 43.6394 47.779C43.5689 47.8116 43.4925 47.829 43.415 47.8298Z" fill="#DFEAEF"/>
<path d="M43.415 57.6499C43.2754 57.6494 43.1412 57.5957 43.0393 57.4996C28.1222 43.4435 13.0007 44.4177 12.8516 44.4288C12.779 44.4343 12.7061 44.4253 12.637 44.4024C12.5679 44.3795 12.5039 44.3431 12.4488 44.2953C12.3374 44.1987 12.2686 44.0615 12.2577 43.9139C12.2467 43.7662 12.2943 43.6202 12.3902 43.508C12.486 43.3958 12.6222 43.3265 12.7687 43.3154C12.9234 43.3154 28.4924 42.2744 43.7962 56.6757C43.9028 56.7763 43.9656 56.9153 43.9708 57.0624C43.976 57.2095 43.9231 57.3527 43.8238 57.4606C43.7727 57.5193 43.7098 57.5665 43.6394 57.5991C43.5689 57.6317 43.4925 57.649 43.415 57.6499Z" fill="#DFEAEF"/>
<path d="M43.415 67.4692C43.2754 67.4688 43.1412 67.4151 43.0393 67.3189C28.1222 53.2684 13.0007 54.237 12.8516 54.2481C12.779 54.2536 12.7061 54.2446 12.637 54.2217C12.5679 54.1988 12.5039 54.1624 12.4488 54.1146C12.3374 54.018 12.2686 53.8808 12.2577 53.7332C12.2467 53.5856 12.2943 53.4396 12.3902 53.3273C12.486 53.2151 12.6222 53.1458 12.7687 53.1348C12.9234 53.1348 28.4924 52.0938 43.7962 66.4951C43.9028 66.5956 43.9656 66.7347 43.9708 66.8818C43.976 67.0289 43.9231 67.172 43.8238 67.28C43.7727 67.3387 43.7098 67.3858 43.6394 67.4184C43.5689 67.451 43.4925 67.4684 43.415 67.4692Z" fill="#DFEAEF"/>
<path d="M43.415 77.2891C43.2754 77.2886 43.1412 77.2349 43.0393 77.1388C28.1222 63.0882 13.0007 64.0568 12.8516 64.068C12.779 64.0734 12.7061 64.0645 12.637 64.0416C12.5679 64.0186 12.5039 63.9822 12.4488 63.9344C12.3374 63.8379 12.2686 63.7007 12.2577 63.553C12.2467 63.4054 12.2943 63.2594 12.3902 63.1472C12.486 63.0349 12.6222 62.9657 12.7687 62.9546C12.9234 62.9546 28.4924 61.9136 43.7962 76.3149C43.9028 76.4155 43.9656 76.5545 43.9708 76.7016C43.976 76.8487 43.9231 76.9919 43.8238 77.0998C43.7727 77.1585 43.7098 77.2057 43.6394 77.2383C43.5689 77.2709 43.4925 77.2882 43.415 77.2891Z" fill="#DFEAEF"/>
<path d="M55.5691 47.8299C55.4933 47.8296 55.4185 47.8137 55.3491 47.783C55.2797 47.7524 55.2173 47.7077 55.1658 47.6517C55.0629 47.5474 55.0051 47.4063 55.0051 47.2593C55.0051 47.1122 55.0629 46.9711 55.1658 46.8668C63.1547 39.3461 71.1491 36.1118 76.4475 34.7201C82.2099 33.2115 86.033 33.4843 86.1933 33.501C86.3389 33.5124 86.4742 33.5814 86.5695 33.693C86.6647 33.8047 86.7122 33.9498 86.7016 34.0966C86.6903 34.2434 86.6217 34.3797 86.5109 34.4757C86.4001 34.5716 86.2561 34.6195 86.1104 34.6088C85.9612 34.6088 70.8563 33.6234 55.9227 47.6796C55.8264 47.7706 55.701 47.8239 55.5691 47.8299Z" fill="#DFEAEF"/>
<path d="M55.5691 57.6493C55.4933 57.6491 55.4185 57.6332 55.3491 57.6025C55.2797 57.5719 55.2173 57.5272 55.1658 57.4712C55.0629 57.3669 55.0051 57.2258 55.0051 57.0788C55.0051 56.9317 55.0629 56.7906 55.1658 56.6863C63.1547 49.1656 71.1491 45.9313 76.4475 44.5451C82.2099 43.031 86.033 43.3093 86.1933 43.3204C86.3389 43.3318 86.4742 43.4009 86.5695 43.5125C86.6647 43.6242 86.7122 43.7693 86.7016 43.9161C86.6903 44.0629 86.6217 44.1992 86.5109 44.2951C86.4001 44.3911 86.2561 44.439 86.1104 44.4282C85.9612 44.4282 70.8563 43.4429 55.9227 57.499C55.8264 57.5901 55.701 57.6434 55.5691 57.6493Z" fill="#DFEAEF"/>
<path d="M55.5691 67.4692C55.4933 67.4689 55.4185 67.453 55.3491 67.4223C55.2797 67.3917 55.2173 67.347 55.1658 67.291C55.0629 67.1867 55.0051 67.0456 55.0051 66.8986C55.0051 66.7515 55.0629 66.6104 55.1658 66.5061C63.1547 58.9854 71.1491 55.7511 76.4475 54.365C82.2099 52.8508 86.033 53.1291 86.1933 53.1403C86.3389 53.1517 86.4742 53.2207 86.5695 53.3323C86.6647 53.444 86.7122 53.5891 86.7016 53.7359C86.6903 53.8827 86.6217 54.019 86.5109 54.115C86.4001 54.211 86.2561 54.2588 86.1104 54.2481C85.9612 54.2481 70.8508 53.2683 55.9227 67.3189C55.8264 67.4099 55.701 67.4633 55.5691 67.4692Z" fill="#DFEAEF"/>
<path d="M55.5691 77.2895C55.4933 77.2892 55.4185 77.2733 55.3491 77.2427C55.2797 77.212 55.2173 77.1673 55.1658 77.1114C55.0629 77.007 55.0051 76.866 55.0051 76.7189C55.0051 76.5718 55.0629 76.4307 55.1658 76.3264C63.1547 68.8057 71.1491 65.5714 76.4475 64.1853C82.2099 62.6711 86.033 62.9494 86.1933 62.9606C86.3389 62.972 86.4742 63.041 86.5695 63.1527C86.6647 63.2643 86.7122 63.4094 86.7016 63.5562C86.6903 63.703 86.6217 63.8393 86.5109 63.9353C86.4001 64.0313 86.2561 64.0791 86.1104 64.0684C85.9612 64.0684 70.8508 63.0886 55.9227 77.1392C55.8264 77.2302 55.701 77.2836 55.5691 77.2895Z" fill="#DFEAEF"/>
<path d="M49.4924 98.9996C49.3459 98.9996 49.2054 98.9409 49.1018 98.8365C48.9981 98.7321 48.9399 98.5905 48.9399 98.4429V92.7481C48.9399 92.6004 48.9981 92.4589 49.1018 92.3545C49.2054 92.2501 49.3459 92.1914 49.4924 92.1914C49.639 92.1914 49.7795 92.2501 49.8831 92.3545C49.9867 92.4589 50.0449 92.6004 50.0449 92.7481V98.4429C50.0449 98.5905 49.9867 98.7321 49.8831 98.8365C49.7795 98.9409 49.639 98.9996 49.4924 98.9996Z" fill="#093F68"/>
<path d="M98.4313 87.1087C98.3408 87.1089 98.2517 87.0866 98.1717 87.0439C98.0918 87.0012 98.0235 86.9393 97.9728 86.8638L93.5529 80.3451C93.5108 80.2848 93.4811 80.2167 93.4653 80.1448C93.4496 80.0728 93.4482 79.9984 93.4612 79.9259C93.4742 79.8534 93.5014 79.7843 93.5411 79.7224C93.5808 79.6606 93.6324 79.6073 93.6927 79.5656C93.753 79.524 93.821 79.4949 93.8926 79.4799C93.9642 79.4649 94.038 79.4644 94.1098 79.4784C94.1816 79.4924 94.2499 79.5206 94.3108 79.5614C94.3717 79.6022 94.4239 79.6547 94.4645 79.716L98.8844 86.2403C98.9251 86.301 98.9535 86.3691 98.9681 86.4408C98.9826 86.5126 98.983 86.5865 98.9691 86.6584C98.9553 86.7303 98.9275 86.7987 98.8873 86.8597C98.8472 86.9208 98.7955 86.9732 98.7352 87.0141C98.6453 87.075 98.5396 87.1079 98.4313 87.1087Z" fill="#093F68"/>
<path d="M0.55344 87.1087C0.443252 87.109 0.335508 87.076 0.244051 87.0141C0.18376 86.9732 0.132062 86.9208 0.0919232 86.8597C0.0517843 86.7987 0.023994 86.7303 0.0101373 86.6584C-0.00371934 86.5865 -0.00336753 86.5126 0.0111742 86.4408C0.025716 86.3691 0.0541586 86.301 0.094878 86.2403L4.51475 79.716C4.55532 79.6547 4.60757 79.6022 4.66846 79.5614C4.72935 79.5206 4.79767 79.4924 4.86947 79.4784C4.94126 79.4644 5.01509 79.4649 5.08669 79.4799C5.15828 79.4949 5.22622 79.524 5.28655 79.5656C5.34688 79.6073 5.39841 79.6606 5.43815 79.7224C5.47789 79.7843 5.50505 79.8534 5.51805 79.9259C5.53105 79.9984 5.52964 80.0728 5.5139 80.1448C5.49816 80.2167 5.4684 80.2848 5.42635 80.3451L1.00648 86.8638C0.956323 86.9386 0.888882 86.9999 0.80996 87.0426C0.731038 87.0853 0.643003 87.108 0.55344 87.1087Z" fill="#093F68"/>
<path d="M49.8404 69.1507C53.2914 69.1507 56.089 67.1743 56.089 64.7362C56.089 62.2982 53.2914 60.3218 49.8404 60.3218C46.3894 60.3218 43.5918 62.2982 43.5918 64.7362C43.5918 67.1743 46.3894 69.1507 49.8404 69.1507Z" fill="#093F68"/>
<path d="M49.8407 69.713C46.0949 69.713 43.0452 67.4863 43.0452 64.7418C43.0452 61.9974 46.0949 59.7651 49.8407 59.7651C53.5866 59.7651 56.6418 61.9919 56.6418 64.7418C56.6418 67.4918 53.5921 69.713 49.8407 69.713ZM49.8407 60.8785C46.7026 60.8785 44.1501 62.6098 44.1501 64.7418C44.1501 66.8739 46.7026 68.5996 49.8407 68.5996C52.9788 68.5996 55.5368 66.8684 55.5368 64.7418C55.5368 62.6153 52.9843 60.8785 49.8407 60.8785Z" fill="#093F68"/>
<path d="M68.2323 28.7188C68.2325 25.7026 67.5051 22.7315 66.1128 20.0615C64.7204 17.3914 62.7048 15.1024 60.2396 13.3914C57.7743 11.6805 54.9333 10.599 51.9611 10.24C48.989 9.88096 45.9747 10.2552 43.178 11.3306C40.3812 12.4059 37.8858 14.1501 35.9065 16.4129C33.9273 18.6757 32.5236 21.3893 31.8162 24.3201C31.1089 27.2508 31.1192 30.3109 31.8461 33.2368C32.5731 36.1627 33.995 38.8667 35.9893 41.116C39.0282 44.4722 40.9064 48.7299 41.3429 53.2516H58.1715C58.5163 48.8407 60.3085 44.671 63.2654 41.3999C66.462 37.9635 68.2382 33.4286 68.2323 28.7188Z" fill="white"/>
<path d="M58.1773 53.8251H41.3486C41.2103 53.8257 41.0768 53.7739 40.9745 53.6801C40.8722 53.5863 40.8086 53.4573 40.7961 53.3185C40.3808 48.9088 38.5498 44.7557 35.5807 41.4891C33.123 38.7182 31.5177 35.287 30.9604 31.6134C30.4031 27.9398 30.9177 24.1822 32.4416 20.798C33.9655 17.4138 36.433 14.5489 39.5437 12.5522C42.6544 10.5555 46.2741 9.5131 49.9622 9.55182C53.6503 9.59055 57.2476 10.7088 60.3163 12.7703C63.385 14.8319 65.7928 17.748 67.2464 21.1634C68.7 24.5789 69.1368 28.3465 68.5036 32.0076C67.8704 35.6687 66.1945 39.0654 63.68 41.7841C60.8005 44.9613 59.0513 49.0131 58.7077 53.3018C58.6995 53.4398 58.6407 53.5698 58.5427 53.6666C58.4446 53.7633 58.3144 53.8198 58.1773 53.8251ZM41.8459 52.7117H57.68C58.1251 48.3565 59.9432 44.2595 62.8679 41.0215C65.2368 38.4609 66.8158 35.2615 67.4127 31.813C68.0095 28.3644 67.5984 24.8154 66.2294 21.5981C64.8604 18.3807 62.5926 15.6337 59.7021 13.6917C56.8116 11.7496 53.423 10.6961 49.949 10.6596C46.475 10.6231 43.0653 11.605 40.1352 13.4859C37.205 15.3667 34.8808 18.0654 33.4455 21.2532C32.0101 24.4411 31.5256 27.9807 32.0509 31.4411C32.5761 34.9014 34.0885 38.1333 36.4039 40.7431C39.4138 44.0622 41.3168 48.2475 41.8459 52.7117Z" fill="#093F68"/>
<path d="M48.0121 53.8253C47.8656 53.8253 47.725 53.7667 47.6214 53.6623C47.5178 53.5579 47.4596 53.4163 47.4596 53.2687C47.4596 53.1518 47.4596 44.5622 46.3546 38.6225C44.4849 38.2496 42.7068 37.508 41.1226 36.4403C39.4652 35.288 38.548 33.9408 38.5812 32.7551C38.6254 31.3968 39.2773 30.4003 40.3381 30.0886C41.9955 29.6043 44.106 30.8568 45.7469 33.2783C46.5152 34.6362 47.0354 36.122 47.2828 37.665C48.9699 37.9306 50.6889 37.9156 52.3712 37.6204C53.5038 33.2338 55.106 29.8993 56.6806 29.582C57.509 29.4539 58.3555 29.6302 59.0655 30.0789C59.7755 30.5276 60.3017 31.2186 60.5479 32.0258C60.7855 32.8386 61.1833 35.6275 56.2054 37.665C55.2711 38.0484 54.3063 38.3519 53.3215 38.5724C52.2828 42.8643 51.6198 48.2029 52.0231 52.7009C52.0363 52.8485 51.9908 52.9954 51.8965 53.1092C51.8022 53.223 51.6669 53.2943 51.5204 53.3076C51.3738 53.3209 51.2281 53.275 51.1151 53.18C51.0022 53.085 50.9313 52.9487 50.9182 52.8011C50.6181 48.097 51.0185 43.3741 52.106 38.7895C50.5877 39.0098 49.0467 39.0192 47.5259 38.8173C48.5646 44.8072 48.5812 52.8011 48.5812 53.2909C48.5754 53.4376 48.5124 53.5761 48.4058 53.6762C48.2992 53.7762 48.1577 53.8299 48.0121 53.8253ZM41.0784 31.0962C40.9344 31.0958 40.7911 31.1164 40.653 31.1574C39.8519 31.3912 39.7083 32.2708 39.6917 32.7885C39.6917 33.5678 40.4596 34.6199 41.758 35.5273C43.083 36.4257 44.5605 37.071 46.1171 37.4312C45.8999 36.1903 45.4679 34.9975 44.8408 33.9074C43.4983 31.92 42.0618 31.0962 41.0784 31.0962ZM57.2496 30.6397C57.1346 30.6395 57.0199 30.6507 56.9071 30.6731C55.9126 30.8735 54.6308 33.5901 53.5922 37.3532C54.3271 37.1618 55.0487 36.922 55.7524 36.6351C58.5148 35.5218 59.9071 33.8963 59.4485 32.3487C59.2956 31.8695 59.0009 31.4489 58.6039 31.1434C58.2069 30.8379 57.7266 30.6621 57.2275 30.6397H57.2496Z" fill="#70CC40"/>
<path d="M58.0503 52.7507H41.6305C40.8768 52.7507 40.2659 53.3663 40.2659 54.1257V64.3018C40.2659 65.0612 40.8768 65.6768 41.6305 65.6768H58.0503C58.804 65.6768 59.415 65.0612 59.415 64.3018V54.1257C59.415 53.3663 58.804 52.7507 58.0503 52.7507Z" fill="#FFBC0E"/>
<path d="M58.0558 66.2338H41.6305C41.1225 66.2323 40.6357 66.0283 40.2765 65.6664C39.9173 65.3044 39.7148 64.814 39.7134 64.3021V54.126C39.7148 53.6142 39.9173 53.1237 40.2765 52.7617C40.6357 52.3998 41.1225 52.1958 41.6305 52.1943H58.0558C58.5638 52.1958 59.0506 52.3998 59.4098 52.7617C59.769 53.1237 59.9715 53.6142 59.973 54.126V64.3021C59.9715 64.814 59.769 65.3044 59.4098 65.6664C59.0506 66.0283 58.5638 66.2323 58.0558 66.2338ZM41.6305 53.3077C41.4151 53.3077 41.2085 53.3939 41.0562 53.5474C40.9039 53.7008 40.8183 53.909 40.8183 54.126V64.3021C40.8183 64.5191 40.9039 64.7273 41.0562 64.8807C41.2085 65.0342 41.4151 65.1204 41.6305 65.1204H58.0558C58.2712 65.1204 58.4778 65.0342 58.6301 64.8807C58.7824 64.7273 58.868 64.5191 58.868 64.3021V54.126C58.868 53.909 58.7824 53.7008 58.6301 53.5474C58.4778 53.3939 58.2712 53.3077 58.0558 53.3077H41.6305Z" fill="#093F68"/>
<path d="M59.1498 57.4434H40.5366C40.3901 57.4434 40.2496 57.3848 40.1459 57.2804C40.0423 57.176 39.9841 57.0344 39.9841 56.8868C39.9841 56.7391 40.0423 56.5975 40.1459 56.4931C40.2496 56.3887 40.3901 56.3301 40.5366 56.3301H59.1498C59.2963 56.3301 59.4368 56.3887 59.5405 56.4931C59.6441 56.5975 59.7023 56.7391 59.7023 56.8868C59.7023 57.0344 59.6441 57.176 59.5405 57.2804C59.4368 57.3848 59.2963 57.4434 59.1498 57.4434Z" fill="#093F68"/>
<path d="M59.1498 62.0975H40.5366C40.3901 62.0975 40.2496 62.0388 40.1459 61.9344C40.0423 61.83 39.9841 61.6884 39.9841 61.5408C39.9841 61.3932 40.0423 61.2516 40.1459 61.1472C40.2496 61.0428 40.3901 60.9841 40.5366 60.9841H59.1498C59.2963 60.9841 59.4368 61.0428 59.5405 61.1472C59.6441 61.2516 59.7023 61.3932 59.7023 61.5408C59.7023 61.6884 59.6441 61.83 59.5405 61.9344C59.4368 62.0388 59.2963 62.0975 59.1498 62.0975Z" fill="#093F68"/>
<path d="M28.7412 21.6658C28.673 21.6664 28.6053 21.6532 28.5423 21.6269L21.5534 18.8824C21.4164 18.8293 21.3059 18.7235 21.2464 18.5883C21.1868 18.4531 21.1829 18.2996 21.2357 18.1615C21.2884 18.0235 21.3935 17.9122 21.5276 17.8522C21.6618 17.7922 21.8142 17.7883 21.9512 17.8414L28.9401 20.5525C29.0594 20.6 29.1585 20.6878 29.2206 20.8009C29.2826 20.9139 29.3037 21.0452 29.2802 21.1723C29.2567 21.2993 29.19 21.4141 29.0917 21.4971C28.9933 21.58 28.8694 21.6259 28.7412 21.6269V21.6658Z" fill="#DFEAEF"/>
<path d="M36.5034 9.59713C36.4236 9.59714 36.3447 9.57972 36.2722 9.54609C36.1998 9.51245 36.1354 9.4634 36.0835 9.40229L31.5421 4.03035C31.4856 3.97749 31.4408 3.91331 31.4104 3.84194C31.3801 3.77057 31.3648 3.6936 31.3658 3.61595C31.3667 3.53831 31.3837 3.46172 31.4158 3.3911C31.4478 3.32049 31.4942 3.2574 31.5518 3.20591C31.6095 3.15442 31.6773 3.11566 31.7507 3.09212C31.8241 3.06858 31.9016 3.06078 31.9783 3.06922C32.0549 3.07766 32.1289 3.10215 32.1955 3.14113C32.2622 3.18011 32.32 3.2327 32.3653 3.29553L36.9067 8.67305C36.9736 8.75403 37.0164 8.8525 37.03 8.95701C37.0436 9.06152 37.0274 9.16777 36.9835 9.2634C36.9395 9.35903 36.8695 9.44012 36.7815 9.49723C36.6936 9.55433 36.5914 9.58512 36.4868 9.586L36.5034 9.59713Z" fill="#DFEAEF"/>
<path d="M70.2436 21.6663C70.097 21.6929 69.946 21.6597 69.8238 21.5741C69.7015 21.4885 69.618 21.3575 69.5916 21.2098C69.5653 21.0622 69.5982 20.9101 69.6831 20.7869C69.7681 20.6637 69.8982 20.5795 70.0447 20.553L77.0336 17.8419C77.1014 17.816 77.1737 17.8037 77.2462 17.8059C77.3187 17.8081 77.3901 17.8246 77.4563 17.8546C77.5225 17.8846 77.5822 17.9274 77.6319 17.9807C77.6817 18.0339 77.7206 18.0965 77.7463 18.1648C77.7986 18.3021 77.7949 18.4548 77.7359 18.5893C77.6769 18.7239 77.5674 18.8294 77.4314 18.8829L70.4425 21.6107C70.3806 21.6427 70.313 21.6617 70.2436 21.6663Z" fill="#DFEAEF"/>
<path d="M62.4812 9.59705C62.3766 9.59617 62.2744 9.56539 62.1865 9.50828C62.0986 9.45117 62.0285 9.37009 61.9846 9.27446C61.9406 9.17882 61.9244 9.07258 61.938 8.96807C61.9516 8.86356 61.9944 8.76509 62.0613 8.6841L66.6193 3.29545C66.7146 3.18325 66.8501 3.11376 66.9962 3.10227C67.1423 3.09079 67.287 3.13825 67.3983 3.23422C67.5097 3.33019 67.5787 3.4668 67.59 3.614C67.6014 3.7612 67.5543 3.90693 67.4591 4.01914L62.9011 9.41892C62.8477 9.47698 62.7826 9.52291 62.7102 9.55363C62.6378 9.58434 62.5598 9.59915 62.4812 9.59705Z" fill="#DFEAEF"/>
<path d="M49.4924 6.98631C49.3459 6.98631 49.2054 6.92766 49.1018 6.82326C48.9981 6.71887 48.9399 6.57727 48.9399 6.42963V0.556678C48.9399 0.409038 48.9981 0.267444 49.1018 0.163047C49.2054 0.0586495 49.3459 0 49.4924 0C49.639 0 49.7795 0.0586495 49.8831 0.163047C49.9867 0.267444 50.0449 0.409038 50.0449 0.556678V6.42963C50.0449 6.57727 49.9867 6.71887 49.8831 6.82326C49.7795 6.92766 49.639 6.98631 49.4924 6.98631Z" fill="#DFEAEF"/>
</svg>
